<?xml version="1.0" encoding="utf-8"?>
<!-- Generator: Adobe Illustrator 23.0.1, SVG Export Plug-In . SVG Version: 6.00 Build 0)  -->
<svg version="1.1" id="图层_1" xmlns="http://www.w3.org/2000/svg" xmlns:xlink="http://www.w3.org/1999/xlink" x="0px" y="0px"
	 viewBox="0 0 400 150" style="enable-background:new 0 0 400 150;" xml:space="preserve">
<style type="text/css">
	.st0{fill-rule:evenodd;clip-rule:evenodd;fill:#FFFFFF;}
	.st1{fill-rule:evenodd;clip-rule:evenodd;fill:url(#SVGID_1_);}
	.st2{opacity:0.1;}
	.st3{fill:none;stroke:#000000;stroke-width:7.7549;stroke-miterlimit:10;}
	.st4{fill:none;stroke:#FFFFFF;stroke-width:0.5;stroke-miterlimit:10;stroke-dasharray:2.2478;}
</style>
<g>
	<path class="st0" d="M362.6,59.9c0-1,0-1.9,0-2.9c0-0.8,0-1.6,0-2.4c0-1.8-0.2-3.5-0.5-5.3s-0.8-3.4-1.6-5c-0.8-1.6-1.8-3-3.1-4.3
		c-1.2-1.2-2.7-2.3-4.3-3.1c-1.6-0.8-3.2-1.3-5-1.6c-1.7-0.3-3.5-0.4-5.3-0.5c-0.8,0-1.6,0-2.4,0c-1,0-1.9,0-2.9,0h-29.9
		c-1,0-1.9,0-2.9,0c-0.8,0-1.6,0-2.4,0c-1.8,0-3.5,0.2-5.3,0.5s-3.4,0.8-5,1.6s-3,1.8-4.3,3.1c-1.2,1.2-2.3,2.7-3.1,4.3
		c-0.8,1.6-1.3,3.2-1.6,5c-0.3,1.7-0.4,3.5-0.5,5.3c0,0.8,0,1.6,0,2.4c0,1,0,1.9,0,2.9v29.9c0,1,0,1.9,0,2.9c0,0.8,0,1.6,0,2.4
		c0,1.8,0.2,3.5,0.5,5.3s0.8,3.4,1.6,5c0.8,1.6,1.8,3,3.1,4.3c1.2,1.2,2.7,2.3,4.3,3.1c1.6,0.8,3.2,1.3,5,1.6
		c1.7,0.3,3.5,0.4,5.3,0.5c0.8,0,1.6,0,2.4,0c1,0,1.9,0,2.9,0h29.9c1,0,1.9,0,2.9,0c0.8,0,1.6,0,2.4,0c1.8,0,3.5-0.2,5.3-0.5
		s3.4-0.8,5-1.6c1.6-0.8,3-1.8,4.3-3.1c1.2-1.2,2.3-2.7,3.1-4.3c0.8-1.6,1.3-3.2,1.6-5c0.3-1.7,0.4-3.5,0.5-5.3c0-0.8,0-1.6,0-2.4
		c0-1,0-1.9,0-2.9V59.9z"/>
	
		<linearGradient id="SVGID_1_" gradientUnits="userSpaceOnUse" x1="303.6525" y1="57.7526" x2="341.6508" y2="95.7509" gradientTransform="matrix(1 0 0 -1 0 152)">
		<stop  offset="0" style="stop-color:#FF4646"/>
		<stop  offset="1" style="stop-color:#FF7846"/>
	</linearGradient>
	<path class="st1" d="M341.6,56.2l-8.6-8.6L320.7,60l0,0l-6.7,6.7c-2.3,2.3-3.5,5.3-3.5,8.6c0,5.7,4,10.6,9.4,11.8v9.5
		c-10.6-1.3-18.8-10.4-18.8-21.3c0-5.7,2.2-11.1,6.3-15.2l4.8-4.8l3.3,3.3l3.8-3.8l-7.1-7.1l-8.6,8.6c-5.1,5.1-7.9,11.8-7.9,19
		c0,14.8,12.1,26.9,26.9,26.9s26.9-12.1,26.9-26.9C349.5,68.1,346.7,61.3,341.6,56.2 M315.9,75.2c0-1.8,0.7-3.5,2-4.8l4.8-4.8
		l4.8,4.8c1.3,1.3,2,3,2,4.8c0,3.7-3,6.7-6.7,6.7C318.9,82,315.9,78.9,315.9,75.2 M325.3,96.6V87c5.4-1.2,9.4-6,9.4-11.8
		c0-3.2-1.3-6.3-3.5-8.6l-4.8-4.8l6.7-6.7l4.8,4.8c4.1,4.1,6.3,9.5,6.3,15.2C344.1,86.2,335.9,95.2,325.3,96.6"/>
</g>
<g>
	<g class="st2">
		<path class="st3" d="M81.2,65.2l-9.7-9.7l-9.7,9.7c-2.5,2.5-4,5.9-4,9.7c0,7.6,6.1,13.7,13.7,13.7s13.7-6.1,13.7-13.7
			C85.3,71.1,83.7,67.7,81.2,65.2z"/>
		<path class="st3" d="M64,47.9l-7.6-7.6L46.7,50l0,0c-6.4,6.4-10.3,15.2-10.3,24.9c0,19.4,15.8,35.2,35.2,35.2s35.2-15.8,35.2-35.2
			c0-9.7-3.9-18.5-10.3-24.9l-9.7-9.7L71.6,55.5"/>
		<line class="st3" x1="71.6" y1="88.6" x2="71.6" y2="110.1"/>
	</g>
	<g>
		<circle class="st4" cx="71.6" cy="74.9" r="35.2"/>
		<circle class="st4" cx="71.6" cy="74.9" r="24.5"/>
		<circle class="st4" cx="71.6" cy="74.9" r="13.7"/>
		
			<rect x="54" y="32.4" transform="matrix(0.7071 -0.7071 0.7071 0.7071 -14.4037 65.2771)" class="st4" width="35.2" height="35.2"/>
	</g>
</g>
</svg>
