<?xml version="1.0" encoding="utf-8"?>
<!-- Generator: Adobe Illustrator 23.0.1, SVG Export Plug-In . SVG Version: 6.00 Build 0)  -->
<svg version="1.1" id="图层_1" xmlns="http://www.w3.org/2000/svg" xmlns:xlink="http://www.w3.org/1999/xlink" x="0px" y="0px"
	 viewBox="0 0 870 400" style="enable-background:new 0 0 870 400;" xml:space="preserve">
<style type="text/css">
	.st0{fill:#FCCF00;}
	.st1{fill-rule:evenodd;clip-rule:evenodd;fill:#BD9482;}
	.st2{fill-rule:evenodd;clip-rule:evenodd;fill:#7DCCF3;}
	.st3{fill-rule:evenodd;clip-rule:evenodd;fill:#FF8000;}
	.st4{fill-rule:evenodd;clip-rule:evenodd;fill:#6FB92C;}
	.st5{fill-rule:evenodd;clip-rule:evenodd;fill:#FCCF00;}
	.st6{fill:#6FB92C;}
</style>
<g id="XMLID_2_">
	<path id="XMLID_2640_" class="st0" d="M270.1,236.5l8.9-1.3c-1.4-9.7,3.4-15.5,7.6-18.6c9.3-6.9,25.1-8.1,36.7-2.7l4.3,2l1.8-4.4
		c4.3-10.8,15.9-19.4,28.2-20.9c18.1-2.2,34.3,8.1,36.1,23.1l8.9-1.1c-2.4-19.9-23.2-33.8-46.2-31c-14.1,1.7-27.1,10.5-33.6,22.4
		c-13.9-4.8-30.8-2.8-41.7,5.3C272.4,215.8,268.5,225.5,270.1,236.5z"/>
	<path id="XMLID_2626_" class="st0" d="M339.1,228l9.7-1.2c-0.9-7.3,4.3-13.9,11.6-14.8c7.3-0.9,13.9,4.3,14.8,11.6l9.7-1.2
		c-1.6-12.6-13.1-21.6-25.7-20.1S337.5,215.4,339.1,228z"/>
	<path id="XMLID_2619_" class="st1" d="M248.7,195.5l-3.5,7.9l-26.5-11.7l-2.1,4.8l26.5,11.7l-2.9,6.6l-26.5-11.7l-2.1,4.8
		l26.5,11.7l-3.3,7.5l-34.7-15.3c-5.1-2.2-7.5-8.3-5.2-13.4l-49.6-21.8l5.9-13.4l49.6,21.8c2.4-4.9,8.2-7.1,13.2-4.9L248.7,195.5
		L248.7,195.5z"/>
	<path id="XMLID_2607_" class="st2" d="M265,296.8l-76.6,9.4l8.7,11.7l66.6-8.2C263.5,305,263.9,300.7,265,296.8z M153.5,259.5
		l8.7,11.7l144.6-17.8c-0.9-4.4-1.8-8.6-2.7-12.4L153.5,259.5z M309,265.9l-138,16.9l8.7,11.7l93.6-11.5c9-8.3,23.1-10.6,36.8-5.9
		C309.9,273.4,309.5,269.6,309,265.9z"/>
	<path id="XMLID_2606_" class="st3" d="M323.3,189.8c-1.1-2-1.8-4.2-2.1-6.6c-1.3-10.3,6.1-19.7,16.3-20.9c8.6-1.1,16.6,4,19.7,11.7
		C345.1,174.6,332,179.3,323.3,189.8z"/>
	<path id="XMLID_2605_" class="st0" d="M261.3,196c13.7-11.4,32.6-15.7,53.3-12.9c0.2,3,0.9,6.7,2.2,10.3
		c-19.3-3.5-37-0.1-49.2,10.1c-10.7,8.9-15.4,21.6-12.9,34.7L245,240C241.8,223.5,247.9,207.1,261.3,196z"/>
	<path id="XMLID_2604_" class="st0" d="M197.3,218.2l9.3,3.2c-2.4,6.7-2.3,14.6,0.5,21.8l-9.1,3.6
		C194.3,237.3,194.1,227,197.3,218.2z"/>
	<path id="XMLID_2603_" class="st0" d="M179.4,209.4l9.2,3.4c-4.2,10.8-4.7,23-0.9,32.9l-9.1,3.5C173.8,237,174.4,222.3,179.4,209.4
		z"/>
	<path id="XMLID_2601_" class="st0" d="M236.7,183c12.5-12.4,29.8-20.4,49.1-22.8c11.2-1.4,22.4-0.9,32.8,1.4
		c-2,2.4-3.8,5.3-5.2,8.9c-8.4-1.5-17.4-1.7-26.4-0.6c-15.7,1.9-29.8,8-40.5,17.3L236.7,183z"/>
	<path id="XMLID_2581_" class="st0" d="M162.2,250.8l9.1-3.6c-6.1-15.3-3.7-34.8,5.3-50.9l-8.8-4.4
		C157.5,210.3,155,232.6,162.2,250.8z M184.6,171.1l10.3,4.4c13.1-9.5,36.2-18.3,69.5-1.6l4.4-8.8
		C237.6,149.5,207.1,151.7,184.6,171.1z"/>
	<path id="XMLID_1514_" class="st4" d="M267.5,156.8c0,0-4.9-3.1-12.2-5.1c2-2.5,4.9-4.3,8.4-4.8c5.6-0.7,10.8,2.5,13,7.4
		C272.2,155.1,267.5,156.8,267.5,156.8z"/>
	<path id="XMLID_299_" class="st3" d="M506.3,193.2L506.3,193.2c-24.7-17.1-55.2-22.9-82.4-23.9l11.9,31.5
		C458.3,194.1,482.8,191.5,506.3,193.2z M325.6,302.2l94.2-11.6c-5-18.7-2.1-39.9,11-55.9l3.4,1.2c-6,20.7-6,37.9-2.9,53.2l27.6-3.4
		c-4.8-21.2-1.2-44.7,13.2-62.8l4.3,1.6c-6.6,22.9-6.9,42.2-3.8,59.5l28.9-3.6c-3.9-17.9-0.7-37.8,11.7-52.9l3.4,1.2
		c-5.6,19.3-6,35.7-3.4,50.3l33-4c-1.1-12.9-0.7-26.8,1.7-41.9c2.8-0.6,5.5-1.3,8.3-1.9c-1.8,14.6-1.9,28.9,0.7,42.5l63.4-7.8
		c-37.2-89.1-211.9-85.7-258.7-0.1c-12.3-22.3-32.3-38.2-52.3-48.9C317.8,233.2,323.9,269.1,325.6,302.2z M566.6,251.8
		c-0.4-5.2,2.9-9.7,7.5-10.1c4.6-0.4,8.6,3.5,9.1,8.7c0.4,5.2-2.9,9.7-7.5,10.1C571.1,260.9,567,257,566.6,251.8z"/>
	<path id="XMLID_298_" class="st5" d="M309.1,304.2l30.5-3.8c-1-8.4-8.7-14.4-17.1-13.4S308.1,295.8,309.1,304.2z"/>
	<path id="XMLID_297_" class="st4" d="M276.8,308.2l40.9-5c-1.4-11.3-11.7-19.3-23-17.9C283.5,286.6,275.4,296.9,276.8,308.2z"/>
	<path id="XMLID_24_" class="st2" d="M431.6,343.6l50-6.1c-1.7-13.8-14.3-23.6-28.1-21.9C439.7,317.2,429.9,329.8,431.6,343.6z
		 M371.1,351l50-6.1c-1.7-13.8-14.3-23.6-28.1-21.9C379.3,324.6,369.4,337.2,371.1,351z M310.7,358.4l50-6.1
		c-1.7-13.8-14.3-23.6-28.1-21.9C318.8,332,309,344.6,310.7,358.4z M492,336.1l50-6.1c-1.7-13.8-14.3-23.6-28.1-21.9
		C500.2,309.7,490.3,322.3,492,336.1z M239.5,321.5l17.5,10.5c4.1-2.4,8.8-4.1,13.8-4.7c12.8-1.6,24.8,3.9,32.3,13.3
		c5-10.9,15.4-19.1,28.1-20.7c12.8-1.6,24.8,3.9,32.3,13.3c5-10.9,15.4-19.1,28.1-20.7c12.8-1.6,24.8,3.9,32.3,13.3
		c5-10.9,15.4-19.1,28.1-20.7c12.8-1.6,24.8,3.9,32.3,13.3c5-10.9,15.4-19.1,28.1-20.7s24.8,3.9,32.3,13.3
		c5-10.9,15.4-19.1,28.1-20.7s24.8,3.9,32.3,13.3c5-10.9,15.4-19.1,28.1-20.7c4.7-0.6,9.3-0.2,13.6,1l15.5-14.2L239.5,321.5z
		 M552.5,328.7l50-6.1c-1.7-13.8-14.3-23.6-28.1-21.9C560.6,302.3,550.8,314.9,552.5,328.7z M272.2,337.7c-1.4,0.2-2.8,0.5-4.2,0.9
		l32,19.2C297.4,345,285.3,336.1,272.2,337.7z M612.9,315.1L637,293c-0.7,0-1.4,0.1-2.1,0.2C623.2,294.6,614.3,303.9,612.9,315.1z"
		/>
	<polygon id="XMLID_23_" class="st6" points="429.9,107.5 443.1,104.9 431,43.6 387.6,38.4 386,51.8 419.6,55.9 	"/>
	<path id="XMLID_20_" class="st3" d="M460.9,158.3c1.4,2.2,0.9,5-1.2,6.5c3.4,0.8,6.6,1.6,9.7,2.5l-0.2-29.9l-1.6,6.2
		c-0.7,2.6-3.3,4.1-5.8,3.4l-9.9-2.6L460.9,158.3z M391.3,109.7l12,49.7c8.4-0.4,16.5-0.2,24.2,0.4l-1.1-1.7
		c-1.5-2.2-0.8-5.2,1.4-6.6l14.6-9.6c-2.1-1-3.2-3.3-2.6-5.5l4.9-18.5c0.7-2.6,3.3-4.1,5.8-3.4l18.5,4.9c0,0,0,0,0,0l-0.1-19.2
		l-48,5.9l13.9,3.7c2.6,0.7,4.1,3.3,3.4,5.8l-4.9,18.5c-0.7,2.6-3.3,4.1-5.8,3.4l-18.5-4.9c-2.6-0.7-4.1-3.3-3.4-5.8l4.9-18.5
		c0.1-0.3,0.2-0.7,0.4-1L391.3,109.7z"/>
	<path id="XMLID_19_" class="st0" d="M483.1,171.8l-1-101.3l-89.9,11l18.6,77.7c-3,0-6.1,0.1-9.2,0.3l-20.5-85.7l110-13.5l1.1,115
		C489.4,174.1,486.4,173,483.1,171.8z"/>
	<path id="XMLID_18_" class="st3" d="M543.9,186.6L716,165.5c3.6-0.4,6.1-3.7,5.7-7.3v0c-0.4-3.6-3.7-6.1-7.3-5.7l-172.1,21.1
		c-3.6,0.4-6.1,3.7-5.7,7.3l0,0C537.1,184.5,540.3,187,543.9,186.6z"/>
	<path id="XMLID_17_" class="st4" d="M539.8,169.3l176.1-21.6c2.5-0.3,4.3-2.6,4-5.1l0,0c-0.3-2.5-2.6-4.3-5.1-4l-176.1,21.6
		c-2.5,0.3-4.3,2.6-4,5.1v0C535,167.9,537.3,169.6,539.8,169.3z"/>
	<path id="XMLID_7_" class="st5" d="M542.8,155.2l166.8-20.5c-20.3-26.4-53.7-41.8-89.2-37.4C584.8,101.7,556.1,124.6,542.8,155.2z
		 M673.7,127.4c-0.2-1.6,1-3.1,2.6-3.3c1.6-0.2,3.1,1,3.3,2.6c0.2,1.6-1,3.1-2.6,3.3C675.4,130.2,673.9,129,673.7,127.4z
		 M656.1,123.4c-0.4-3.6,2.1-6.8,5.7-7.3c3.6-0.4,6.8,2.1,7.3,5.7c0.4,3.6-2.1,6.8-5.7,7.3C659.8,129.5,656.5,127,656.1,123.4z
		 M648.1,114.6c-1.6,0.2-3-0.9-3.2-2.5c-0.2-1.6,0.9-3,2.5-3.2c1.6-0.2,3,0.9,3.2,2.5C650.8,113,649.7,114.4,648.1,114.6z
		 M643.2,130.4c-0.3-2.2,1.3-4.2,3.5-4.4c2.2-0.3,4.2,1.3,4.4,3.5c0.3,2.2-1.3,4.2-3.5,4.4C645.4,134.1,643.4,132.6,643.2,130.4z
		 M625.8,128.8c-0.4-3.6,2.1-6.8,5.7-7.3c3.6-0.4,6.8,2.1,7.3,5.7c0.4,3.6-2.1,6.8-5.7,7.3C629.5,134.9,626.2,132.4,625.8,128.8z
		 M608.4,134.2c-0.3-2.6,1.5-4.9,4.1-5.2c2.6-0.3,4.9,1.5,5.2,4.1c0.3,2.6-1.5,4.9-4.1,5.2C611.1,138.6,608.7,136.8,608.4,134.2z
		 M599.1,117.6c-0.2-1.6,1-3.1,2.6-3.3c1.6-0.2,3.1,1,3.3,2.6c0.2,1.6-1,3.1-2.6,3.3C600.8,120.4,599.3,119.3,599.1,117.6z
		 M592.7,132.3c-0.3-2.2,1.3-4.2,3.5-4.4c2.2-0.3,4.2,1.3,4.4,3.5c0.3,2.2-1.3,4.2-3.5,4.4C595,136,593,134.5,592.7,132.3z"/>
	<path id="XMLID_6_" class="st1" d="M540.6,197.4c1.7-3.7,5.3-6.4,9.6-7l160.7-19.7c6.7-0.8,12.9,4,13.7,10.7
		c0.8,6.7-4,12.9-10.7,13.7l-134.5,16.5C567.5,205.4,554.4,200.6,540.6,197.4z"/>
	<path id="XMLID_5_" class="st5" d="M586.1,215.4l131.6-16.2c-4.3,10-10.3,19.2-17.6,27.3l-87.2,10.7
		C605.3,228.7,596.2,221.4,586.1,215.4z"/>
</g>
</svg>
