<?xml version="1.0" encoding="utf-8"?>
<!-- Generator: Adobe Illustrator 23.0.1, SVG Export Plug-In . SVG Version: 6.00 Build 0)  -->
<svg version="1.1" id="图层_1" xmlns="http://www.w3.org/2000/svg" xmlns:xlink="http://www.w3.org/1999/xlink" x="0px" y="0px"
	 viewBox="0 0 400 150" style="enable-background:new 0 0 400 150;" xml:space="preserve">
<style type="text/css">
	.st0{fill-rule:evenodd;clip-rule:evenodd;fill:#FFFFFF;}
	.st1{fill-rule:evenodd;clip-rule:evenodd;fill:#E60013;}
</style>
<g>
	<path class="st0" d="M187.5,35.4h24.2c8,0,12,0,16.4,1.4c4.7,1.7,8.4,5.4,10.2,10.2c1.4,4.3,1.4,8.3,1.4,16.4v24.2
		c0,8,0,12-1.4,16.4c-1.7,4.7-5.4,8.4-10.2,10.2c-4.3,1.4-8.3,1.4-16.4,1.4h-24.2c-8,0-12,0-16.4-1.4c-4.7-1.7-8.4-5.4-10.2-10.2
		c-1.4-4.3-1.4-8.3-1.4-16.4V63.3c0-8,0-12,1.4-16.4c1.7-4.7,5.4-8.4,10.2-10.2C175.5,35.4,179.5,35.4,187.5,35.4"/>
	<path class="st1" d="M225.8,88.4c-0.3,0.4-8.2,9.3-16.6,8.1c-3.6-0.5-5.9-2.1-7.9-3.5c-1.9-1.3-3.5-2.4-5.7-2.3
		c-2.5,0.1-3.9,1.5-5.5,3.1c-1.8,1.8-3.8,3.7-7.4,3.7c-0.2,0-0.5,0-0.7,0c-2.6-0.2-4.7-1.6-6.2-4.1c-4-6.7-3.3-20.3,0-28
		c0.4-0.9,1.5-1.4,2.4-1s1.4,1.5,1,2.4c-2.9,6.6-3.6,19.1-0.2,24.6c0.9,1.5,2,2.3,3.3,2.4c2.2,0.2,3.4-0.9,5.3-2.7
		c1.8-1.7,4-3.9,7.9-4.1c3.5-0.2,5.8,1.4,8,2.9c1.9,1.3,3.6,2.5,6.3,2.9c6.4,0.9,13.2-6.8,13.3-6.9c0.7-0.8,1.9-0.8,2.6-0.2
		C226.4,86.4,226.5,87.6,225.8,88.4z M181.8,71.1c12.9-2.5,26.2-1,26.7-1c1,0.1,1.7,1,1.6,2.1c-0.1,1-1,1.8-2.1,1.6
		c-0.1,0-13.3-1.5-25.6,0.9c-0.1,0-0.2,0-0.4,0c-0.9,0-1.6-0.6-1.8-1.5C180.1,72.3,180.8,71.3,181.8,71.1z M184,63.3
		c8.7-3.3,25.3-3,32.2,1.9c3.1,2.2,3.7,4.7,3.6,6.5c-0.1,2.6-1.1,4.8-3.2,6.6c-4.9,4.2-14.8,5.2-22.6,5.2c-5.9,0-10.7-0.5-11.1-0.6
		c-1-0.1-1.7-1-1.6-2.1c0.1-1,1-1.7,2.1-1.6c6.5,0.8,24.8,1.6,30.9-3.7c1.2-1.1,1.9-2.3,1.9-3.8c0-1.3-0.6-2.4-2-3.4
		c-6-4.2-21-4.3-28.7-1.5c-1,0.4-2-0.1-2.4-1.1C182.5,64.8,183,63.7,184,63.3z M191.2,54.2c0.4-0.9,1.5-1.4,2.5-0.9
		c2.8,1.3,5.6,1,5.6,1c1-0.1,1.9,0.6,2,1.6s-0.6,1.9-1.6,2c0,0-0.4,0-1.1,0c-1.4,0-3.9-0.2-6.5-1.4
		C191.2,56.2,190.8,55.1,191.2,54.2z"/>
</g>
</svg>
