<svg xmlns="http://www.w3.org/2000/svg" xmlns:xlink="http://www.w3.org/1999/xlink" viewBox="0 0 2275 1074.75"><defs><style>.a,.ad,.af,.ag,.ai,.ak,.am,.b,.c,.g,.o,.u{fill:none;}.a{clip-rule:evenodd;}.aa,.b,.f,.m,.y{fill-rule:evenodd;}.d{fill:#999;}.ac,.ah,.e,.y{fill:#fff;}.g,.u{stroke:#000;}.ad,.af,.ag,.ai,.ak,.am,.g{stroke-linecap:round;stroke-linejoin:round;}.ad,.af,.ag,.g{stroke-width:2px;}.h,.i{font-size:16px;}.ab,.ac,.an,.h,.i,.j,.k,.x,.z{font-family:PingFangSC-Regular, PingFang SC;}.i{fill:#ccc;}.j,.k{font-size:12px;}.k,.z{fill:#aaa;}.aa,.ap,.l{fill:#ddd;}.m{fill:rgba(0,0,0,0.3);}.n{clip-path:url(#c);}.o{stroke:#ededed;stroke-width:6px;}.p{clip-path:url(#e);}.q{clip-path:url(#f);}.r{fill:rgba(255,255,255,0);}.s{clip-path:url(#i);}.t{fill:#ededed;}.ai,.ak,.am,.u{stroke-width:3px;}.v{clip-path:url(#k);}.w{clip-path:url(#l);}.x{font-size:8px;}.ab,.z{font-size:10px;}.ac{font-size:14px;}.ad,.ai{stroke:#fff;}.ae{fill:rgba(0,0,0,0.4);}.af{stroke:#e3e3e3;}.ag{stroke:rgba(0,0,0,0.8);}.aj{fill:url(#ag);}.ak{stroke:#26ff00;}.al{fill:#26ff00;}.am{stroke:#7dff66;}.an{font-size:22px;}.ao,.ap{stroke:none;}.aq{filter:url(#an);}.ar{filter:url(#al);}.as{filter:url(#aj);}.at{filter:url(#ah);}.au{filter:url(#ae);}.av{filter:url(#ac);}.aw{filter:url(#aa);}.ax{filter:url(#y);}.ay{filter:url(#w);}.az{filter:url(#u);}.ba{filter:url(#s);}.bb{filter:url(#q);}.bc{filter:url(#o);}.bd{filter:url(#m);}.be{filter:url(#a);}</style><filter id="a" x="996" y="304" width="283" height="45" filterUnits="userSpaceOnUse"><feOffset dy="1" input="SourceAlpha"/><feGaussianBlur result="b"/><feFlood flood-opacity="0.102"/><feComposite operator="in" in2="b"/><feComposite in="SourceGraphic"/></filter><clipPath id="c"><path class="a" d="M4-50H46a4,4,0,0,1,4,4V-4a4,4,0,0,1-4,4H4A4,4,0,0,1,0-4V-46A4,4,0,0,1,4-50Z"/></clipPath><clipPath id="e"><rect class="c" width="58" height="50" transform="translate(-8 -50)"/></clipPath><clipPath id="f"><path class="c" d="M0,0H50V-50H0Z"/></clipPath><clipPath id="i"><path class="a" d="M20,0H-7.5L10.9-24.533a2,2,0,0,1,2.8-.4,2,2,0,0,1,.4.4l12.15,16.2,4.65-6.2a2,2,0,0,1,2.8-.4,2,2,0,0,1,.4.4L45,0ZM38.333-29.167A3.333,3.333,0,0,1,35-32.5a3.333,3.333,0,0,1,3.333-3.333A3.333,3.333,0,0,1,41.667-32.5,3.333,3.333,0,0,1,38.333-29.167Z"/></clipPath><clipPath id="k"><path class="a" d="M0-11.994A2,2,0,0,1,2-14H38a2,2,0,0,1,2,2.006v9.988A2,2,0,0,1,38,0H2A2,2,0,0,1,0-2.006Z"/></clipPath><clipPath id="l"><path class="c" d="M0,0H40V-14H0Z"/></clipPath><filter id="m" x="501" y="440" width="323" height="45" filterUnits="userSpaceOnUse"><feOffset dy="1" input="SourceAlpha"/><feGaussianBlur result="n"/><feFlood flood-opacity="0.102"/><feComposite operator="in" in2="n"/><feComposite in="SourceGraphic"/></filter><filter id="o" x="501" y="485" width="323" height="45" filterUnits="userSpaceOnUse"><feOffset dy="1" input="SourceAlpha"/><feGaussianBlur result="p"/><feFlood flood-opacity="0.102"/><feComposite operator="in" in2="p"/><feComposite in="SourceGraphic"/></filter><filter id="q" x="501" y="375" width="323" height="65" filterUnits="userSpaceOnUse"><feOffset dy="1" input="SourceAlpha"/><feGaussianBlur result="r"/><feFlood flood-opacity="0.102"/><feComposite operator="in" in2="r"/><feComposite in="SourceGraphic"/></filter><filter id="s" x="1451" y="256" width="323" height="45" filterUnits="userSpaceOnUse"><feOffset dy="1" input="SourceAlpha"/><feGaussianBlur result="t"/><feFlood flood-opacity="0.102"/><feComposite operator="in" in2="t"/><feComposite in="SourceGraphic"/></filter><filter id="u" x="1451" y="301" width="323" height="45" filterUnits="userSpaceOnUse"><feOffset dy="1" input="SourceAlpha"/><feGaussianBlur result="v"/><feFlood flood-opacity="0.102"/><feComposite operator="in" in2="v"/><feComposite in="SourceGraphic"/></filter><filter id="w" x="1451" y="346" width="323" height="45" filterUnits="userSpaceOnUse"><feOffset dy="1" input="SourceAlpha"/><feGaussianBlur result="x"/><feFlood flood-opacity="0.102"/><feComposite operator="in" in2="x"/><feComposite in="SourceGraphic"/></filter><filter id="y" x="1451" y="527" width="323" height="45" filterUnits="userSpaceOnUse"><feOffset dy="1" input="SourceAlpha"/><feGaussianBlur result="z"/><feFlood flood-opacity="0.102"/><feComposite operator="in" in2="z"/><feComposite in="SourceGraphic"/></filter><filter id="aa" x="1451" y="572" width="323" height="45" filterUnits="userSpaceOnUse"><feOffset dy="1" input="SourceAlpha"/><feGaussianBlur result="ab"/><feFlood flood-opacity="0.102"/><feComposite operator="in" in2="ab"/><feComposite in="SourceGraphic"/></filter><filter id="ac" x="1451" y="617" width="323" height="45" filterUnits="userSpaceOnUse"><feOffset dy="1" input="SourceAlpha"/><feGaussianBlur result="ad"/><feFlood flood-opacity="0.102"/><feComposite operator="in" in2="ad"/><feComposite in="SourceGraphic"/></filter><filter id="ae" x="1451" y="425" width="323" height="65" filterUnits="userSpaceOnUse"><feOffset dy="1" input="SourceAlpha"/><feGaussianBlur result="af"/><feFlood flood-opacity="0.102"/><feComposite operator="in" in2="af"/><feComposite in="SourceGraphic"/></filter><linearGradient id="ag" x1="0.5" x2="0.5" y2="1" gradientUnits="objectBoundingBox"><stop offset="0" stop-color="#fff" stop-opacity="0"/><stop offset="0.69" stop-color="#fff"/><stop offset="1" stop-color="#fff"/></linearGradient><filter id="ah" x="1926" y="188" width="323" height="65" filterUnits="userSpaceOnUse"><feOffset dy="1" input="SourceAlpha"/><feGaussianBlur result="ai"/><feFlood flood-opacity="0.102"/><feComposite operator="in" in2="ai"/><feComposite in="SourceGraphic"/></filter><filter id="aj" x="1926" y="353" width="323" height="65" filterUnits="userSpaceOnUse"><feOffset dy="1" input="SourceAlpha"/><feGaussianBlur result="ak"/><feFlood flood-opacity="0.102"/><feComposite operator="in" in2="ak"/><feComposite in="SourceGraphic"/></filter><filter id="al" x="1926" y="252" width="323" height="65" filterUnits="userSpaceOnUse"><feOffset dy="1" input="SourceAlpha"/><feGaussianBlur result="am"/><feFlood flood-opacity="0.102"/><feComposite operator="in" in2="am"/><feComposite in="SourceGraphic"/></filter><filter id="an" x="1926" y="417" width="323" height="65" filterUnits="userSpaceOnUse"><feOffset dy="1" input="SourceAlpha"/><feGaussianBlur result="ao"/><feFlood flood-opacity="0.102"/><feComposite operator="in" in2="ao"/><feComposite in="SourceGraphic"/></filter></defs><g transform="translate(-100 -252)"><g transform="translate(1050 252)"><rect class="d" width="375" height="812"/><rect class="e" width="323" height="220" rx="10" transform="translate(26 240)"/><path class="f" d="M163.209-188.1v-4.292a5.451,5.451,0,0,0,4.233-5.305,5.407,5.407,0,0,0-1.594-3.848l-2.138-2.138,2.993-2.993,2.138,2.138a9.611,9.611,0,0,1,2.834,6.841,9.687,9.687,0,0,1-8.466,9.6m-4.233-9.6a3,3,0,0,1,.886-2.138L162-201.97l2.138,2.138a3,3,0,0,1,.886,2.138A3.027,3.027,0,0,1,162-194.671a3.027,3.027,0,0,1-3.023-3.023m11.575-8.552-3.848-3.848-5.559,5.559h0l-2.993,2.993a5.407,5.407,0,0,0-1.594,3.848,5.451,5.451,0,0,0,4.233,5.305v4.292a9.687,9.687,0,0,1-8.466-9.6,9.611,9.611,0,0,1,2.834-6.841l2.138-2.138,1.5,1.5,1.71-1.71-3.207-3.207-3.848,3.848a12.014,12.014,0,0,0-3.542,8.552A12.107,12.107,0,0,0,162-185.6a12.107,12.107,0,0,0,12.094-12.094,12.014,12.014,0,0,0-3.542-8.552" transform="translate(26 460)"/><path class="g" d="M0,9.9,9.9,0" transform="translate(310 257)"/><path class="g" d="M0,0,9.9,9.9" transform="translate(310 257)"/><g class="be" transform="matrix(1, 0, 0, 1, -950, 0)"><rect class="e" width="283" height="44" transform="translate(996 304)"/></g><g transform="translate(248.667 315)"><text class="h" transform="translate(0 17)"><tspan x="0" y="0">发送验证码</tspan></text></g><text class="i" transform="translate(46 332)"><tspan x="0" y="0">输⼊手机号登录/注册…</tspan></text><rect width="2" height="22" rx="1" transform="translate(46 315)"/><text class="j" transform="translate(105.387 375)"><tspan x="0" y="0">登录即同意嗨农宝《会员协议》</tspan></text><text class="k" transform="translate(252.76 429)"><tspan x="-48" y="0">一键登录</tspan></text><path class="f" d="M282.475-28.625A9.287,9.287,0,0,1,278-36.375C278-41.691,282.925-46,289-46s11,4.309,11,9.625-4.925,9.625-11,9.625a12.408,12.408,0,0,1-3.669-.549L281.3-25.1ZM284.6-36.65a1.375,1.375,0,0,0,1.375-1.375A1.375,1.375,0,0,0,284.6-39.4a1.375,1.375,0,0,0-1.375,1.375A1.375,1.375,0,0,0,284.6-36.65Zm8.8,0a1.375,1.375,0,0,0,1.375-1.375A1.375,1.375,0,0,0,293.4-39.4a1.375,1.375,0,0,0-1.375,1.375A1.375,1.375,0,0,0,293.4-36.65Z" transform="translate(26 460)"/><path class="f" d="M251-47a11,11,0,0,0-11,11,11.018,11.018,0,0,0,.321,2.6,3.678,3.678,0,0,1,.865-.831,6.077,6.077,0,0,1,3.457-.946,15.615,15.615,0,0,1,6.066,1.631,12.12,12.12,0,0,0,1.174.424,10.887,10.887,0,0,0,2.153-4.174l-8.414.033v-.946l3.977-.032v-2.12h-5.576v-.914H249.6v-1.728c0-.325.425-.489,1.3-.489l1.468.033v2.184h5.773v.914h-5.773v2.12h4.566a10.922,10.922,0,0,1-2.674,5.935c1.077.325,2.186.652,3.391,1.011a26.152,26.152,0,0,0,2.966.626A10.946,10.946,0,0,0,262-36a11,11,0,0,0-11-11Zm1.763,16.191c-.194.163-.39.326-.586.522a11.948,11.948,0,0,1-7.012,2.706h-.423c-.294-.032-.554-.032-.848-.065-.017,0-.032-.006-.048-.008A10.947,10.947,0,0,0,251-25a10.961,10.961,0,0,0,7.93-3.389c-.348-.1-.687-.2-1.013-.3a39.116,39.116,0,0,1-5.155-2.12Zm-2.053-1.044c-1.24-.619-4.034-2.093-6.685-2.021A2.729,2.729,0,0,0,241.35-31.5c0,1.795,1.465,2.676,3.554,2.676,2.5,0,5.16-2.418,5.805-3.034Z" transform="translate(26 460)"/></g><g transform="translate(100 252)"><rect class="e" width="375" height="812" transform="translate(0 1)"/><rect class="l" width="375" height="204"/><text class="j" transform="translate(26 231)"><tspan x="0" y="0">认购一级轮播标题</tspan></text><rect class="c" width="6" height="6" transform="translate(331 223)"/><path class="c" d="M305-19h6v-6h-6Z" transform="translate(26 248)"/><path class="m" d="M308-19a3,3,0,0,0,3-3,3,3,0,0,0-3-3,3,3,0,0,0-3,3A3,3,0,0,0,308-19Z" transform="translate(26 248)"/><path class="m" d="M308-19a3,3,0,0,0,3-3,3,3,0,0,0-3-3,3,3,0,0,0-3,3A3,3,0,0,0,308-19Z" transform="translate(14 248)"/><path class="f" d="M308-19a3,3,0,0,0,3-3,3,3,0,0,0-3-3,3,3,0,0,0-3,3A3,3,0,0,0,308-19Z" transform="translate(2 248)"/><path class="m" d="M308-19a3,3,0,0,0,3-3,3,3,0,0,0-3-3,3,3,0,0,0-3,3A3,3,0,0,0,308-19Z" transform="translate(38 248)"/><g transform="translate(163 373)"><g class="n"><g transform="translate(0 -50)"><path class="o" d="M4,0H46a4,4,0,0,1,4,4V46a4,4,0,0,1-4,4H4a4,4,0,0,1-4-4V4A4,4,0,0,1,4,0Z"/></g></g><g class="n"><g class="p"><g class="q"><path class="r" d="M4-50H46a4,4,0,0,1,4,4V-4a4,4,0,0,1-4,4H4A4,4,0,0,1,0-4V-46A4,4,0,0,1,4-50Z"/></g><g class="n"><g class="q"><g transform="translate(0 -50)"><path class="o" d="M4,0H46a4,4,0,0,1,4,4V46a4,4,0,0,1-4,4H4a4,4,0,0,1-4-4V4A4,4,0,0,1,4,0Z"/></g></g></g><g class="s"><g class="q"><path class="t" d="M-12.5,5H50V-40.833H-12.5Z"/></g></g></g></g></g><rect class="l" width="323" height="160" rx="4" transform="translate(26 268)"/><text class="k" transform="translate(348.836 477)"><tspan x="-48" y="0">剩余份数</tspan></text><text class="k" transform="translate(26 477)"><tspan x="0" y="0">返利描述</tspan></text><text class="h" transform="translate(349 456)"><tspan x="-32" y="0">价格</tspan></text><text class="h" transform="translate(26 456)"><tspan x="0" y="0">商品标题</tspan></text><g transform="translate(0 246)"><g class="u" transform="translate(163 77)"><rect class="ao" width="50" height="50" rx="4"/><rect class="c" x="1.5" y="1.5" width="47" height="47" rx="2.5"/></g><path class="f" d="M19.906-2.066H1.61v-10.08L10.9-24.533a2,2,0,0,1,2.8-.4,2,2,0,0,1,.4.4l12.15,16.2,4.65-6.2a2,2,0,0,1,2.8-.4,2,2,0,0,1,.4.4L43.587-2.066Zm18.427-27.1A3.333,3.333,0,0,1,35-32.5a3.333,3.333,0,0,1,3.333-3.333A3.333,3.333,0,0,1,41.667-32.5,3.333,3.333,0,0,1,38.333-29.167Z" transform="translate(163 127)"/></g><g transform="translate(0 244)"><rect class="l" width="323" height="160" rx="4" transform="translate(26 268)"/><text class="k" transform="translate(348.836 477)"><tspan x="-48" y="0">剩余份数</tspan></text><text class="k" transform="translate(26 477)"><tspan x="0" y="0">返利描述</tspan></text><text class="h" transform="translate(349 456)"><tspan x="-32" y="0">价格</tspan></text><text class="h" transform="translate(26 456)"><tspan x="0" y="0">商品标题</tspan></text><g transform="translate(0 246)"><g class="u" transform="translate(163 77)"><rect class="ao" width="50" height="50" rx="4"/><rect class="c" x="1.5" y="1.5" width="47" height="47" rx="2.5"/></g><path class="f" d="M19.906-2.066H1.61v-10.08L10.9-24.533a2,2,0,0,1,2.8-.4,2,2,0,0,1,.4.4l12.15,16.2,4.65-6.2a2,2,0,0,1,2.8-.4,2,2,0,0,1,.4.4L43.587-2.066Zm18.427-27.1A3.333,3.333,0,0,1,35-32.5a3.333,3.333,0,0,1,3.333-3.333A3.333,3.333,0,0,1,41.667-32.5,3.333,3.333,0,0,1,38.333-29.167Z" transform="translate(163 127)"/></g></g><g class="v" transform="translate(299 536)"><g class="w"><path class="e" d="M-5,5H45V-19H-5Z"/></g></g><text class="x" transform="translate(319 532)"><tspan x="-16" y="0">促销标签</tspan></text><path class="y" d="M0-83H375V0H0Z" transform="translate(0 812)"/><text class="z" transform="translate(328 774.708)"><tspan x="-10" y="0">我的</tspan></text><path class="f" d="M339-71.9a3,3,0,0,0,3-3,3,3,0,0,0-3-3,3,3,0,0,0-3,3A3,3,0,0,0,339-71.9Z" transform="translate(0 812)"/><path class="aa" d="M339-63.4A11.2,11.2,0,0,1,328-52,11.2,11.2,0,0,1,317-63.4a11.2,11.2,0,0,1,11-11.393A11.2,11.2,0,0,1,339-63.4Zm-7,1.036h-8a4.073,4.073,0,0,0,4,4.143A4.073,4.073,0,0,0,332-62.36Z" transform="translate(0 812)"/><text class="z" transform="translate(234 774.708)"><tspan x="-10" y="0">好物</tspan></text><path class="aa" d="M224-73.753h20v18.714a2,2,0,0,1-2,2H226a2,2,0,0,1-2-2Zm6.5,5.179a1.5,1.5,0,0,0-1.5,1.5v.107a1.5,1.5,0,0,0,1.5,1.5h7a1.5,1.5,0,0,0,1.5-1.5v-.107a1.5,1.5,0,0,0-1.5-1.5Z" transform="translate(0 812)"/><text class="z" transform="translate(140 774.708)"><tspan x="-10" y="0">流转</tspan></text><path class="aa" d="M130-73.753h20v20.714H130Zm5.061,13.59L138-63.207l3,3.107,6.061-6.277-2.121-2.2L141-64.494,138-67.6l-5.061,5.241Z" transform="translate(0 812)"/><text class="ab" transform="translate(47 774.708)"><tspan x="-10" y="0">认购</tspan></text><path class="f" d="M39-73.753H55a2,2,0,0,1,2,2v16.714a2,2,0,0,1-2,2H39a2,2,0,0,1-2-2V-71.753A2,2,0,0,1,39-73.753ZM47-63.4h5v-5.179H47Z" transform="translate(0 812)"/><g class="u" transform="translate(163 77)"><rect class="ao" width="50" height="50" rx="4"/><rect class="c" x="1.5" y="1.5" width="47" height="47" rx="2.5"/></g><path class="f" d="M19.906-2.066H1.61v-10.08L10.9-24.533a2,2,0,0,1,2.8-.4,2,2,0,0,1,.4.4l12.15,16.2,4.65-6.2a2,2,0,0,1,2.8-.4,2,2,0,0,1,.4.4L43.587-2.066Zm18.427-27.1A3.333,3.333,0,0,1,35-32.5a3.333,3.333,0,0,1,3.333-3.333A3.333,3.333,0,0,1,41.667-32.5,3.333,3.333,0,0,1,38.333-29.167Z" transform="translate(163 127)"/></g><g transform="translate(575 252)"><rect class="e" width="375" height="812"/><g class="bd" transform="matrix(1, 0, 0, 1, -475, 0)"><rect class="e" width="323" height="44" transform="translate(501 440)"/></g><g class="bc" transform="matrix(1, 0, 0, 1, -475, 0)"><rect class="e" width="323" height="44" transform="translate(501 485)"/></g><rect class="e" width="323" height="44" transform="translate(26 530)"/><rect class="l" width="375" height="375"/><rect class="l" width="375" height="216" transform="translate(0 574)"/><g transform="translate(0 86)"><g class="u" transform="translate(163 77)"><rect class="ao" width="50" height="50" rx="4"/><rect class="c" x="1.5" y="1.5" width="47" height="47" rx="2.5"/></g><path class="f" d="M19.906-2.066H1.61v-10.08L10.9-24.533a2,2,0,0,1,2.8-.4,2,2,0,0,1,.4.4l12.15,16.2,4.65-6.2a2,2,0,0,1,2.8-.4,2,2,0,0,1,.4.4L43.587-2.066Zm18.427-27.1A3.333,3.333,0,0,1,35-32.5a3.333,3.333,0,0,1,3.333-3.333A3.333,3.333,0,0,1,41.667-32.5,3.333,3.333,0,0,1,38.333-29.167Z" transform="translate(163 127)"/></g><g transform="translate(-140 139)"><rect class="c" width="6" height="6" transform="translate(331 223)"/><path class="c" d="M305-19h6v-6h-6Z" transform="translate(26 248)"/><path class="m" d="M308-19a3,3,0,0,0,3-3,3,3,0,0,0-3-3,3,3,0,0,0-3,3A3,3,0,0,0,308-19Z" transform="translate(26 248)"/><path class="m" d="M308-19a3,3,0,0,0,3-3,3,3,0,0,0-3-3,3,3,0,0,0-3,3A3,3,0,0,0,308-19Z" transform="translate(14 248)"/><path class="f" d="M308-19a3,3,0,0,0,3-3,3,3,0,0,0-3-3,3,3,0,0,0-3,3A3,3,0,0,0,308-19Z" transform="translate(2 248)"/><path class="m" d="M308-19a3,3,0,0,0,3-3,3,3,0,0,0-3-3,3,3,0,0,0-3,3A3,3,0,0,0,308-19Z" transform="translate(38 248)"/></g><g class="bb" transform="matrix(1, 0, 0, 1, -475, 0)"><rect class="e" width="323" height="64" transform="translate(501 375)"/></g><text class="k" transform="translate(349 423)"><tspan x="-48" y="0">剩余份数</tspan></text><text class="k" transform="translate(26 423)"><tspan x="0" y="0">返利描述</tspan></text><text class="h" transform="translate(349 402)"><tspan x="-32" y="0">价格</tspan></text><text class="h" transform="translate(26 402)"><tspan x="0" y="0">商品标题</tspan></text><text class="j" transform="translate(26 467)"><tspan x="0" y="0">商品公司名</tspan></text><text class="j" transform="translate(26 512)"><tspan x="0" y="0">商品产地</tspan></text><text class="j" transform="translate(26 557)"><tspan x="0" y="0">土地总数 预计产量</tspan></text><path class="f" d="M30,0A30,30,0,0,0,60-30,30,30,0,0,0,30-60,30,30,0,0,0,0-30,30,30,0,0,0,30,0Z" transform="translate(158 712)"/><path class="y" d="M24.3-19.06A1.3,1.3,0,0,1,23-20.355V-38.705A1.3,1.3,0,0,1,24.3-40a1.273,1.273,0,0,1,.659.184l15.414,9.175A1.282,1.282,0,0,1,41-29.53a1.282,1.282,0,0,1-.632,1.111L24.954-19.244a1.275,1.275,0,0,1-.659.184" transform="translate(158 712)"/><path class="y" d="M0-83H375V0H0Z" transform="translate(0 812)"/><path class="f" d="M78-44A11,11,0,0,1,67-55,11,11,0,0,1,78-66,11,11,0,0,1,89-55,11,11,0,0,1,78-44Zm0-5a1.25,1.25,0,0,0,1.25-1.25A1.25,1.25,0,0,0,78-51.5a1.25,1.25,0,0,0-1.25,1.25A1.25,1.25,0,0,0,78-49Zm-1-8.5a1,1,0,0,1,1-1,1,1,0,0,1,1,1,1,1,0,0,1-.527.881A2.9,2.9,0,0,0,77-54.04a1,1,0,0,0,1,1,1,1,0,0,0,1-1,.917.917,0,0,1,.42-.818A3,3,0,0,0,81-57.5a3,3,0,0,0-3-3,3,3,0,0,0-3,3,1,1,0,0,0,1,1A1,1,0,0,0,77-57.5Z" transform="translate(0 812)"/><path class="f" d="M39-58.652v-5.342a1,1,0,0,1,1-1,1,1,0,0,1,.648.238l9.675,8.232A2,2,0,0,1,50.55-53.7a2,2,0,0,1-.227.227l-9.675,8.232a1,1,0,0,1-1.41-.114A1,1,0,0,1,39-46.006V-51a12.973,12.973,0,0,0-10,4.688A13.006,13.006,0,0,1,39-58.652Z" transform="translate(0 812)"/><rect width="194" height="40" rx="20" transform="translate(155 737)"/><text class="ac" transform="translate(252.136 762)"><tspan x="-14" y="0">认购</tspan></text><rect class="r" width="375" height="88"/><circle cx="14" cy="14" r="14" transform="translate(25 52)"/><path class="ad" d="M6,0,0,6l6,6" transform="translate(34.5 60.5)"/></g><g transform="translate(1525 252)"><rect class="l" width="375" height="375"/><g transform="translate(0 86)"><g class="u" transform="translate(163 77)"><rect class="ao" width="50" height="50" rx="4"/><rect class="c" x="1.5" y="1.5" width="47" height="47" rx="2.5"/></g><path class="f" d="M19.906-2.066H1.61v-10.08L10.9-24.533a2,2,0,0,1,2.8-.4,2,2,0,0,1,.4.4l12.15,16.2,4.65-6.2a2,2,0,0,1,2.8-.4,2,2,0,0,1,.4.4L43.587-2.066Zm18.427-27.1A3.333,3.333,0,0,1,35-32.5a3.333,3.333,0,0,1,3.333-3.333A3.333,3.333,0,0,1,41.667-32.5,3.333,3.333,0,0,1,38.333-29.167Z" transform="translate(163 127)"/></g><rect class="ae" width="375" height="300"/><path class="e" d="M10,0H365a10,10,0,0,1,10,10V570a0,0,0,0,1,0,0H0a0,0,0,0,1,0,0V10A10,10,0,0,1,10,0Z" transform="translate(0 242)"/><g class="ba" transform="matrix(1, 0, 0, 1, -1425, 0)"><rect class="e" width="323" height="44" transform="translate(1451 256)"/></g><g class="az" transform="matrix(1, 0, 0, 1, -1425, 0)"><rect class="e" width="323" height="44" transform="translate(1451 301)"/></g><g class="ay" transform="matrix(1, 0, 0, 1, -1425, 0)"><rect class="e" width="323" height="44" transform="translate(1451 346)"/></g><g class="ax" transform="matrix(1, 0, 0, 1, -1425, 0)"><rect class="e" width="323" height="44" transform="translate(1451 527)"/></g><g class="aw" transform="matrix(1, 0, 0, 1, -1425, 0)"><rect class="e" width="323" height="44" transform="translate(1451 572)"/></g><g class="av" transform="matrix(1, 0, 0, 1, -1425, 0)"><rect class="e" width="323" height="44" transform="translate(1451 617)"/></g><g class="au" transform="matrix(1, 0, 0, 1, -1425, 0)"><rect class="e" width="323" height="64" transform="translate(1451 425)"/></g><text class="h" transform="translate(26 284)"><tspan x="0" y="0">份数</tspan></text><rect class="l" width="120" height="28" rx="4" transform="translate(128 264)"/><path class="l" d="M0,0H24a4,4,0,0,1,4,4V24a4,4,0,0,1-4,4H0a0,0,0,0,1,0,0V0A0,0,0,0,1,0,0Z" transform="translate(321 264)"/><path class="l" d="M4,0H28a0,0,0,0,1,0,0V28a0,0,0,0,1,0,0H4a4,4,0,0,1-4-4V4A4,4,0,0,1,4,0Z" transform="translate(291 264)"/><text class="h" transform="translate(188 284)"><tspan x="-3.208" y="0">1</tspan></text><path class="f" d="M334-535v-4a1,1,0,0,1,1-1,1,1,0,0,1,1,1v4h4a1,1,0,0,1,1,1,1,1,0,0,1-1,1h-4v4a1,1,0,0,1-1,1,1,1,0,0,1-1-1v-4h-4a1,1,0,0,1-1-1,1,1,0,0,1,1-1Z" transform="translate(0 812)"/><path class="f" d="M300-535h10a1,1,0,0,1,1,1h0a1,1,0,0,1-1,1H300a1,1,0,0,1-1-1h0A1,1,0,0,1,300-535Z" transform="translate(0 812)"/><text class="h" transform="translate(349 329)"><tspan x="-64" y="0">收益详情</tspan></text><text class="h" transform="translate(26 329)"><tspan x="0" y="0">收益</tspan></text><text class="h" transform="translate(26 374)"><tspan x="0" y="0">本⾦</tspan></text><text class="h" transform="translate(349 374)"><tspan x="-32" y="0">金额</tspan></text><text class="k" transform="translate(26 421)"><tspan x="0" y="0">收货地址</tspan></text><text class="h" transform="translate(26 453)"><tspan x="0" y="0">未选择</tspan></text><text class="j" transform="translate(26 474)"><tspan x="0" y="0">添加收货地址</tspan></text><path class="af" d="M5,0,0-5l5-5" transform="translate(338 452) rotate(180)"/><text class="k" transform="translate(26 523)"><tspan x="0" y="0">⽀支付⽅方式</tspan></text><text class="h" transform="translate(59 642)"><tspan x="0" y="0">微信</tspan></text><text class="h" transform="translate(59 600)"><tspan x="0" y="0">支付宝</tspan></text><text class="h" transform="translate(59 555)"><tspan x="0" y="0">钱包余额</tspan></text><path class="af" d="M0,2.667,2.667,8,8,0" transform="translate(331 590.5)"/><path class="af" d="M0,2.667,2.667,8,8,0" transform="translate(331 635.5)"/><path class="f" d="M335-253a11,11,0,0,1-11-11,11,11,0,0,1,11-11,11,11,0,0,1,11,11A11,11,0,0,1,335-253Zm-1.21-8.988-1.9-3.792a1,1,0,0,0-1.342-.447,1,1,0,0,0-.447,1.342l2.667,5.333a1,1,0,0,0,1.727.107l5.333-8a1,1,0,0,0-.277-1.387,1,1,0,0,0-1.387.277Z" transform="translate(0 813)"/><path class="f" d="M37-172.721a.731.731,0,0,1-.33.079.733.733,0,0,1-.64-.375l-.048-.105-2-4.395a.381.381,0,0,1-.035-.154.367.367,0,0,1,.367-.367.366.366,0,0,1,.22.073l2.363,1.682a1.092,1.092,0,0,0,.6.18,1.1,1.1,0,0,0,.376-.068l11.113-4.946A11.761,11.761,0,0,0,40-185c-6.075,0-11,4.1-11,9.167a8.63,8.63,0,0,0,3.8,6.929.733.733,0,0,1,.308.6.866.866,0,0,1-.039.234l-.5,1.849a1.078,1.078,0,0,0-.059.268.367.367,0,0,0,.367.367.413.413,0,0,0,.212-.068l2.408-1.39a1.155,1.155,0,0,1,.584-.169,1.094,1.094,0,0,1,.323.049,13.017,13.017,0,0,0,3.591.5c6.075,0,11-4.1,11-9.167a7.934,7.934,0,0,0-1.253-4.248l-12.666,7.313Z" transform="translate(0 814)"/><path class="f" d="M40-231a11,11,0,0,0-11,11,11.015,11.015,0,0,0,.321,2.6,3.675,3.675,0,0,1,.865-.831,6.078,6.078,0,0,1,3.457-.946,15.615,15.615,0,0,1,6.066,1.631,12.128,12.128,0,0,0,1.174.424,10.888,10.888,0,0,0,2.153-4.174l-8.414.033v-.946l3.977-.032v-2.12H33.024v-.914H38.6v-1.728c0-.326.425-.489,1.3-.489l1.468.033v2.184h5.773v.914H41.372v2.12h4.566a10.92,10.92,0,0,1-2.674,5.935c1.077.325,2.186.652,3.391,1.011a26.152,26.152,0,0,0,2.966.626A10.945,10.945,0,0,0,51-220a11,11,0,0,0-11-11Zm1.763,16.191c-.194.163-.39.326-.586.522a11.948,11.948,0,0,1-7.012,2.706h-.423c-.294-.032-.555-.032-.848-.065-.017,0-.032-.006-.048-.008A10.947,10.947,0,0,0,40-209a10.961,10.961,0,0,0,7.93-3.389c-.347-.1-.687-.2-1.013-.3a39.126,39.126,0,0,1-5.154-2.12Zm-2.053-1.044c-1.24-.619-4.034-2.093-6.685-2.021A2.729,2.729,0,0,0,30.35-215.5c0,1.795,1.465,2.676,3.554,2.676,2.5,0,5.16-2.418,5.805-3.034Z" transform="translate(0 814)"/><path class="f" d="M50-266H45a2,2,0,0,0-2,2,2,2,0,0,0,2,2h5v5a2,2,0,0,1-2,2H30v-18H48a2,2,0,0,1,2,2Z" transform="translate(0 813)"/><text class="j" transform="translate(188 712)"><tspan x="-120" y="0">认购即同意《农业资源数字化产权认购协议》</tspan></text><path class="f" d="M38.833-55l-2.717,2.717a.825.825,0,0,0,0,1.167.825.825,0,0,0,1.167,0L40-53.833l2.717,2.717a.825.825,0,0,0,1.167,0,.825.825,0,0,0,0-1.167L41.167-55l2.717-2.717a.825.825,0,0,0,0-1.167.825.825,0,0,0-1.167,0L40-56.167l-2.717-2.717a.825.825,0,0,0-1.167,0,.825.825,0,0,0,0,1.167ZM40-44A11,11,0,0,1,29-55,11,11,0,0,1,40-66,11,11,0,0,1,51-55,11,11,0,0,1,40-44Z" transform="translate(0 812)"/><rect width="194" height="40" rx="20" transform="translate(91 737)"/><text class="ac" transform="translate(188 762)"><tspan x="-14" y="0">认购</tspan></text><rect class="r" width="375" height="88"/><circle cx="14" cy="14" r="14" transform="translate(25 52)"/><path class="ad" d="M6,0,0,6l6,6" transform="translate(34.5 60.5)"/></g><g transform="translate(326 118)"><rect class="e" width="375" height="812" transform="translate(1674 134)"/><g transform="translate(1674 134)"><path class="e" d="M-324-55H51V33H-324Z" transform="translate(324 55)"/><text class="h" transform="translate(196 73)"><tspan x="-16" y="0">订单</tspan></text><path class="ag" d="M6,0,0,6l6,6" transform="translate(35 60.5)"/></g><rect class="l" width="375" height="10" transform="translate(1674 312)"/><rect class="e" width="323" height="90" transform="translate(1700 222)"/><g transform="translate(-126 -165)"><path class="e" d="M0-70H70V0H0Z" transform="translate(1826 467)"/><rect class="c" width="70" height="12" transform="translate(1826 449)"/><path class="l" d="M4,0H24a4,4,0,0,1,4,4V30a0,0,0,0,1,0,0H0a0,0,0,0,1,0,0V4A4,4,0,0,1,4,0Z" transform="translate(1832 431)"/><g class="ah" transform="translate(1826 467)"><path class="ao" d="M 63 -7 L 15 -7 L 15 -54 C 15 -55.65420913696289 16.34579086303711 -57 18 -57 L 60 -57 C 61.65420913696289 -57 63 -55.65420913696289 63 -54 L 63 -7 Z"/><path class="ap" d="M 18 -56 C 16.89720153808594 -56 16 -55.10279846191406 16 -54 L 16 -8 L 62 -8 L 62 -54 C 62 -55.10279846191406 61.10279846191406 -56 60 -56 L 18 -56 M 18 -58 L 60 -58 C 62.20914077758789 -58 64 -56.20914077758789 64 -54 L 64 -6 L 14 -6 L 14 -54 C 14 -56.20914077758789 15.79085922241211 -58 18 -58 Z"/></g><path class="f" d="M39-17A15,15,0,0,0,54-32,15,15,0,0,0,39-47,15,15,0,0,0,24-32,15,15,0,0,0,39-17Z" transform="translate(1826 467)"/><path class="ai" d="M0,2.667,2.667,8,8,0" transform="translate(1861 431)"/><rect class="aj" width="70" height="12" transform="translate(1826 451)"/></g><text class="k" transform="translate(1780 284)"><tspan x="0" y="0">我们会以最快速度为您备货</tspan></text><text class="h" transform="translate(1780 263)"><tspan x="0" y="0">支付成功</tspan></text><g class="at" transform="matrix(1, 0, 0, 1, -226, 134)"><rect class="e" width="323" height="64" transform="translate(1926 188)"/></g><g transform="translate(1537 255)"><g class="u" transform="translate(163 77)"><rect class="ao" width="44" height="44" rx="4"/><rect class="c" x="1.5" y="1.5" width="41" height="41" rx="2.5"/></g><path class="f" d="M17.291-2.066H1.61v-10.08L9.572-24.533a1.559,1.559,0,0,1,2.4-.4,1.884,1.884,0,0,1,.343.4l10.413,16.2,3.985-6.2a1.559,1.559,0,0,1,2.4-.4,1.884,1.884,0,0,1,.343.4L37.587-2.066Zm15.793-27.1A3.123,3.123,0,0,1,30.227-32.5a3.123,3.123,0,0,1,2.857-3.333A3.123,3.123,0,0,1,35.941-32.5,3.123,3.123,0,0,1,33.084-29.167Z" transform="translate(163 121)"/></g><text class="k" transform="translate(1754 371)"><tspan x="0" y="0">备货中</tspan></text><text class="h" transform="translate(1754 350)"><tspan x="0" y="0">商品标题</tspan></text><g transform="translate(0 165)"><g class="as" transform="matrix(1, 0, 0, 1, -226, -31)"><rect class="e" width="323" height="64" transform="translate(1926 353)"/></g><g transform="translate(1537 255)"><g class="u" transform="translate(163 77)"><rect class="ao" width="44" height="44" rx="4"/><rect class="c" x="1.5" y="1.5" width="41" height="41" rx="2.5"/></g><path class="f" d="M17.291-2.066H1.61v-10.08L9.572-24.533a1.559,1.559,0,0,1,2.4-.4,1.884,1.884,0,0,1,.343.4l10.413,16.2,3.985-6.2a1.559,1.559,0,0,1,2.4-.4,1.884,1.884,0,0,1,.343.4L37.587-2.066Zm15.793-27.1A3.123,3.123,0,0,1,30.227-32.5a3.123,3.123,0,0,1,2.857-3.333A3.123,3.123,0,0,1,35.941-32.5,3.123,3.123,0,0,1,33.084-29.167Z" transform="translate(163 121)"/></g><text class="k" transform="translate(1754 371)"><tspan x="0" y="0">交易完成</tspan></text><text class="h" transform="translate(1754 350)"><tspan x="0" y="0">商品标题</tspan></text></g><g transform="translate(0 64)"><g class="ar" transform="matrix(1, 0, 0, 1, -226, 70)"><rect class="e" width="323" height="64" transform="translate(1926 252)"/></g><g transform="translate(1537 255)"><g class="u" transform="translate(163 77)"><rect class="ao" width="44" height="44" rx="4"/><rect class="c" x="1.5" y="1.5" width="41" height="41" rx="2.5"/></g><path class="f" d="M17.291-2.066H1.61v-10.08L9.572-24.533a1.559,1.559,0,0,1,2.4-.4,1.884,1.884,0,0,1,.343.4l10.413,16.2,3.985-6.2a1.559,1.559,0,0,1,2.4-.4,1.884,1.884,0,0,1,.343.4L37.587-2.066Zm15.793-27.1A3.123,3.123,0,0,1,30.227-32.5a3.123,3.123,0,0,1,2.857-3.333A3.123,3.123,0,0,1,35.941-32.5,3.123,3.123,0,0,1,33.084-29.167Z" transform="translate(163 121)"/></g><text class="k" transform="translate(1754 371)"><tspan x="0" y="0">正在派送</tspan></text><text class="h" transform="translate(1754 350)"><tspan x="0" y="0">商品标题</tspan></text></g><g transform="translate(0 229)"><g class="aq" transform="matrix(1, 0, 0, 1, -226, -95)"><rect class="e" width="323" height="64" transform="translate(1926 417)"/></g><g transform="translate(1537 255)"><g class="u" transform="translate(163 77)"><rect class="ao" width="44" height="44" rx="4"/><rect class="c" x="1.5" y="1.5" width="41" height="41" rx="2.5"/></g><path class="f" d="M17.291-2.066H1.61v-10.08L9.572-24.533a1.559,1.559,0,0,1,2.4-.4,1.884,1.884,0,0,1,.343.4l10.413,16.2,3.985-6.2a1.559,1.559,0,0,1,2.4-.4,1.884,1.884,0,0,1,.343.4L37.587-2.066Zm15.793-27.1A3.123,3.123,0,0,1,30.227-32.5a3.123,3.123,0,0,1,2.857-3.333A3.123,3.123,0,0,1,35.941-32.5,3.123,3.123,0,0,1,33.084-29.167Z" transform="translate(163 121)"/></g><text class="k" transform="translate(1754 371)"><tspan x="0" y="0">订单取消</tspan></text><text class="h" transform="translate(1754 350)"><tspan x="0" y="0">商品标题</tspan></text></g><text class="k" transform="translate(1700 483)"><tspan x="0" y="0">已完成订单</tspan></text></g><path class="ak" d="M603.6,505.6v247h775.051" transform="translate(287.9 510.9)"/><path class="ak" d="M1648.6,730.6h0v-170" transform="translate(536.9 532.9)"/><path class="ak" d="M1648.6,730.6h0v-170" transform="translate(64.9 532.9)"/><path class="ak" d="M1648.6,730.6h0v-170" transform="translate(-886.1 532.9)"/><path class="ak" d="M2122.584,730.6H1648.6v-170" transform="translate(-1361.1 532.9)"/><path class="ak" d="M1648.6,730.6h0v-170" transform="translate(-410.1 532.9)"/><path class="al" d="M1641.6,547.1l9-18,9,18h-9" transform="translate(534.4 546.9)"/><path class="al" d="M1641.6,547.1l9-18,9,18h-9" transform="translate(62.4 546.9)"/><path class="al" d="M1641.6,547.1l9-18,9,18h-9" transform="translate(-887.6 546.9)"/><path class="al" d="M1641.6,547.1l9-18,9,18h-9" transform="translate(-412.6 546.9)"/><path class="ak" d="M1254.6,492.4h170v254h201" transform="translate(536.9 517.1)"/><path class="al" d="M888.8,752.9l-53.4,53.4a9.959,9.959,0,0,1-14.1,0l-53.4-53.4a9.959,9.959,0,0,1,0-14.1l53.4-53.4a9.959,9.959,0,0,1,14.1,0l53.4,53.4A9.959,9.959,0,0,1,888.8,752.9Z" transform="translate(409.025 517.525)"/><circle class="al" cx="23" cy="23" r="23" transform="translate(2162 1240)"/><circle class="al" cx="23" cy="23" r="23" transform="translate(1691 348)"/><g class="am" transform="translate(1774 1000)"><circle class="ao" cx="9" cy="9" r="9"/><circle class="c" cx="9" cy="9" r="7.5"/></g><g class="ak" transform="translate(882 1000)"><circle class="ao" cx="9" cy="9" r="9"/><circle class="c" cx="9" cy="9" r="7.5"/></g><g class="ak" transform="translate(279 1076)"><circle class="ao" cx="9" cy="9" r="9"/><circle class="c" cx="9" cy="9" r="7.5"/></g><rect class="al" width="136" height="46" rx="10" transform="translate(1645 1240)"/><rect class="al" width="136" height="46" rx="10" transform="translate(1170 1124)"/><circle class="al" cx="23" cy="23" r="23" transform="translate(869 1240)"/><circle class="al" cx="23" cy="23" r="23" transform="translate(740 1240)"/><text class="an" transform="translate(1713 1271)"><tspan x="-11" y="0">是</tspan></text><text class="an" transform="translate(1238 1155)"><tspan x="-11" y="0">否</tspan></text><text class="an" transform="translate(763 1270)"><tspan x="-7.227" y="0">A</tspan></text><text class="an" transform="translate(892 1270)"><tspan x="-11.858" y="0">B1</tspan></text><text class="an" transform="translate(2185 1270)"><tspan x="-14.047" y="0">B3</tspan></text><text class="an" transform="translate(1714 379)"><tspan x="-14.047" y="0">B2</tspan></text><text class="an" transform="translate(1237 1271)"><tspan x="-22" y="0">登录</tspan></text><path class="ak" d="M1648.6,602.6h0v-42" transform="translate(419.15 2307.1) rotate(-90)"/><path class="al" d="M1641.6,547.1l9-18,9,18h-9" transform="translate(433.15 2308.6) rotate(-90)"/><g class="ak" transform="translate(1021 649)"><circle class="ao" cx="9" cy="9" r="9"/><circle class="c" cx="9" cy="9" r="7.5"/></g></g></svg>