<?xml version="1.0" encoding="utf-8"?>
<!-- Generator: Adobe Illustrator 23.0.1, SVG Export Plug-In . SVG Version: 6.00 Build 0)  -->
<svg version="1.1" id="图层_1" xmlns="http://www.w3.org/2000/svg" xmlns:xlink="http://www.w3.org/1999/xlink" x="0px" y="0px"
	 viewBox="0 0 400 150" style="enable-background:new 0 0 400 150;" xml:space="preserve">
<style type="text/css">
	.st0{fill-rule:evenodd;clip-rule:evenodd;fill:#00AEFF;}
	.st1{fill-rule:evenodd;clip-rule:evenodd;fill:#FFFFFF;}
	.st2{fill:#333333;}
	.st3{fill:#464342;}
	.st4{fill:#666666;}
	.st5{fill:#2B2B2B;}
	.st6{fill:#3E3A39;}
	.st7{fill:#413D3C;}
	.st8{fill:#444444;}
	.st9{fill-rule:evenodd;clip-rule:evenodd;}
</style>
<path class="st0" d="M174.2,35.9c-1.8,0.3-3.4,0.8-5,1.6c-1.6,0.8-3,1.8-4.3,3.1c-1.3,1.2-2.3,2.7-3.1,4.2c-0.8,1.6-1.3,3.2-1.7,5
	c-0.3,1.7-0.4,3.5-0.5,5.2c0,0.8,0,1.6,0,2.4c0,0.9,0,1.9,0,2.8v27.6h80v-8.3v-8.3V60.3c0-1,0-1.9,0-2.9c0-0.8,0-1.6,0-2.4
	c0-1.7-0.2-3.5-0.5-5.2c-0.3-1.8-0.8-3.4-1.7-5c-0.8-1.6-1.9-3-3.1-4.2c-1.3-1.2-2.7-2.3-4.3-3.1c-1.6-0.8-3.3-1.3-5-1.6
	c-1.7-0.3-3.5-0.4-5.3-0.5c-0.8,0-1.6,0-5.3,0l-11.1,0l10.3,0h-17.8h-11.1h-0.2c-0.9,0-2,0-5.1,0C177.7,35.5,175.9,35.6,174.2,35.9z
	"/>
<path class="st1" d="M228.2,69.8c1-0.4,2-1,2.9-1.9c3.1-3.2,3.1-8.3,0-11.4c-2.1-2.1-8,2.4-10.6,6.5c-4.8-2.7-11.3-4.5-20.9-4.5
	c-9.9,0-16.5,1.9-21.3,4.8c-2.6-4.1-8.6-8.9-10.8-6.7c-3.1,3.2-3.1,8.3,0,11.4c1,1,2.2,1.6,3.4,2c-2.7,3.4-4.5,7.1-6.6,10.1
	c-1.8,2.6-3.4,5.1-4.7,7.8v2.6c0,1,0,1.9,0,2.9c0,0.8,0,1.6,0,2.4c0,1.7,0.2,3.5,0.5,5.2c0.3,1.8,0.8,3.4,1.7,5
	c0.8,1.6,1.9,3,3.1,4.2c1.3,1.2,2.7,2.3,4.3,3.1c1.6,0.8,3.3,1.3,5,1.6c1.7,0.3,3.5,0.4,5.3,0.5c0.8,0,1.6,0,5.3,0h11.1h18.6h0.2
	c0.9,0,2,0,5.1,0c1.8,0,3.5-0.2,5.3-0.5c1.8-0.3,3.4-0.8,5-1.6c1.6-0.8,3-1.8,4.3-3.1c1.3-1.2,2.3-2.7,3.1-4.2
	c0.8-1.6,1.3-3.2,1.7-5c0.3-1.7,0.4-3.5,0.5-5.2c0-0.8,0-1.6,0-2.4c0-1,0-1.9,0-2.9v-2.6c-1.3-2.7-2.9-5.2-4.7-7.8
	C232.8,77.1,231,73.3,228.2,69.8z"/>
<g>
	<polygon class="st2" points="185.9,128.6 196.4,128.6 196.4,132.2 194.9,132.3 194.8,129.8 185.8,130 	"/>
	<polygon points="183.5,128.8 183.3,137.4 181.7,142.4 183,143.1 184.7,137.4 184.9,128.6 	"/>
	<polygon points="185.7,131.1 193.8,131 193.7,132.3 185.8,132.3 	"/>
	<polygon class="st3" points="186,132.8 189.3,133.4 188.9,134.5 185.7,133.8 	"/>
	<polygon points="192.7,133.4 196,133 196,134.1 193,134.5 	"/>
	<polygon points="189,135 189.2,136.4 185.8,136.6 185.5,135.2 187.1,135.1 	"/>
	<polygon class="st4" points="193.1,134.9 194.5,135.4 196.4,135.6 196,136.7 192.7,136.1 	"/>
	<polygon points="186.6,137.1 185,139.2 185.9,140.1 187.2,138.5 187.8,137.4 	"/>
	<polygon class="st2" points="184.8,140.7 191.1,140.7 197,140.8 197,142 189.3,141.8 184.7,142 	"/>
	<polygon points="196,138 186.7,138 186.5,139.2 196,139.2 	"/>
	<polygon class="st5" points="190,133 190.2,136.5 190,143.9 191.7,143.7 191.6,136 191.7,132.9 	"/>
	<polygon points="202,129.3 203.1,130.2 204.2,131.5 205.2,130.4 203.2,128.4 	"/>
	<polygon class="st6" points="203.2,132.6 204.2,133.4 205.5,134.8 204.4,135.9 202.2,133.6 	"/>
	<polygon points="204.1,137.1 203.1,139.8 201.9,142.6 203.2,143.5 204.6,140.2 205.4,137.7 	"/>
	<polygon class="st7" points="207.1,128.4 208.6,127.9 209.2,130 207.5,130.2 	"/>
	<polygon points="205.5,130.9 211,130.8 210.9,132.3 205.5,132.4 	"/>
	<polygon points="208,134.5 210.9,134.4 210.9,138.5 210.5,143.3 207.6,143.2 207.7,141.9 209.2,141.9 209.5,138.4 209.5,135.8 
		207.9,135.8 	"/>
	<polygon points="212.9,128 211.8,130.8 211.8,131.9 217.4,132.1 217.5,130.6 213.4,130.6 214.2,128.6 	"/>
	<polygon class="st2" points="211.6,132.8 217.1,132.9 217,134.4 215.7,136.8 215.5,139.8 215.7,143.3 212,143.5 212.1,142 
		214.1,142 213.9,138.8 213.9,136.5 215.1,134.3 211.6,134.4 	"/>
	<polygon points="211.6,138 211.6,139.2 217.4,139.2 217.6,137.9 	"/>
	<polygon class="st8" points="206.9,133 206.5,138.3 204.7,142.8 205.9,143.4 207.8,138.5 208.2,133.1 	"/>
</g>
<title>vi/logo/2</title>
<desc>Created with Sketch.</desc>
<g id="mask">
</g>
<path class="st9" d="M180.6,83.3L180.6,83.3c-1.6,0-2.8-1.2-2.8-2.7v-2.7c0-1.5,1.2-2.7,2.8-2.7h0.1c1.5,0,2.8,1.2,2.8,2.7v2.7
	C183.3,82.1,182.1,83.3,180.6,83.3z"/>
<path class="st9" d="M219,83.3L219,83.3c-1.6,0-2.8-1.2-2.8-2.7v-2.7c0-1.5,1.2-2.7,2.8-2.7h0.1c1.5,0,2.8,1.2,2.8,2.7v2.7
	C221.8,82.1,220.6,83.3,219,83.3z"/>
<path class="st9" d="M211.2,91.1c2.6,8.1-3.3,16.4-11.8,16.4s-14.4-8.3-11.8-16.4c3.8-11.8,7-26.5,9.1-37.3c0.6-3,4.8-3,5.4,0
	C204.2,64.7,207.4,79.4,211.2,91.1z"/>
</svg>
