<?xml version="1.0" encoding="UTF-8"?>
<svg width="300px" height="300px" viewBox="0 0 300 300" version="1.1" xmlns="http://www.w3.org/2000/svg" xmlns:xlink="http://www.w3.org/1999/xlink">
    <!-- Generator: Sketch 52.5 (67469) - http://www.bohemiancoding.com/sketch -->
    <title>ae</title>
    <desc>Created with Sketch.</desc>
    <g id="index" stroke="none" stroke-width="1" fill="none" fill-rule="evenodd">
        <g id="工具圆黑" transform="translate(-1800.000000, 0.000000)">
            <g id="ae" transform="translate(1800.000000, 0.000000)">
                <circle id="Oval" fill="#0A0A0A" cx="150" cy="150" r="150"></circle>
                <path d="M206.436891,132.548014 C189.017925,132.548014 187.879754,153.579435 187.879754,153.579435 L222.519742,153.579435 C222.519742,153.579435 224.375456,132.548014 206.436891,132.548014 Z M241.69545,170.280858 C223.138314,171.518 187.879754,170.899429 187.879754,170.899429 C187.879754,170.899429 184.786898,211.106558 236.128309,195.023706 L236.128309,213.580843 C187.879754,229.663694 165.61119,203.065132 165.61119,169.662287 C165.61119,132.548014 183.541096,114.609448 206.436891,114.609448 C244.788306,114.609448 245.406877,154.198006 241.69545,170.280858 Z M92.4530203,157.857474 L123.670454,158.252741 L107.963075,99.4736293 L92.4530203,157.857474 Z M123.768807,81 L160.024503,216.735556 L139.278861,216.735556 L129.006249,178.306819 L87.0194907,178.306819 L76.7456414,216.735556 L56,216.735556 C56,216.735556 89.0941786,91.1748779 89.983684,88.6065702 C90.8725708,86.0382625 90.8725708,81 90.8725708,81 L123.768807,81 Z" id="Combined-Shape" fill="#D6A3FF"></path>
            </g>
        </g>
    </g>
</svg>