<?xml version="1.0" encoding="UTF-8"?>
<svg width="300px" height="300px" viewBox="0 0 300 300" version="1.1" xmlns="http://www.w3.org/2000/svg" xmlns:xlink="http://www.w3.org/1999/xlink">
    <!-- Generator: Sketch 52.5 (67469) - http://www.bohemiancoding.com/sketch -->
    <title>principle</title>
    <desc>Created with Sketch.</desc>
    <g id="index" stroke="none" stroke-width="1" fill="none" fill-rule="evenodd">
        <g id="工具圆黑" transform="translate(-1350.000000, 0.000000)">
            <g id="principle" transform="translate(1350.000000, 0.000000)">
                <circle id="Oval" fill="#0A0A0A" cx="150" cy="150" r="150"></circle>
                <path d="M158.501092,71 C126.241051,71 100,95.6731711 100,126.001124 L100,194.934826 C100.557112,194.862934 101.118593,194.809529 101.697552,194.809529 C108.332642,194.809529 113.713686,199.870692 113.713686,206.106769 C113.713686,210.297017 111.282057,213.942945 107.681586,215.892232 C110.626632,217.845628 114.207439,219 118.081004,219 C128.069688,219 136.164192,211.389769 136.164192,202.000736 L136.164192,126.001124 C136.164192,114.420427 146.183463,105.000583 158.501092,105.000583 C170.816537,105.000583 180.835808,114.420427 180.835808,126.001124 C180.835808,137.577714 170.816537,147.001665 158.501092,147.001665 C148.514593,147.001665 140.417904,154.609843 140.417904,163.998876 C140.417904,173.389963 148.514593,181.000194 158.501092,181.000194 C190.756764,181.000194 217,156.327023 217,126.001124 C217,95.6731711 190.756764,71 158.501092,71 Z M147,164.498955 C147,158.151532 152.371148,153 159.001091,153 C165.624489,153 171,158.151532 171,164.498955 C171,170.850559 165.624489,176 159.001091,176 C152.371148,176 147,170.850559 147,164.498955 Z" id="Fill-1" fill="#D448FF"></path>
            </g>
        </g>
    </g>
</svg>