<?xml version="1.0" encoding="utf-8"?>
<!-- Generator: Adobe Illustrator 23.0.1, SVG Export Plug-In . SVG Version: 6.00 Build 0)  -->
<svg version="1.1" id="图层_1" xmlns="http://www.w3.org/2000/svg" xmlns:xlink="http://www.w3.org/1999/xlink" x="0px" y="0px"
	 viewBox="0 0 870 400" style="enable-background:new 0 0 870 400;" xml:space="preserve">
<style type="text/css">
	.st0{fill:#C4E6F9;}
	.st1{fill:#FFFFFF;}
	.st2{fill:#4593D0;}
	.st3{fill:#595757;}
	.st4{fill:#835A00;}
	.st5{fill:#9ED8F5;}
	.st6{fill:#986A00;}
	.st7{fill:none;}
	.st8{fill:#22AC38;}
	.st9{fill:#FCD25B;}
	.st10{fill:none;stroke:#FFFFFF;stroke-miterlimit:10;}
	.st11{fill:#FABE00;}
	.st12{fill:#A6D296;}
	.st13{fill:none;stroke:#F9BE00;stroke-width:2;stroke-miterlimit:10;}
	.st14{fill:#231815;}
	.st15{fill:none;stroke:#F9BE00;stroke-width:1.5;stroke-linecap:round;stroke-linejoin:round;stroke-miterlimit:10;}
	.st16{opacity:0.3;fill:#FFFFFF;}
	.st17{fill:#CA8D15;}
	.st18{fill:#7DCCF3;}
	.st19{fill:#E1F2FC;}
	.st20{fill:#1EAA39;}
	.st21{opacity:0.2;fill:#231815;}
	.st22{fill:#FFFCFD;}
	.st23{fill:none;stroke:#CA8D15;stroke-width:2;stroke-linecap:round;stroke-linejoin:round;stroke-miterlimit:10;}
	.st24{fill:none;stroke:#CA8D15;stroke-linecap:round;stroke-linejoin:round;stroke-miterlimit:10;}
	.st25{fill:#88BBD5;}
	.st26{opacity:0.5;fill:#231815;}
	.st27{opacity:0.5;fill:#FFFFFF;}
	.st28{opacity:0.3;fill:#231815;}
	.st29{opacity:0.5;fill:#A6D296;}
	.st30{fill:none;stroke:#FFFFFF;stroke-linecap:round;stroke-linejoin:round;stroke-miterlimit:10;}
	.st31{opacity:0.3;fill:#22AC38;}
	.st32{opacity:0.4;fill:#231815;}
</style>
<g>
	<g id="XMLID_447_">
		<path id="XMLID_1305_" class="st0" d="M473.2,305.6h326.7c18.4,0,33.3-14.9,33.3-33.3v0c0-18.4-14.9-33.3-33.3-33.3H473.2
			c-18.4,0-33.3,14.9-33.3,33.3v0C439.9,290.7,454.8,305.6,473.2,305.6z"/>
		<g id="XMLID_1301_">
			<path id="XMLID_1304_" class="st1" d="M530.9,254.3h-22.1c0-6.1,4.9-11,11-11S530.9,248.2,530.9,254.3z"/>
			<path id="XMLID_1303_" class="st1" d="M514.4,254.3h-13.9c0-3.8,3.1-7,7-7C511.3,247.4,514.4,250.5,514.4,254.3z"/>
			<path id="XMLID_1302_" class="st1" d="M537.9,254.3h-11c0-3,2.5-5.5,5.5-5.5S537.9,251.3,537.9,254.3z"/>
		</g>
		<g id="XMLID_1298_">
			<path id="XMLID_1300_" class="st1" d="M571.5,254.3h-16c0-4.4,3.6-8,8-8S571.5,249.9,571.5,254.3z"/>
			<path id="XMLID_1299_" class="st1" d="M559.6,254.3h-10.1c0-2.8,2.3-5,5-5S559.6,251.6,559.6,254.3z"/>
		</g>
		<path id="XMLID_1297_" class="st2" d="M41.1,159.2h776c9.9,0,17.9-8,17.9-17.9v0c0-9.9-8-17.9-17.9-17.9h-776
			c-9.9,0-17.9,8-17.9,17.9v0C23.2,151.1,31.2,159.2,41.1,159.2z"/>
		<path id="XMLID_1294_" class="st3" d="M776,216.4H40.7c-15.8,0-28.6-12.8-28.6-28.6v0c0-15.8,12.8-28.6,28.6-28.6H776
			c15.8,0,28.6,12.8,28.6,28.6v0C804.6,203.6,791.8,216.4,776,216.4z"/>
		<path id="XMLID_1293_" class="st0" d="M217,102H75.8c-8.9,0-16.2-7.3-16.2-16.2v0c0-8.9,7.3-16.2,16.2-16.2H217
			c8.9,0,16.2,7.3,16.2,16.2v0C233.2,94.7,226,102,217,102z"/>
		<path id="XMLID_1292_" class="st0" d="M648.6,102H521c-10.8,0-19.5-8.7-19.5-19.5v0c0-10.8,8.7-19.5,19.5-19.5h127.6
			c10.8,0,19.5,8.7,19.5,19.5v0C668.1,93.3,659.4,102,648.6,102z"/>
		<path id="XMLID_1290_" class="st0" d="M785.1,102h-68.4c-10.8,0-19.5-8.7-19.5-19.5v0c0-10.8,8.7-19.5,19.5-19.5h68.4
			c10.8,0,19.5,8.7,19.5,19.5v0C804.6,93.3,795.8,102,785.1,102z"/>
		<g id="XMLID_4198_">
			<polygon id="XMLID_1283_" class="st4" points="469.6,139.8 469.6,130.8 458.7,130.8 458.7,139.8 438.9,139.8 438.9,95.6 
				420,95.6 420,159.2 485.1,159.2 485.1,139.8 			"/>
			<g id="XMLID_1532_">
				<polygon id="XMLID_1282_" class="st4" points="406.2,73.2 406.2,65.5 387.3,65.5 387.3,73.2 373.6,73.2 373.6,159.2 420,159.2 
					420,73.2 				"/>
			</g>
			<g id="XMLID_4209_">
				<rect id="XMLID_4208_" x="384.1" y="81.5" class="st1" width="8.6" height="77.7"/>
				<rect id="XMLID_4207_" x="384.1" y="88.6" class="st5" width="8.6" height="2.3"/>
				<rect id="XMLID_4225_" x="384.1" y="105.5" class="st5" width="8.6" height="8.7"/>
				<rect id="XMLID_4206_" x="384.1" y="122.1" class="st5" width="8.6" height="10.5"/>
				<rect id="XMLID_4205_" x="384.1" y="146.3" class="st5" width="8.6" height="8.9"/>
				<rect id="XMLID_4223_" x="400.9" y="81.5" class="st1" width="8.6" height="77.7"/>
				<rect id="XMLID_4222_" x="400.9" y="99.6" class="st5" width="8.6" height="10.3"/>
				<rect id="XMLID_4221_" x="400.9" y="122.1" class="st5" width="8.6" height="2.3"/>
				<rect id="XMLID_4210_" x="400.9" y="131.7" class="st5" width="8.6" height="15.4"/>
				<rect id="XMLID_4229_" x="425.1" y="103.9" class="st1" width="8.6" height="25.9"/>
				<rect id="XMLID_4228_" x="425.1" y="109" class="st5" width="8.6" height="10.3"/>
				<rect id="XMLID_4227_" x="425.1" y="122.1" class="st5" width="8.6" height="2.3"/>
				<rect id="XMLID_1281_" x="438.9" y="145.8" class="st1" width="7.3" height="7.3"/>
				<rect id="XMLID_1280_" x="453.6" y="145.8" class="st1" width="7.3" height="7.3"/>
				<rect id="XMLID_1279_" x="468.2" y="145.8" class="st1" width="7.3" height="7.3"/>
				<rect id="XMLID_1278_" x="482.9" y="145.8" class="st1" width="7.3" height="7.3"/>
				<rect id="XMLID_1277_" x="453.6" y="148.3" class="st5" width="7.3" height="2.3"/>
			</g>
			<rect id="XMLID_1276_" x="373.6" y="73.2" class="st6" width="13.8" height="2.3"/>
			<rect id="XMLID_1273_" x="406.2" y="73.2" class="st6" width="13.8" height="2.3"/>
			<rect id="XMLID_1237_" x="387.3" y="65.5" class="st6" width="18.9" height="2.3"/>
			<rect id="XMLID_1236_" x="420" y="95.6" class="st6" width="18.9" height="2.3"/>
			<rect id="XMLID_1235_" x="438.9" y="139.8" class="st6" width="19.8" height="2.3"/>
			<rect id="XMLID_2212_" x="469.6" y="139.8" class="st6" width="19.8" height="2.3"/>
			<rect id="XMLID_2214_" x="458.7" y="130.8" class="st6" width="10.9" height="2.3"/>
		</g>
		<rect id="XMLID_1234_" x="504.4" y="216.4" class="st7" width="344.1" height="89.4"/>
		<g id="XMLID_1500_">
			<g id="XMLID_1528_">
				<polyline id="XMLID_1233_" class="st8" points="743.3,291 743.3,287.7 739.5,287.7 736.1,284.4 736.1,291 				"/>
			</g>
			<path id="XMLID_1231_" class="st2" d="M831.6,305.6h-91.4c-4,0-7.3-3.3-7.3-7.3l0,0c0-4,3.3-7.3,7.3-7.3h91.4
				c4,0,7.3,3.3,7.3,7.3l0,0C839,302.4,835.7,305.6,831.6,305.6z"/>
			<g id="XMLID_1525_">
				<rect id="XMLID_1230_" x="549.3" y="291" class="st9" width="201.5" height="14.8"/>
			</g>
			<g id="XMLID_1522_">
				<line id="XMLID_1229_" class="st10" x1="710.3" y1="290.8" x2="710.3" y2="275.2"/>
				<path id="XMLID_1228_" class="st11" d="M698.7,277.9c0.6-1.6,2.1-2.7,3.9-2.7c1.8,0,3.3,1.1,3.9,2.7c0.6-1.6,2.1-2.7,3.9-2.7
					c1.8,0,3.3,1.1,3.9,2.7v0c0.6-1.6,2.1-2.7,3.9-2.7c1.8,0,3.3,1.1,3.9,2.7v0c-1.7-4.8-6.2-8.2-11.6-8.2
					C704.9,269.7,700.4,273.1,698.7,277.9z"/>
			</g>
			<g id="XMLID_1519_">
				<line id="XMLID_1227_" class="st10" x1="729" y1="290.8" x2="729" y2="276.7"/>
				<path id="XMLID_1226_" class="st11" d="M717.4,280.8c0.6-1.6,2.1-2.7,3.9-2.7c1.8,0,3.3,1.1,3.9,2.7c0.6-1.6,2.1-2.7,3.9-2.7
					c1.8,0,3.3,1.1,3.9,2.7v0c0.6-1.6,2.1-2.7,3.9-2.7c1.8,0,3.3,1.1,3.9,2.7v0c-1.7-4.8-6.2-8.2-11.6-8.2
					C723.6,272.6,719.1,276,717.4,280.8z"/>
			</g>
			<g id="XMLID_1504_">
				<g id="XMLID_1514_">
					<polygon id="XMLID_1225_" class="st11" points="798,285.7 792.8,291 778.2,291 772.9,285.7 					"/>
					<polygon id="XMLID_1224_" class="st8" points="785.5,282.3 795.4,282.3 785.5,266.5 					"/>
					<polygon id="XMLID_1223_" class="st12" points="785.5,282.3 775.6,282.3 785.5,266.5 					"/>
					<rect id="XMLID_1222_" x="785.5" y="282.3" class="st1" width="1.4" height="3.4"/>
				</g>
				<g id="XMLID_1217_">
					<path id="XMLID_1221_" class="st0" d="M767.7,297.4c-0.9-1.6-2.6-2.6-4.6-2.6c-2,0-3.6,1.1-4.6,2.6H767.7z"/>
					<path id="XMLID_1220_" class="st0" d="M776.8,297.4c-0.9-1.6-2.6-2.6-4.6-2.6c-2,0-3.6,1.1-4.6,2.6H776.8z"/>
					<path id="XMLID_1219_" class="st0" d="M804,297.4c-0.9,1.6-2.6,2.6-4.6,2.6c-2,0-3.6-1.1-4.6-2.6H804z"/>
					<path id="XMLID_1218_" class="st0" d="M813.2,297.4c-0.9,1.6-2.6,2.6-4.6,2.6c-2,0-3.6-1.1-4.6-2.6H813.2z"/>
				</g>
			</g>
			<rect id="XMLID_1216_" x="716.5" y="283.8" class="st12" width="7.2" height="3.6"/>
			<rect id="XMLID_1307_" x="716.5" y="287.4" class="st8" width="7.2" height="3.6"/>
		</g>
		<g id="XMLID_1459_">
			<path id="XMLID_1213_" class="st11" d="M676.2,305.7l-7.4-18l0,0c-5.4,2.2-11.3,3.5-17.5,3.5c-6.2,0-12.1-1.2-17.5-3.5l-7.4,18
				h6.2c2.1-8.3,9.7-14.5,18.7-14.5c9,0,16.5,6.2,18.7,14.5L676.2,305.7z"/>
			<path id="XMLID_1212_" class="st7" d="M697,245.5c0,25.2-20.4,45.7-45.7,45.7c-25.2,0-45.7-20.4-45.7-45.7
				c0-25.2,20.4-45.7,45.7-45.7C676.5,199.9,697,220.3,697,245.5z"/>
			<path id="XMLID_1211_" class="st13" d="M697,245.5c0,25.2-20.4,45.7-45.7,45.7c-25.2,0-45.7-20.4-45.7-45.7
				c0-25.2,20.4-45.7,45.7-45.7C676.5,199.9,697,220.3,697,245.5z"/>
			<line id="XMLID_1210_" class="st13" x1="605.7" y1="245.5" x2="696.8" y2="245.5"/>
			<line id="XMLID_1209_" class="st13" x1="651.3" y1="199.9" x2="651.3" y2="291.2"/>
			<line id="XMLID_1208_" class="st13" x1="609.2" y1="263" x2="693.3" y2="228.1"/>
			<line id="XMLID_1207_" class="st13" x1="633.9" y1="203.3" x2="668.8" y2="287.7"/>
			<line id="XMLID_1206_" class="st13" x1="619" y1="213.3" x2="683.5" y2="277.7"/>
			<line id="XMLID_1205_" class="st13" x1="683.6" y1="213.3" x2="619" y2="277.9"/>
			<line id="XMLID_1204_" class="st13" x1="609.2" y1="228.1" x2="693.3" y2="262.9"/>
			<line id="XMLID_1203_" class="st13" x1="668.8" y1="203.3" x2="633.9" y2="287.7"/>
			<line id="XMLID_1202_" class="st7" x1="633.9" y1="287.7" x2="626.4" y2="305.7"/>
			<line id="XMLID_1201_" class="st7" x1="668.8" y1="287.7" x2="676.2" y2="305.7"/>
			<path id="XMLID_1200_" class="st7" d="M632.7,305.7c2.1-8.3,9.7-14.5,18.7-14.5c9,0,16.5,6.2,18.7,14.5"/>
			<rect id="XMLID_1199_" x="693.9" y="242.5" class="st11" width="6.1" height="6.1"/>
			<rect id="XMLID_1198_" x="690.3" y="225.1" class="st11" width="6.1" height="6.1"/>
			<rect id="XMLID_1197_" x="680.5" y="210.2" class="st11" width="6.1" height="6.1"/>
			<rect id="XMLID_1196_" x="665.7" y="200.3" class="st11" width="6.1" height="6.1"/>
			<rect id="XMLID_1195_" x="648.3" y="196.8" class="st11" width="6.1" height="6.1"/>
			<rect id="XMLID_1194_" x="630.8" y="200.3" class="st11" width="6.1" height="6.1"/>
			<rect id="XMLID_1193_" x="616" y="210.2" class="st11" width="6.1" height="6.1"/>
			<rect id="XMLID_1192_" x="606.1" y="225" class="st11" width="6.1" height="6.1"/>
			<rect id="XMLID_1191_" x="602.6" y="242.5" class="st11" width="6.1" height="6.1"/>
			<rect id="XMLID_1190_" x="606.1" y="259.9" class="st11" width="6.1" height="6.1"/>
			<rect id="XMLID_1189_" x="616" y="274.8" class="st11" width="6.1" height="6.1"/>
			<rect id="XMLID_1188_" x="680.4" y="274.7" class="st11" width="6.1" height="6.1"/>
			<rect id="XMLID_1186_" x="648.3" y="288.1" class="st11" width="6.1" height="6.1"/>
			<rect id="XMLID_1185_" x="630.8" y="284.6" class="st11" width="6.1" height="6.1"/>
			<rect id="XMLID_1183_" x="665.7" y="284.6" class="st11" width="6.1" height="6.1"/>
			<rect id="XMLID_1181_" x="690.3" y="259.9" class="st11" width="6.1" height="6.1"/>
			<path id="XMLID_1180_" class="st1" d="M664.4,245.5c0,7.2-5.8,13-13,13c-7.2,0-13-5.8-13-13c0-7.2,5.8-13,13-13
				C658.5,232.5,664.4,238.3,664.4,245.5z"/>
			<g id="XMLID_1172_">
				<path id="XMLID_1175_" class="st1" d="M685.5,268.1h-16c0-4.4,3.6-8,8-8S685.5,263.7,685.5,268.1z"/>
				<path id="XMLID_1173_" class="st1" d="M673.6,268.1h-10.1c0-2.8,2.3-5,5-5S673.6,265.3,673.6,268.1z"/>
			</g>
			<rect id="XMLID_1335_" x="602.6" y="303.4" class="st11" width="97.4" height="2.3"/>
			<g id="XMLID_481_">
				<path class="st8" d="M656.3,240.5c-1.4-1.4-3.2-2.1-5-2.1h-7.1v7.1l0,0c0,1.8,0.7,3.6,2.1,5c2.8,2.8,7.3,2.8,10,0
					C659.1,247.8,659.1,243.3,656.3,240.5z"/>
				<path class="st14" d="M658,243l-6.6,2.5l7.1,7.1v-7.1C658.4,244.6,658.3,243.8,658,243z"/>
				<path id="XMLID_484_" class="st11" d="M644.2,242.8v2.7c0,0.8,0.2,1.7,0.5,2.5l6.6-2.5L644.2,242.8z"/>
				<circle id="XMLID_483_" class="st1" cx="651.3" cy="245.5" r="3.6"/>
				<circle id="XMLID_482_" class="st14" cx="651.3" cy="245.5" r="1.4"/>
			</g>
		</g>
		<g id="XMLID_1441_">
			<path id="XMLID_1171_" class="st11" d="M826.1,239.9c0,4.8-3.9,8.8-8.8,8.8c-4.8,0-8.8-3.9-8.8-8.8c0-4.8,3.9-8.8,8.8-8.8
				C822.2,231.2,826.1,235.1,826.1,239.9z"/>
			<line id="XMLID_1170_" class="st15" x1="805.7" y1="235.1" x2="802.6" y2="233.8"/>
			<line id="XMLID_1169_" class="st15" x1="832" y1="246" x2="828.9" y2="244.7"/>
			<line id="XMLID_1168_" class="st15" x1="822.1" y1="228.3" x2="823.4" y2="225.2"/>
			<line id="XMLID_1165_" class="st15" x1="811.2" y1="254.6" x2="812.5" y2="251.5"/>
			<line id="XMLID_1164_" class="st15" x1="805.7" y1="244.7" x2="802.6" y2="246"/>
			<line id="XMLID_1163_" class="st15" x1="832" y1="233.8" x2="828.9" y2="235.1"/>
			<line id="XMLID_1162_" class="st15" x1="812.5" y1="228.3" x2="811.2" y2="225.2"/>
			<line id="XMLID_1161_" class="st15" x1="823.4" y1="254.6" x2="822.1" y2="251.5"/>
			<line id="XMLID_1159_" class="st15" x1="804.8" y1="239.9" x2="801.4" y2="239.9"/>
			<line id="XMLID_1158_" class="st15" x1="833.2" y1="239.9" x2="829.9" y2="239.9"/>
			<line id="XMLID_1157_" class="st15" x1="817.3" y1="227.4" x2="817.3" y2="224"/>
			<line id="XMLID_1156_" class="st15" x1="817.3" y1="255.8" x2="817.3" y2="252.5"/>
			<line id="XMLID_1155_" class="st15" x1="808.5" y1="248.8" x2="806.1" y2="251.2"/>
			<line id="XMLID_1154_" class="st15" x1="828.6" y1="228.7" x2="826.2" y2="231.1"/>
			<line id="XMLID_1153_" class="st15" x1="808.5" y1="231.1" x2="806.1" y2="228.7"/>
			<line id="XMLID_1152_" class="st15" x1="828.6" y1="251.2" x2="826.2" y2="248.8"/>
		</g>
		<path id="XMLID_1151_" class="st2" d="M59.4,239h334.1c18.4,0,33.3,14.9,33.3,33.3v0c0,18.4-14.9,33.3-33.3,33.3H59.4
			c-18.4,0-33.3-14.9-33.3-33.3v0C26.1,253.9,41,239,59.4,239z"/>
		<line id="XMLID_1150_" class="st7" x1="580" y1="159" x2="569.6" y2="159"/>
		<path id="XMLID_1149_" class="st7" d="M591.4,191.1"/>
		<path id="XMLID_1148_" class="st7" d="M230,191.1"/>
		<polyline id="XMLID_1147_" class="st7" points="426.9,216.5 426.9,273.6 207.6,273.6 		"/>
		<g id="XMLID_1274_">
			<g id="XMLID_1287_">
				<rect id="XMLID_1146_" x="681.2" y="100.5" class="st6" width="22.9" height="22.9"/>
				<rect id="XMLID_1145_" x="709.9" y="96" class="st8" width="29" height="14.9"/>
				<rect id="XMLID_1144_" x="709.9" y="110.9" class="st9" width="29" height="14.9"/>
				<rect id="XMLID_1143_" x="738.9" y="96" class="st12" width="29" height="14.9"/>
				<rect id="XMLID_1142_" x="738.9" y="110.9" class="st8" width="29" height="14.9"/>
				<rect id="XMLID_1141_" x="684.6" y="86.2" class="st6" width="3.2" height="9.8"/>
				<g id="XMLID_1311_">
					<rect id="XMLID_1140_" x="685.8" y="105.1" class="st5" width="5.1" height="5.1"/>
					<rect id="XMLID_1139_" x="694.3" y="105.1" class="st1" width="5.1" height="5.1"/>
					<rect id="XMLID_1138_" x="685.8" y="113.6" class="st1" width="5.1" height="5.1"/>
					<rect id="XMLID_1137_" x="694.3" y="113.6" class="st5" width="5.1" height="5.1"/>
				</g>
				<polyline id="XMLID_1136_" class="st6" points="775.6,115.8 767.8,123.3 681.2,123.3 681.2,133.8 783,133.8 801,115.8 
					775.6,115.8 				"/>
				<polygon id="XMLID_1135_" class="st9" points="789.8,140.7 688.1,140.7 681.2,133.8 783,133.8 				"/>
				<rect id="XMLID_1134_" x="681.2" y="96" class="st6" width="14.4" height="4.5"/>
			</g>
			<g id="XMLID_1275_">
				<path id="XMLID_1133_" class="st0" d="M805.9,136c-0.9,1.6-2.6,2.6-4.6,2.6c-2,0-3.6-1.1-4.6-2.6H805.9z"/>
				<path id="XMLID_1131_" class="st0" d="M824.2,136c-0.9,1.6-2.6,2.6-4.6,2.6c-2,0-3.6-1.1-4.6-2.6H824.2z"/>
				<path id="XMLID_1130_" class="st0" d="M815,136c-0.9,1.6-2.6,2.6-4.6,2.6c-2,0-3.6-1.1-4.6-2.6H815z"/>
				<path id="XMLID_1128_" class="st0" d="M811.6,148.3c-0.9-1.6-2.6-2.6-4.6-2.6c-2,0-3.6,1.1-4.6,2.6H811.6z"/>
				<path id="XMLID_1127_" class="st0" d="M663.8,136.1c-0.9-1.6-2.6-2.6-4.6-2.6c-2,0-3.6,1.1-4.6,2.6H663.8z"/>
				<path id="XMLID_1125_" class="st0" d="M596,132.1c-0.9-1.6-2.6-2.6-4.6-2.6c-2,0-3.6,1.1-4.6,2.6H596z"/>
				<path id="XMLID_1123_" class="st0" d="M473,129.5c0.9,1.6,2.6,2.6,4.6,2.6c2,0,3.6-1.1,4.6-2.6H473z"/>
				<path id="XMLID_1122_" class="st0" d="M672.9,136.1c-0.9-1.6-2.6-2.6-4.6-2.6c-2,0-3.6,1.1-4.6,2.6H672.9z"/>
				<path id="XMLID_1120_" class="st0" d="M149,132.1c0.9,1.6,2.6,2.6,4.6,2.6c2,0,3.6-1.1,4.6-2.6H149z"/>
				<path id="XMLID_4250_" class="st0" d="M158.2,132.1c0.9,1.6,2.6,2.6,4.6,2.6c2,0,3.6-1.1,4.6-2.6H158.2z"/>
				<path id="XMLID_4252_" class="st0" d="M55.8,139.5c-0.9-1.6-2.6-2.6-4.6-2.6c-2,0-3.6,1.1-4.6,2.6H55.8z"/>
				<path id="XMLID_4251_" class="st0" d="M46.6,139.5c-0.9-1.6-2.6-2.6-4.6-2.6c-2,0-3.6,1.1-4.6,2.6H46.6z"/>
			</g>
		</g>
		<g id="XMLID_1260_">
			<polyline id="XMLID_1118_" class="st4" points="262.6,264 262.6,232.7 258,232.7 258,207.3 253.2,207.3 253.2,202.2 237.4,202.2 
				237.4,207.3 232.6,207.3 232.6,232.7 228,232.7 228,264 			"/>
			<polyline id="XMLID_1117_" class="st1" points="234.9,264 234.9,239 242.5,239 242.5,264 			"/>
			<polyline id="XMLID_1116_" class="st1" points="248.1,264 248.1,239 255.7,239 255.7,264 			"/>
			<polyline id="XMLID_1115_" class="st4" points="189.7,305.6 189.7,264 324.3,264 324.3,305.6 			"/>
			<line id="XMLID_1114_" class="st7" x1="195.8" y1="270.5" x2="307.2" y2="270.5"/>
			<path id="XMLID_1112_" class="st11" d="M253.2,202.2h-15.9c0-4.4,3.6-7.9,7.9-7.9S253.2,197.8,253.2,202.2z"/>
			<polyline id="XMLID_1111_" class="st1" points="241.5,232.7 241.5,213 249.1,213 249.1,232.7 			"/>
			<line id="XMLID_1110_" class="st7" x1="232.6" y1="232.7" x2="258" y2="232.7"/>
			<rect id="XMLID_1109_" x="216.6" y="277.2" class="st1" width="7.3" height="7.3"/>
			<rect id="XMLID_1108_" x="231.3" y="277.2" class="st1" width="7.3" height="7.3"/>
			<rect id="XMLID_1102_" x="246" y="277.2" class="st1" width="7.3" height="7.3"/>
			<rect id="XMLID_1101_" x="260.7" y="277.2" class="st1" width="7.3" height="7.3"/>
			<rect id="XMLID_4169_" x="289.8" y="277.2" class="st1" width="7.3" height="7.3"/>
			<rect id="XMLID_4170_" x="304.5" y="277.2" class="st1" width="7.3" height="7.3"/>
			<rect id="XMLID_1100_" x="231.3" y="277.2" class="st5" width="7.3" height="2.3"/>
			<rect id="XMLID_4167_" x="275.1" y="277.2" class="st1" width="7.3" height="7.3"/>
			<rect id="XMLID_4166_" x="275.1" y="277.2" class="st5" width="7.3" height="2.3"/>
			<rect id="XMLID_1099_" x="234.9" y="247.5" class="st5" width="7.5" height="2.3"/>
			<rect id="XMLID_1098_" x="248.1" y="242.5" class="st5" width="7.5" height="2.3"/>
			<rect id="XMLID_1097_" x="248.1" y="255.7" class="st5" width="7.5" height="2.3"/>
			<rect id="XMLID_1096_" x="234.9" y="255.7" class="st5" width="7.5" height="8.3"/>
			<rect id="XMLID_1095_" x="241.5" y="224.4" class="st5" width="7.5" height="8.3"/>
			<rect id="XMLID_1094_" x="189.4" y="288.7" class="st6" width="135" height="2.3"/>
			<rect id="XMLID_1691_" x="189.4" y="264" class="st6" width="135" height="2.3"/>
			<rect id="XMLID_1692_" x="228" y="232.7" class="st6" width="34.6" height="2.3"/>
			<rect id="XMLID_1693_" x="232.6" y="207.3" class="st6" width="25.4" height="2.3"/>
		</g>
		<g id="XMLID_1215_">
			<g id="XMLID_1232_">
				<path id="XMLID_1093_" class="st11" d="M78.1,269.3c0,1.3-0.5,2.7-1.5,3.7c-1,1-2.4,1.5-3.7,1.5H58.3c-1.3,0-2.7-0.5-3.7-1.5
					c-1-1-1.5-2.4-1.5-3.7H78.1z"/>
				<rect id="XMLID_1092_" x="61.6" y="264.7" class="st9" width="10" height="4.6"/>
			</g>
			<path id="XMLID_1091_" class="st7" d="M146.6,260.1c-2,0-3.6-1.1-4.6-2.6"/>
			<path id="XMLID_1090_" class="st7" d="M132.9,257.5c-0.9,1.6-2.6,2.6-4.6,2.6"/>
			<path id="XMLID_1089_" class="st7" d="M142,257.5c-0.9,1.6-2.6,2.6-4.6,2.6c-2,0-3.6-1.1-4.6-2.6"/>
			<path id="XMLID_1088_" class="st7" d="M142,267.3c-2,0-3.6-1.1-4.6-2.6c-0.9,1.6-2.6,2.6-4.6,2.6"/>
			<g id="XMLID_1081_">
				<path id="XMLID_1087_" class="st0" d="M53.5,282.2c-0.9-1.6-2.6-2.6-4.6-2.6c-2,0-3.6,1.1-4.6,2.6H53.5z"/>
				<path id="XMLID_1086_" class="st0" d="M44.3,282.2c-0.9-1.6-2.6-2.6-4.6-2.6c-2,0-3.6,1.1-4.6,2.6H44.3z"/>
				<path id="XMLID_1085_" class="st0" d="M62.6,282.2c-0.9-1.6-2.6-2.6-4.6-2.6c-2,0-3.6,1.1-4.6,2.6H62.6z"/>
				<path id="XMLID_1084_" class="st0" d="M83,282.2c-0.9,1.6-2.6,2.6-4.6,2.6c-2,0-3.6-1.1-4.6-2.6H83z"/>
				<path id="XMLID_1083_" class="st0" d="M92.1,282.2c-0.9,1.6-2.6,2.6-4.6,2.6c-2,0-3.6-1.1-4.6-2.6H92.1z"/>
				<path id="XMLID_1082_" class="st0" d="M45,259.7c-0.9,1.6-2.6,2.6-4.6,2.6c-2,0-3.6-1.1-4.6-2.6H45z"/>
				<path id="XMLID_4253_" class="st0" d="M148.9,250.9c-0.9,1.6-2.6,2.6-4.6,2.6c-2,0-3.6-1.1-4.6-2.6H148.9z"/>
			</g>
		</g>
		<polyline id="XMLID_1080_" class="st7" points="792.8,261.5 795,263.7 797.2,261.5 		"/>
		<polyline id="XMLID_1079_" class="st7" points="784.6,257.6 788.1,261 791.6,257.6 		"/>
		<path id="XMLID_1078_" class="st3" d="M829,320L829,320c0-7.9-6.4-14.3-14.3-14.3H65.1c-7.9,0-14.3,6.4-14.3,14.3v0
			c0,7.9,6.4,14.3,14.3,14.3l698.8,0h50.8C822.5,334.3,829,327.9,829,320z"/>
		<g id="XMLID_1166_">
			<polygon id="XMLID_1077_" class="st11" points="504.4,305.7 504.4,216.5 487.2,216.5 462.7,191.9 425.1,191.9 386.6,231.2 
				359.3,231.2 294.7,295.9 250.7,295.9 241.1,305.7 			"/>
			<polygon id="XMLID_1076_" class="st12" points="597.9,305.7 563.6,271.4 556.2,271.4 546.4,281.2 523.9,281.2 523.9,254.3 
				459.5,254.3 408.2,305.7 			"/>
			<polygon id="XMLID_1075_" class="st16" points="349.9,267.9 386.6,231.2 382.9,231.2 346.2,267.9 			"/>
			<polygon id="XMLID_1074_" class="st16" points="426.5,244.3 463.2,207.6 459.6,207.6 422.9,244.3 			"/>
			<line id="XMLID_1073_" class="st7" x1="471.4" y1="216.5" x2="464.2" y2="216.5"/>
			<g id="XMLID_1184_">
				<rect id="XMLID_1072_" x="434.3" y="175.5" class="st17" width="4.1" height="12.3"/>
				<rect id="XMLID_1071_" x="449.4" y="175.5" class="st17" width="4.1" height="12.3"/>
				<rect id="XMLID_1070_" x="443" y="176.2" class="st17" width="1.7" height="12.8"/>
				<rect id="XMLID_1069_" x="431.6" y="187.4" class="st11" width="24.5" height="4.5"/>
				<polygon id="XMLID_1068_" class="st11" points="443.9,166.3 427.5,177.6 460.2,177.6 				"/>
				<rect id="XMLID_1067_" x="431.6" y="189.6" class="st16" width="24.5" height="2.3"/>
			</g>
			<polygon id="XMLID_1066_" class="st18" points="491.5,254.3 487.5,254.3 487.5,244.3 481.5,238.3 481.5,254.3 471.4,254.3 
				471.4,216.5 491.5,216.5 			"/>
			<rect id="XMLID_1065_" x="477.7" y="254.3" class="st18" width="20.1" height="51.3"/>
			<rect id="XMLID_1064_" x="489.4" y="216.5" class="st19" width="2.1" height="37.9"/>
			<rect id="XMLID_1063_" x="479.4" y="238.3" class="st19" width="2.1" height="16.1"/>
			<rect id="XMLID_1062_" x="495.7" y="254.3" class="st19" width="2.1" height="51.3"/>
			<g id="XMLID_1054_">
				<g>
					<path class="st4" d="M481.5,251c1.8,0,3.3,1.5,3.3,3.3l9,0c-2.7-4-7.2-6.6-12.4-6.6c-5.2,0-9.7,2.6-12.4,6.6l9,0
						C478.2,252.5,479.6,251,481.5,251z"/>
				</g>
			</g>
			<path id="XMLID_1053_" class="st12" d="M276.8,282l-23.7,23.7l51.3,0L280.8,282C279.7,280.9,277.9,280.9,276.8,282z"/>
			<rect id="XMLID_4100_" x="491.5" y="274.2" class="st19" width="2.1" height="10.3"/>
			<rect id="XMLID_1052_" x="487.2" y="282.5" class="st19" width="2.1" height="10.3"/>
			<polygon id="XMLID_4249_" class="st1" points="425.1,191.9 415.8,201.4 471.9,201.4 462.7,191.9 			"/>
		</g>
		<g id="XMLID_1160_">
			<polygon id="XMLID_1051_" class="st4" points="539.8,305.7 539.8,271.4 535.9,271.4 535.9,262.5 531,262.5 531,254.3 517,254.3 
				517,262.5 512,262.5 512,305.7 			"/>
			<polygon id="XMLID_1050_" class="st17" points="524,229.2 520.6,254.3 527.6,254.3 			"/>
			<polyline id="XMLID_1049_" class="st4" points="556.2,293.3 535.9,293.3 535.9,285.9 556.2,285.9 			"/>
			<rect id="XMLID_4149_" x="535.9" y="285.9" class="st6" width="20.3" height="2.3"/>
			<polygon id="XMLID_1048_" class="st4" points="584,305.7 584,262.5 579,262.5 579,254.3 565,254.3 565,262.5 560.1,262.5 
				560.1,271.4 556.2,271.4 556.2,305.7 			"/>
			<rect id="XMLID_1047_" x="512" y="303.4" class="st6" width="27.8" height="2.3"/>
			<rect id="XMLID_1046_" x="556.2" y="303.4" class="st6" width="27.8" height="2.3"/>
			<rect id="XMLID_1045_" x="512" y="271.4" class="st6" width="27.8" height="2.3"/>
			<rect id="XMLID_1044_" x="512" y="262.5" class="st6" width="23.9" height="2.3"/>
			<rect id="XMLID_1043_" x="517" y="254.3" class="st6" width="14" height="2.3"/>
			<rect id="XMLID_1042_" x="565" y="254.3" class="st6" width="14" height="2.3"/>
			<rect id="XMLID_1041_" x="560.1" y="262.5" class="st6" width="23.9" height="2.3"/>
			<rect id="XMLID_1040_" x="556.2" y="271.4" class="st6" width="27.8" height="2.3"/>
			<rect id="XMLID_1039_" x="523.3" y="256.6" class="st1" width="4.3" height="5.8"/>
			<rect id="XMLID_4094_" x="523.3" y="264.7" class="st1" width="4.3" height="6.7"/>
			<rect id="XMLID_1038_" x="523.3" y="266.7" class="st5" width="4.3" height="2.4"/>
			<rect id="XMLID_4102_" x="523.3" y="273.6" class="st1" width="4.3" height="29.8"/>
			<rect id="XMLID_4135_" x="523.3" y="278" class="st5" width="4.3" height="10.9"/>
			<rect id="XMLID_4148_" x="535.9" y="288.2" class="st1" width="20.3" height="2.8"/>
			<rect id="XMLID_4137_" x="537.9" y="288.2" class="st5" width="2" height="2.8"/>
			<rect id="XMLID_4151_" x="544" y="288.2" class="st5" width="5.3" height="2.8"/>
			<rect id="XMLID_4152_" x="553.3" y="288.2" class="st5" width="1.7" height="2.8"/>
			<rect id="XMLID_4136_" x="523.3" y="295.5" class="st5" width="4.3" height="2.3"/>
			<rect id="XMLID_4145_" x="568.7" y="256.6" class="st1" width="4.3" height="5.8"/>
			<rect id="XMLID_4144_" x="568.7" y="264.7" class="st1" width="4.3" height="6.7"/>
			<rect id="XMLID_4143_" x="568.7" y="269" class="st5" width="4.3" height="2.4"/>
			<rect id="XMLID_4142_" x="568.7" y="273.6" class="st1" width="4.3" height="29.8"/>
			<rect id="XMLID_4139_" x="568.7" y="288.1" class="st5" width="4.3" height="10.9"/>
			<rect id="XMLID_4138_" x="568.7" y="279.2" class="st5" width="4.3" height="2.3"/>
			<polygon id="XMLID_4260_" class="st16" points="521.7,246.1 526.4,246.1 526.1,243.9 522,243.9 			"/>
			<polygon id="XMLID_4254_" class="st17" points="571.9,229.2 568.5,254.3 575.5,254.3 			"/>
			<polygon id="XMLID_1037_" class="st16" points="569.7,246.1 574.4,246.1 574.1,243.9 570,243.9 			"/>
		</g>
		<g id="XMLID_1103_">
			<g id="XMLID_1034_">
				<path id="XMLID_1036_" class="st1" d="M299.4,270.7h-25.4c0-7,5.7-12.7,12.7-12.7S299.4,263.7,299.4,270.7z"/>
				<path id="XMLID_1035_" class="st1" d="M280.3,270.7h-16c0-4.4,3.6-8,8-8C276.8,262.7,280.3,266.3,280.3,270.7z"/>
			</g>
			<g id="XMLID_1032_">
				<path id="XMLID_1033_" class="st1" d="M332.9,270.7h-16c0-4.4,3.6-8,8-8S332.9,266.3,332.9,270.7z"/>
			</g>
			<g id="XMLID_1104_">
				<path id="XMLID_1029_" class="st8" d="M320.6,244.4c-7.3-7.3-19.1-7.3-26.4,0c-5.8,5.8-7,14.5-3.6,21.5l0,0l7,13.9h19.6l7-13.9
					C327.6,258.9,326.4,250.2,320.6,244.4z"/>
				<line id="XMLID_1031_" class="st8" x1="297.6" y1="279.9" x2="317.2" y2="279.9"/>
				<g id="XMLID_1113_">
					<g id="XMLID_1030_">
						<path class="st20" d="M315.6,280.9l-4.8,9.6H304l-4.8-9.6H315.6 M317.2,279.9L317.2,279.9L317.2,279.9z M317.2,279.9h-19.6
							l5.8,11.6h8L317.2,279.9L317.2,279.9z"/>
					</g>
				</g>
				<rect id="XMLID_1028_" x="303.4" y="291.4" class="st8" width="8" height="8"/>
				<rect id="XMLID_1024_" x="303.4" y="297.1" class="st21" width="8" height="2.3"/>
				<g>
					<path id="XMLID_982_" class="st1" d="M317.2,257.7c0,5.4-4.4,9.8-9.8,9.8s-9.8-4.4-9.8-9.8c0-5.4,4.4-9.8,9.8-9.8
						S317.2,252.2,317.2,257.7z"/>
					<g id="XMLID_912_">
						<path class="st8" d="M311.2,253.9c-1-1-2.4-1.6-3.8-1.6h-5.3v5.3l0,0c0,1.4,0.5,2.7,1.6,3.8c2.1,2.1,5.4,2.1,7.5,0
							C313.2,259.3,313.2,256,311.2,253.9z"/>
						<path class="st14" d="M312.4,255.8l-5,1.9l5.3,5.3v-5.3C312.7,257,312.6,256.4,312.4,255.8z"/>
						<path id="XMLID_981_" class="st11" d="M302.1,255.6v2c0,0.6,0.1,1.3,0.3,1.9l5-1.9L302.1,255.6z"/>
						<circle id="XMLID_914_" class="st1" cx="307.4" cy="257.7" r="2.7"/>
						<circle id="XMLID_913_" class="st14" cx="307.4" cy="257.7" r="1"/>
					</g>
				</g>
			</g>
		</g>
		<g id="XMLID_1004_">
			<polygon id="XMLID_1023_" class="st6" points="374,334.3 374,261.9 390.2,261.9 390.2,275.5 404.3,275.5 404.3,217.6 
				439.3,217.6 439.3,275.5 453.4,275.5 453.4,261.9 469.2,261.9 469.2,334.3 			"/>
			<rect id="XMLID_1022_" x="410" y="322.8" class="st1" width="23.3" height="11.5"/>
			<rect id="XMLID_1021_" x="410" y="322.8" class="st5" width="23.3" height="3"/>
			<rect id="XMLID_1020_" x="458.9" y="266.3" class="st1" width="4.3" height="9.2"/>
			<rect id="XMLID_1019_" x="429.5" y="266.3" class="st1" width="4.3" height="9.2"/>
			<rect id="XMLID_1018_" x="419.6" y="266.3" class="st1" width="4.3" height="9.2"/>
			<rect id="XMLID_1017_" x="419.6" y="252.2" class="st1" width="4.3" height="9.2"/>
			<rect id="XMLID_1016_" x="419.6" y="238" class="st1" width="4.3" height="9.2"/>
			<rect id="XMLID_1015_" x="410" y="252.2" class="st1" width="4.3" height="9.2"/>
			<rect id="XMLID_1014_" x="410" y="238" class="st1" width="4.3" height="9.2"/>
			<rect id="XMLID_1013_" x="429.5" y="252.2" class="st1" width="4.3" height="9.2"/>
			<rect id="XMLID_1012_" x="429.5" y="238" class="st1" width="4.3" height="9.2"/>
			<rect id="XMLID_1011_" x="419.6" y="223.9" class="st1" width="4.3" height="9.2"/>
			<rect id="XMLID_1010_" x="410" y="266.3" class="st1" width="4.3" height="9.2"/>
			<rect id="XMLID_1009_" x="429.5" y="308.7" class="st1" width="4.3" height="9.2"/>
			<rect id="XMLID_1008_" x="419.6" y="308.7" class="st1" width="4.3" height="9.2"/>
			<rect id="XMLID_1007_" x="419.6" y="294.6" class="st1" width="4.3" height="9.2"/>
			<rect id="XMLID_1006_" x="419.6" y="280.5" class="st1" width="4.3" height="9.2"/>
			<rect id="XMLID_1005_" x="410" y="294.6" class="st1" width="4.3" height="9.2"/>
			<rect id="XMLID_1003_" x="410" y="280.5" class="st1" width="4.3" height="9.2"/>
			<rect id="XMLID_1002_" x="429.5" y="294.6" class="st1" width="4.3" height="9.2"/>
			<rect id="XMLID_1000_" x="429.5" y="280.5" class="st1" width="4.3" height="9.2"/>
			<rect id="XMLID_998_" x="410" y="308.7" class="st1" width="4.3" height="9.2"/>
			<rect id="XMLID_997_" x="458.9" y="308.7" class="st1" width="4.3" height="9.2"/>
			<rect id="XMLID_996_" x="449.1" y="308.7" class="st1" width="4.3" height="9.2"/>
			<rect id="XMLID_993_" x="449.1" y="294.6" class="st1" width="4.3" height="9.2"/>
			<rect id="XMLID_992_" x="449.1" y="280.5" class="st1" width="4.3" height="9.2"/>
			<rect id="XMLID_991_" x="439.3" y="294.6" class="st1" width="4.3" height="9.2"/>
			<rect id="XMLID_990_" x="439.3" y="280.5" class="st1" width="4.3" height="9.2"/>
			<rect id="XMLID_989_" x="458.9" y="294.6" class="st1" width="4.3" height="9.2"/>
			<rect id="XMLID_988_" x="458.9" y="280.5" class="st1" width="4.3" height="9.2"/>
			<rect id="XMLID_987_" x="439.3" y="308.7" class="st1" width="4.3" height="9.2"/>
			<rect id="XMLID_986_" x="400" y="308.7" class="st1" width="4.3" height="9.2"/>
			<rect id="XMLID_985_" x="390.2" y="308.7" class="st1" width="4.3" height="9.2"/>
			<rect id="XMLID_979_" x="390.2" y="294.6" class="st1" width="4.3" height="9.2"/>
			<rect id="XMLID_978_" x="390.2" y="280.5" class="st1" width="4.3" height="9.2"/>
			<rect id="XMLID_977_" x="380.4" y="294.6" class="st1" width="4.3" height="9.2"/>
			<rect id="XMLID_976_" x="380.4" y="280.5" class="st1" width="4.3" height="9.2"/>
			<rect id="XMLID_975_" x="400" y="294.6" class="st1" width="4.3" height="9.2"/>
			<rect id="XMLID_974_" x="400" y="280.5" class="st1" width="4.3" height="9.2"/>
			<rect id="XMLID_973_" x="380.4" y="308.7" class="st1" width="4.3" height="9.2"/>
			<rect id="XMLID_972_" x="380.4" y="266.3" class="st1" width="4.3" height="9.2"/>
			<rect id="XMLID_971_" x="458.9" y="322.8" class="st1" width="4.3" height="9.2"/>
			<rect id="XMLID_970_" x="449.1" y="322.8" class="st1" width="4.3" height="9.2"/>
			<rect id="XMLID_969_" x="439.3" y="322.8" class="st1" width="4.3" height="9.2"/>
			<rect id="XMLID_968_" x="400" y="322.8" class="st1" width="4.3" height="9.2"/>
			<rect id="XMLID_967_" x="390.2" y="322.8" class="st1" width="4.3" height="9.2"/>
			<rect id="XMLID_966_" x="380.4" y="322.8" class="st1" width="4.3" height="9.2"/>
			<rect id="XMLID_965_" x="429.5" y="223.9" class="st1" width="4.3" height="9.2"/>
			<rect id="XMLID_964_" x="410" y="223.9" class="st1" width="4.3" height="9.2"/>
			<rect id="XMLID_963_" x="374" y="332" class="st17" width="95.1" height="2.3"/>
			<rect id="XMLID_962_" x="374" y="259.6" class="st17" width="16.1" height="2.3"/>
			<rect id="XMLID_961_" x="453.4" y="259.6" class="st17" width="15.8" height="2.3"/>
			<rect id="XMLID_960_" x="404.3" y="215.4" class="st17" width="35" height="2.3"/>
			<rect id="XMLID_4194_" x="419.6" y="266.3" class="st5" width="4.3" height="4.6"/>
			<rect id="XMLID_4201_" x="390.2" y="280.5" class="st5" width="4.3" height="4.6"/>
			<rect id="XMLID_4202_" x="380.4" y="313.3" class="st5" width="4.3" height="4.6"/>
			<rect id="XMLID_4203_" x="439.3" y="308.7" class="st5" width="4.3" height="4.6"/>
			<rect id="XMLID_4204_" x="458.9" y="308.7" class="st5" width="4.3" height="4.6"/>
			<rect id="XMLID_4199_" x="429.5" y="242.6" class="st5" width="4.3" height="4.6"/>
			<rect id="XMLID_4200_" x="410" y="223.9" class="st5" width="4.3" height="4.6"/>
		</g>
		<g id="XMLID_980_">
			<rect id="XMLID_959_" x="145.8" y="258.2" class="st6" width="70.8" height="41"/>
			<g id="XMLID_999_">
				<rect id="XMLID_958_" x="204" y="264" class="st1" width="5.8" height="35.1"/>
			</g>
			<rect id="XMLID_957_" x="145.8" y="258.2" class="st16" width="70.8" height="2.3"/>
			<g id="XMLID_1001_">
				<rect id="XMLID_956_" x="152.6" y="264" class="st1" width="5.8" height="35.2"/>
			</g>
			<g id="XMLID_954_">
				<rect id="XMLID_955_" x="152.6" y="270.1" class="st5" width="5.8" height="29"/>
			</g>
			<g id="XMLID_952_">
				<rect id="XMLID_953_" x="204" y="270.1" class="st5" width="5.8" height="13.6"/>
			</g>
			<rect id="XMLID_951_" x="128.3" y="299.1" class="st6" width="105.8" height="35.2"/>
			<rect id="XMLID_950_" x="165.3" y="230.6" class="st17" width="31.9" height="103.7"/>
			<g id="XMLID_994_">
				<g id="XMLID_995_">
					<rect id="XMLID_949_" x="172.2" y="244.8" class="st1" width="5.8" height="64.3"/>
				</g>
			</g>
			<rect id="XMLID_948_" x="184.4" y="244.8" class="st1" width="5.8" height="64.3"/>
			<g id="XMLID_945_">
				<g id="XMLID_946_">
					<rect id="XMLID_947_" x="172.2" y="309" class="st5" width="5.8" height="19.4"/>
				</g>
			</g>
			<g id="XMLID_942_">
				<g id="XMLID_943_">
					<rect id="XMLID_944_" x="184.4" y="309" class="st5" width="5.8" height="19.4"/>
				</g>
			</g>
			<rect id="XMLID_941_" x="134.1" y="328.4" class="st17" width="94.3" height="5.9"/>
			<rect id="XMLID_940_" x="134.1" y="306.1" class="st17" width="94.3" height="5.9"/>
			<rect id="XMLID_939_" x="137.6" y="312" class="st17" width="5.9" height="16.4"/>
			<rect id="XMLID_938_" x="218.9" y="312" class="st17" width="5.9" height="16.4"/>
			<rect id="XMLID_933_" x="172.2" y="288.7" class="st5" width="5.8" height="7.4"/>
			<rect id="XMLID_932_" x="184.4" y="269" class="st5" width="5.8" height="5.9"/>
			<rect id="XMLID_931_" x="134.1" y="309.7" class="st16" width="94.3" height="2.3"/>
			<rect id="XMLID_930_" x="184.4" y="288.7" class="st5" width="5.8" height="2.3"/>
			<rect id="XMLID_929_" x="152.6" y="288.7" class="st1" width="5.8" height="2.3"/>
			<rect id="XMLID_928_" x="172.2" y="283.7" class="st17" width="18" height="2.3"/>
			<rect id="XMLID_927_" x="172.2" y="316" class="st17" width="18" height="2.3"/>
			<rect id="XMLID_926_" x="172.2" y="269" class="st5" width="5.8" height="2.3"/>
			<rect id="XMLID_925_" x="134.1" y="332" class="st16" width="94.3" height="2.3"/>
			<g id="XMLID_736_">
				<polygon id="XMLID_834_" class="st1" points="172.2,236.4 172.2,254.3 190.2,254.3 190.2,236.4 				"/>
				<g id="XMLID_737_">
					<path class="st8" d="M186,240.6c-1.3-1.3-3-2-4.8-2h-6.7v6.7l0,0c0,1.7,0.7,3.4,2,4.8c2.6,2.6,6.9,2.6,9.5,0
						C188.6,247.5,188.6,243.2,186,240.6z"/>
					<path class="st14" d="M187.5,243l-6.3,2.4l6.7,6.7v-6.7C187.9,244.5,187.8,243.7,187.5,243z"/>
					<path id="XMLID_822_" class="st11" d="M174.5,242.8v2.5c0,0.8,0.1,1.6,0.4,2.4l6.3-2.4L174.5,242.8z"/>
					<circle id="XMLID_821_" class="st1" cx="181.2" cy="245.3" r="3.5"/>
					<circle id="XMLID_820_" class="st14" cx="181.2" cy="245.3" r="1.3"/>
				</g>
			</g>
		</g>
		<g id="XMLID_922_">
			<polyline id="XMLID_924_" class="st17" points="128.3,334.3 128.3,246.7 123.1,246.7 123.1,222.1 117.6,222.1 117.6,216.4 
				99.5,216.4 99.5,222.1 94.1,222.1 94.1,246.7 88.9,246.7 88.9,334.3 			"/>
			<rect id="XMLID_923_" x="103.4" y="230.6" class="st5" width="10.4" height="6.6"/>
			<rect id="XMLID_921_" x="103.4" y="237.2" class="st1" width="10.4" height="9.5"/>
			<polyline id="XMLID_920_" class="st1" points="96.8,334.3 96.8,254.9 105.3,254.9 105.3,334.3 			"/>
			<polyline id="XMLID_919_" class="st5" points="96.8,282.1 96.8,267.7 105.3,267.7 105.3,282.1 			"/>
			<polyline id="XMLID_918_" class="st1" points="111.8,334.3 111.8,254.9 120.4,254.9 120.4,334.3 			"/>
			<polyline id="XMLID_917_" class="st5" points="111.8,305.6 111.8,292.8 120.4,292.8 120.4,305.6 			"/>
			<polyline id="XMLID_916_" class="st5" points="111.8,320.4 111.8,313.9 120.4,313.9 120.4,320.4 			"/>
			<rect id="XMLID_915_" x="88.9" y="246.7" class="st6" width="39.4" height="2.3"/>
			<rect id="XMLID_910_" x="88.9" y="290.5" class="st17" width="39.4" height="2.3"/>
			<rect id="XMLID_909_" x="88.9" y="332" class="st17" width="39.4" height="2.3"/>
			<rect id="XMLID_908_" x="88.9" y="329.8" class="st6" width="39.4" height="2.3"/>
			<rect id="XMLID_907_" x="96.8" y="314.3" class="st5" width="8.6" height="2.3"/>
			<rect id="XMLID_906_" x="111.8" y="272.5" class="st5" width="8.6" height="2.3"/>
			<rect id="XMLID_905_" x="99.5" y="216.4" class="st6" width="18.1" height="2.3"/>
			<rect id="XMLID_904_" x="117.6" y="222.1" class="st6" width="5.4" height="2.3"/>
			<rect id="XMLID_903_" x="94.1" y="222.1" class="st6" width="5.4" height="2.3"/>
		</g>
		<polygon id="XMLID_902_" class="st4" points="211.3,159.2 211.3,153.6 202.1,153.6 202.1,159.2 184.5,159.2 184.5,170.4 
			179.7,170.4 179.7,159.2 165.4,159.2 165.4,148.6 160.7,148.6 160.7,139.6 145.7,139.6 145.7,148.6 141,148.6 141,159.2 
			135.1,159.2 135.1,187.6 237.4,187.6 237.4,159.2 		"/>
		<g id="XMLID_832_">
			<polyline id="XMLID_901_" class="st17" points="104.3,187.7 104.3,64 141,64 141,187.7 			"/>
			<polyline id="XMLID_900_" class="st6" points="67.6,187.6 67.6,108.9 104.3,108.9 104.3,187.6 			"/>
			<rect id="XMLID_899_" x="130.7" y="114.1" class="st22" width="4.5" height="9.7"/>
			<rect id="XMLID_898_" x="120.4" y="114.1" class="st22" width="4.5" height="9.7"/>
			<rect id="XMLID_897_" x="120.4" y="99.3" class="st22" width="4.5" height="9.7"/>
			<rect id="XMLID_896_" x="120.4" y="84.4" class="st22" width="4.5" height="9.7"/>
			<rect id="XMLID_895_" x="110.3" y="99.3" class="st22" width="4.5" height="9.7"/>
			<rect id="XMLID_894_" x="110.3" y="84.4" class="st22" width="4.5" height="9.7"/>
			<rect id="XMLID_893_" x="130.7" y="99.3" class="st22" width="4.5" height="9.7"/>
			<rect id="XMLID_892_" x="130.7" y="84.4" class="st22" width="4.5" height="9.7"/>
			<rect id="XMLID_891_" x="120.4" y="69.6" class="st22" width="4.5" height="9.7"/>
			<rect id="XMLID_890_" x="110.3" y="114.1" class="st22" width="4.5" height="9.7"/>
			<rect id="XMLID_889_" x="120.4" y="143.8" class="st22" width="4.5" height="9.7"/>
			<rect id="XMLID_888_" x="120.4" y="129" class="st22" width="4.5" height="9.7"/>
			<rect id="XMLID_887_" x="110.3" y="143.8" class="st22" width="4.5" height="9.7"/>
			<rect id="XMLID_886_" x="110.3" y="129" class="st22" width="4.5" height="9.7"/>
			<rect id="XMLID_885_" x="130.7" y="143.8" class="st22" width="4.5" height="9.7"/>
			<rect id="XMLID_884_" x="130.7" y="129" class="st22" width="4.5" height="9.7"/>
			<line id="XMLID_883_" class="st7" x1="120.4" y1="89.3" x2="124.9" y2="89.3"/>
			<line id="XMLID_882_" class="st7" x1="130.7" y1="89.3" x2="135.2" y2="89.3"/>
			<rect id="XMLID_881_" x="130.7" y="69.6" class="st22" width="4.5" height="9.7"/>
			<rect id="XMLID_880_" x="110.3" y="69.6" class="st22" width="4.5" height="9.7"/>
			<line id="XMLID_879_" class="st7" x1="110.3" y1="74.4" x2="114.8" y2="74.4"/>
			<line id="XMLID_878_" class="st7" x1="120.4" y1="104.1" x2="124.9" y2="104.1"/>
			<line id="XMLID_877_" class="st7" x1="130.7" y1="104.1" x2="135.2" y2="104.1"/>
			<line id="XMLID_876_" class="st7" x1="110.3" y1="104.1" x2="114.8" y2="104.1"/>
			<line id="XMLID_875_" class="st7" x1="130.7" y1="119" x2="135.2" y2="119"/>
			<line id="XMLID_874_" class="st7" x1="110.3" y1="119" x2="114.8" y2="119"/>
			<line id="XMLID_873_" class="st7" x1="120.4" y1="148.6" x2="124.9" y2="148.6"/>
			<line id="XMLID_872_" class="st7" x1="130.7" y1="148.6" x2="135.2" y2="148.6"/>
			<line id="XMLID_871_" class="st7" x1="110.3" y1="148.6" x2="114.8" y2="148.6"/>
			<rect id="XMLID_870_" x="94" y="168.5" class="st22" width="4.5" height="9.7"/>
			<rect id="XMLID_869_" x="83.7" y="168.5" class="st22" width="4.5" height="9.7"/>
			<rect id="XMLID_868_" x="73.6" y="168.5" class="st22" width="4.5" height="9.7"/>
			<line id="XMLID_867_" class="st7" x1="94" y1="173.3" x2="98.5" y2="173.3"/>
			<line id="XMLID_866_" class="st7" x1="73.6" y1="173.3" x2="78.1" y2="173.3"/>
			<line id="XMLID_865_" class="st7" x1="122.5" y1="173.3" x2="122.5" y2="183.1"/>
			<line id="XMLID_864_" class="st7" x1="130.7" y1="133.8" x2="135.2" y2="133.8"/>
			<line id="XMLID_863_" class="st7" x1="110.3" y1="133.8" x2="114.8" y2="133.8"/>
			<rect id="XMLID_862_" x="94" y="114.1" class="st22" width="4.5" height="9.7"/>
			<rect id="XMLID_861_" x="83.7" y="114.1" class="st22" width="4.5" height="9.7"/>
			<rect id="XMLID_860_" x="73.6" y="114.1" class="st22" width="4.5" height="9.7"/>
			<rect id="XMLID_859_" x="83.7" y="129" class="st22" width="4.5" height="9.7"/>
			<rect id="XMLID_858_" x="73.6" y="129" class="st22" width="4.5" height="9.7"/>
			<rect id="XMLID_857_" x="94" y="129" class="st22" width="4.5" height="9.7"/>
			<line id="XMLID_856_" class="st7" x1="83.7" y1="119" x2="88.2" y2="119"/>
			<line id="XMLID_855_" class="st7" x1="73.6" y1="119" x2="78.1" y2="119"/>
			<line id="XMLID_854_" class="st7" x1="94" y1="133.8" x2="98.5" y2="133.8"/>
			<line id="XMLID_847_" class="st7" x1="73.6" y1="133.8" x2="78.1" y2="133.8"/>
			<line id="XMLID_846_" class="st7" x1="120.4" y1="74.4" x2="124.9" y2="74.4"/>
			<rect id="XMLID_845_" x="83.7" y="143.8" class="st22" width="4.5" height="9.7"/>
			<rect id="XMLID_844_" x="73.6" y="143.8" class="st22" width="4.5" height="9.7"/>
			<rect id="XMLID_843_" x="94" y="143.8" class="st22" width="4.5" height="9.7"/>
			<line id="XMLID_842_" class="st7" x1="83.7" y1="148.6" x2="88.2" y2="148.6"/>
			<line id="XMLID_841_" class="st7" x1="94" y1="148.6" x2="98.5" y2="148.6"/>
			<line id="XMLID_840_" class="st7" x1="73.6" y1="148.6" x2="78.1" y2="148.6"/>
			<rect id="XMLID_839_" x="67.6" y="159" class="st17" width="36.7" height="4.5"/>
			<rect id="XMLID_837_" x="67.6" y="183.1" class="st17" width="36.7" height="4.5"/>
			<rect id="XMLID_831_" x="130.7" y="69.6" class="st5" width="4.5" height="4.8"/>
			<rect id="XMLID_830_" x="110.3" y="84.4" class="st5" width="4.5" height="4.8"/>
			<rect id="XMLID_829_" x="120.4" y="114.1" class="st5" width="4.5" height="4.8"/>
			<rect id="XMLID_828_" x="120.4" y="129" class="st5" width="4.5" height="4.8"/>
			<rect id="XMLID_827_" x="94" y="114.1" class="st5" width="4.5" height="4.8"/>
			<rect id="XMLID_826_" x="83.7" y="129" class="st5" width="4.5" height="4.8"/>
			<rect id="XMLID_825_" x="83.7" y="168.5" class="st5" width="4.5" height="4.8"/>
			<g id="XMLID_833_">
				<polygon id="XMLID_824_" class="st1" points="74.1,85.2 74.1,108.9 97.8,108.9 97.9,85.2 				"/>
				<g id="XMLID_678_">
					<path class="st8" d="M92.3,90.7c-1.7-1.7-4-2.6-6.3-2.6h-8.9V97l0,0c0,2.3,0.9,4.6,2.6,6.3c3.5,3.5,9.1,3.5,12.6,0
						C95.7,99.9,95.7,94.2,92.3,90.7z"/>
					<path class="st14" d="M94.3,93.9L86,97l8.9,8.9V97C94.9,95.9,94.7,94.9,94.3,93.9z"/>
					<path id="XMLID_735_" class="st11" d="M77.1,93.7V97c0,1.1,0.2,2.1,0.6,3.1L86,97L77.1,93.7z"/>
					<circle id="XMLID_680_" class="st1" cx="86" cy="97" r="4.6"/>
					<circle id="XMLID_679_" class="st14" cx="86" cy="97" r="1.7"/>
				</g>
			</g>
			<polyline id="XMLID_819_" class="st22" points="110.3,183.1 110.3,168.5 121.5,168.5 121.5,183.1 			"/>
			<rect id="XMLID_1710_" x="110.3" y="168.5" class="st5" width="11.2" height="4.6"/>
			<polyline id="XMLID_818_" class="st22" points="123.5,183.1 123.5,168.5 134.7,168.5 134.7,183.1 			"/>
			<rect id="XMLID_816_" x="123.5" y="168.5" class="st5" width="11.2" height="4.6"/>
			<rect id="XMLID_815_" x="104.3" y="159" class="st16" width="36.7" height="4.5"/>
			<rect id="XMLID_814_" x="104.3" y="183.1" class="st6" width="36.7" height="2.3"/>
			<rect id="XMLID_813_" x="104.3" y="159" class="st6" width="36.7" height="2.3"/>
			<rect id="XMLID_812_" x="104.3" y="64" class="st6" width="36.7" height="2.3"/>
			<rect id="XMLID_811_" x="104.3" y="185.3" class="st16" width="36.7" height="2.3"/>
			<rect id="XMLID_810_" x="67.6" y="108.9" class="st17" width="36.7" height="2.3"/>
		</g>
		<g id="XMLID_804_">
			<g id="XMLID_4156_">
				<polygon id="XMLID_809_" class="st6" points="591.4,187.8 591.4,155.1 550.1,155.1 550.1,123.3 532.1,123.3 532.1,134.9 
					527.4,134.9 527.4,146.4 521.4,146.4 521.4,123.3 515.5,123.3 515.5,113.1 510.8,113.1 510.8,104.1 495.7,104.1 495.7,113.1 
					491,113.1 491,123.3 485.1,123.3 485.1,187.8 				"/>
				<rect id="XMLID_4155_" x="491" y="129.8" class="st1" width="8.6" height="58"/>
				<rect id="XMLID_4154_" x="491" y="136.2" class="st5" width="8.6" height="2.3"/>
				<rect id="XMLID_4153_" x="491" y="150.7" class="st5" width="8.6" height="2.3"/>
				<rect id="XMLID_4150_" x="491" y="166.8" class="st5" width="8.6" height="8.9"/>
				<rect id="XMLID_4161_" x="506.9" y="129.8" class="st1" width="8.6" height="58"/>
				<rect id="XMLID_4160_" x="506.9" y="136.2" class="st5" width="8.6" height="2.3"/>
				<rect id="XMLID_4159_" x="506.9" y="146.4" class="st5" width="8.6" height="6.6"/>
				<rect id="XMLID_4158_" x="506.9" y="158.8" class="st5" width="8.6" height="21.8"/>
				<rect id="XMLID_4164_" x="525.2" y="167" class="st1" width="58" height="8.6"/>
				<rect id="XMLID_4163_" x="531.7" y="167" class="st5" width="7.3" height="8.6"/>
				<rect id="XMLID_4162_" x="546.2" y="167" class="st5" width="2.3" height="8.6"/>
				<rect id="XMLID_4157_" x="554.9" y="167" class="st5" width="16.2" height="8.6"/>
				<rect id="XMLID_1167_" x="495.7" y="104.1" class="st4" width="15" height="2.3"/>
				<rect id="XMLID_4226_" x="491" y="113.1" class="st4" width="4.7" height="2.3"/>
				<rect id="XMLID_4230_" x="510.7" y="113.1" class="st4" width="4.7" height="2.3"/>
				<rect id="XMLID_4232_" x="485.1" y="123.3" class="st4" width="6" height="2.3"/>
				<rect id="XMLID_4231_" x="515.5" y="123.3" class="st4" width="6" height="2.3"/>
				<rect id="XMLID_4234_" x="527.4" y="134.9" class="st4" width="4.7" height="2.3"/>
				<rect id="XMLID_4235_" x="521.4" y="146.4" class="st4" width="6" height="2.3"/>
				<rect id="XMLID_4233_" x="532.1" y="123.3" class="st4" width="18" height="2.3"/>
				<rect id="XMLID_4236_" x="550.1" y="155.1" class="st4" width="41.3" height="2.3"/>
			</g>
			<g id="XMLID_817_">
				<line id="XMLID_808_" class="st23" x1="566.8" y1="186.8" x2="566.8" y2="215.6"/>
				<line id="XMLID_807_" class="st23" x1="566.8" y1="186.8" x2="547.7" y2="218.5"/>
				<line id="XMLID_806_" class="st23" x1="566.8" y1="186.8" x2="585.9" y2="218.5"/>
				<line id="XMLID_803_" class="st23" x1="566.8" y1="215.6" x2="558.1" y2="201.2"/>
				<line id="XMLID_801_" class="st23" x1="566.8" y1="215.6" x2="575.4" y2="201.2"/>
				<g id="XMLID_823_">
					<rect id="XMLID_800_" x="560.5" y="112.1" class="st17" width="4.6" height="62.5"/>
					<rect id="XMLID_799_" x="568.4" y="112.1" class="st17" width="4.6" height="62.5"/>
				</g>
				<line id="XMLID_797_" class="st24" x1="566.8" y1="66.7" x2="566.8" y2="37.1"/>
				<rect id="XMLID_793_" x="564.5" y="70.9" class="st17" width="4.6" height="32.3"/>
				<path id="XMLID_791_" class="st17" d="M577.9,103.2c0,6.2-5,11.2-11.2,11.2c-6.2,0-11.2-5-11.2-11.2c0-6.2,5-11.2,11.2-11.2
					C572.9,92,577.9,97,577.9,103.2z"/>
				<path id="XMLID_1286_" class="st16" d="M571.1,103.2c0,2.4-1.9,4.3-4.3,4.3c-2.4,0-4.3-1.9-4.3-4.3c0-2.4,1.9-4.3,4.3-4.3
					C569.1,98.9,571.1,100.8,571.1,103.2z"/>
				
					<ellipse id="XMLID_790_" transform="matrix(0.2285 -0.9735 0.9735 0.2285 258.594 693.3535)" class="st17" cx="566.8" cy="183.5" rx="12.6" ry="12.6"/>
				
					<ellipse id="XMLID_1057_" transform="matrix(0.2285 -0.9735 0.9735 0.2285 258.594 693.3534)" class="st16" cx="566.8" cy="183.5" rx="5.1" ry="5.1"/>
				<path id="XMLID_789_" class="st17" d="M571,69.2c0,2.3-1.9,4.2-4.2,4.2c-2.3,0-4.2-1.9-4.2-4.2c0-2.3,1.9-4.2,4.2-4.2
					C569.1,65.1,571,66.9,571,69.2z"/>
			</g>
			<g id="XMLID_805_">
				<polygon id="XMLID_788_" class="st17" points="544.2,216.4 544.2,183.8 539,183.8 539,152.3 533.5,152.3 533.5,146.4 
					515.5,146.4 515.5,152.3 510,152.3 510,183.8 504.8,183.8 504.8,216.4 				"/>
				<line id="XMLID_787_" class="st7" x1="510" y1="183.8" x2="539" y2="183.8"/>
				<rect id="XMLID_786_" x="519.3" y="160" class="st1" width="10.4" height="23.9"/>
				<rect id="XMLID_785_" x="519.3" y="165.9" class="st5" width="10.4" height="7.9"/>
				<rect id="XMLID_784_" x="512.7" y="193.6" class="st1" width="8.6" height="22.8"/>
				<rect id="XMLID_783_" x="512.7" y="193.6" class="st5" width="8.6" height="4.4"/>
				<rect id="XMLID_782_" x="527.7" y="193.6" class="st1" width="8.6" height="22.8"/>
				<rect id="XMLID_781_" x="527.7" y="204.1" class="st5" width="8.6" height="4.4"/>
				<rect id="XMLID_780_" x="504.8" y="183.8" class="st16" width="39.4" height="2.3"/>
				<rect id="XMLID_779_" x="504.8" y="214.1" class="st6" width="39.4" height="2.3"/>
				<rect id="XMLID_773_" x="515.5" y="146.4" class="st16" width="18.1" height="2.3"/>
			</g>
			<rect id="XMLID_4224_" x="544.5" y="216.4" class="st1" width="44.8" height="4.5"/>
		</g>
		<g id="XMLID_740_">
			<g id="XMLID_802_">
				<rect id="XMLID_772_" x="584.3" y="147.2" class="st4" width="88.1" height="40.6"/>
			</g>
			<polygon id="XMLID_771_" class="st6" points="648.1,187.8 648.1,123.3 642.8,123.3 642.8,101.9 637.4,101.9 637.4,96.1 
				619.3,96.1 619.3,101.9 613.9,101.9 613.9,123.3 608.6,123.3 608.6,187.8 			"/>
			<rect id="XMLID_770_" x="623.1" y="108.4" class="st1" width="10.4" height="14.9"/>
			<rect id="XMLID_768_" x="616.5" y="129.8" class="st1" width="8.6" height="58"/>
			<rect id="XMLID_767_" x="631.6" y="129.8" class="st1" width="8.6" height="57.8"/>
			<path id="XMLID_766_" class="st11" d="M637.4,96.1h-18.1c0-5,4-9,9-9S637.4,91.1,637.4,96.1z"/>
			<rect id="XMLID_765_" x="631.6" y="141.3" class="st5" width="8.6" height="2.3"/>
			<rect id="XMLID_763_" x="616.5" y="136.3" class="st5" width="8.6" height="2.3"/>
			<rect id="XMLID_762_" x="623.1" y="113.2" class="st5" width="10.4" height="2.3"/>
			<rect id="XMLID_761_" x="616.5" y="150.8" class="st5" width="8.6" height="2.3"/>
			<rect id="XMLID_758_" x="616.5" y="166.8" class="st5" width="8.6" height="8.9"/>
			<rect id="XMLID_756_" x="631.6" y="155.3" class="st5" width="8.6" height="8.8"/>
			<rect id="XMLID_752_" x="631.6" y="170.7" class="st5" width="8.6" height="11.4"/>
			<rect id="XMLID_751_" x="672.4" y="170.9" class="st4" width="66.2" height="16.9"/>
			<rect id="XMLID_750_" x="608.6" y="185.6" class="st17" width="39.4" height="2.3"/>
			<rect id="XMLID_748_" x="608.6" y="123.3" class="st17" width="39.4" height="2.3"/>
			<rect id="XMLID_747_" x="613.9" y="101.9" class="st17" width="28.9" height="2.3"/>
			<rect id="XMLID_746_" x="584.3" y="185.6" class="st16" width="24.3" height="2.3"/>
			<rect id="XMLID_745_" x="648.1" y="185.6" class="st16" width="90.5" height="2.3"/>
			<rect id="XMLID_744_" x="672.4" y="170.9" class="st16" width="66.2" height="2.3"/>
			<rect id="XMLID_742_" x="648.1" y="147.2" class="st16" width="24.3" height="2.3"/>
			<rect id="XMLID_741_" x="584.3" y="147.2" class="st16" width="24.3" height="2.3"/>
			<rect id="XMLID_4171_" x="656.6" y="165.9" class="st1" width="7.3" height="7.3"/>
			<rect id="XMLID_4168_" x="656.6" y="154.5" class="st1" width="7.3" height="7.3"/>
			<rect id="XMLID_4165_" x="656.6" y="154.5" class="st5" width="7.3" height="2.3"/>
			<rect id="XMLID_4197_" x="592.8" y="165.9" class="st1" width="7.3" height="7.3"/>
			<rect id="XMLID_4196_" x="592.8" y="154.5" class="st1" width="7.3" height="7.3"/>
			<rect id="XMLID_4195_" x="592.8" y="165.9" class="st5" width="7.3" height="2.3"/>
		</g>
		<g id="XMLID_757_">
			<path id="XMLID_733_" class="st19" d="M244.4,101.7l-58.3-15.1l-14.3,101.2h85L244.4,101.7z M191.4,172.8l7.5-54.2l16.1,1.8
				l7.4,52.2L191.4,172.8z"/>
			<polygon id="XMLID_732_" class="st25" points="214.4,172.7 216.7,187.8 233.2,187.8 223,116.6 182.5,112 181.1,121.9 
				198.4,123.8 199,119.1 215.1,120.9 222.5,172.7 			"/>
			<line id="XMLID_731_" class="st7" x1="215.1" y1="120.9" x2="223" y2="116.6"/>
		</g>
		<g id="XMLID_651_">
			<g id="XMLID_717_">
				<path id="XMLID_730_" class="st1" d="M271.4,144.4h-25.2c0-6.9,5.6-12.6,12.6-12.6C265.8,131.8,271.4,137.5,271.4,144.4z"/>
				<path id="XMLID_721_" class="st1" d="M252.6,144.4h-15.9c0-4.4,3.5-7.9,7.9-7.9S252.6,140,252.6,144.4z"/>
			</g>
			<g id="XMLID_707_">
				<path id="XMLID_715_" class="st1" d="M373.6,146.7H361c0-3.5,2.8-6.3,6.3-6.3C370.8,140.4,373.6,143.2,373.6,146.7z"/>
				<path id="XMLID_710_" class="st1" d="M364.1,146.7h-8c0-2.2,1.8-4,4-4S364.1,144.5,364.1,146.7z"/>
				<path id="XMLID_708_" class="st1" d="M377.6,146.7h-6.3c0-1.7,1.4-3.2,3.2-3.2C376.2,143.5,377.6,144.9,377.6,146.7z"/>
			</g>
			<g id="XMLID_720_">
				<g id="XMLID_749_">
					
						<rect id="XMLID_706_" x="315.4" y="77.7" transform="matrix(0.7071 -0.7071 0.7071 0.7071 31.5093 249.5442)" class="st4" width="3.3" height="18"/>
					<path id="XMLID_705_" class="st11" d="M314.9,84.7c-4.4,4.4-11.5,4.4-15.8,0l15.8-15.8C319.3,73.2,319.3,80.3,314.9,84.7z"/>
					<polygon id="XMLID_701_" class="st4" points="308.8,74.9 305.2,78.6 299.5,69.2 					"/>
					<path id="XMLID_700_" class="st11" d="M297.8,71c-1-1-1-2.5,0-3.5s2.5-1,3.5,0s1,2.5,0,3.5C300.3,71.9,298.7,71.9,297.8,71z"/>
				</g>
				<path id="XMLID_699_" class="st11" d="M246.7,159.2h140.9c0,38.9-31.5,70.4-70.4,70.4C278.2,229.6,246.7,198.1,246.7,159.2z"/>
				<path id="XMLID_697_" class="st6" d="M313.2,159.2V102h-13.5c-1.6,0-2.8,1.3-2.8,2.8v4.9h-4V102h-4v-8.7h-16.3v8.7h-4v57.2
					H313.2z"/>
				<path id="XMLID_696_" class="st17" d="M247.2,167.7c4.2,34.9,33.9,61.9,69.9,61.9c36,0,65.7-27,69.9-61.9H247.2z"/>
				<path id="XMLID_695_" class="st11" d="M350.6,102h-37.4c0-10.3,8.4-18.7,18.7-18.7C342.2,83.3,350.6,91.7,350.6,102z"/>
				<rect id="XMLID_694_" x="313.2" y="102" class="st17" width="37.4" height="57.2"/>
				<g id="XMLID_734_">
					<polyline id="XMLID_693_" class="st17" points="373.6,130.4 373.6,159.2 369.9,159.2 369.9,130.4 					"/>
					<rect id="XMLID_692_" x="356.2" y="126.8" class="st17" width="31.2" height="3.6"/>
					<rect id="XMLID_691_" x="356.2" y="95.6" class="st1" width="31.1" height="31.2"/>
					<g id="XMLID_1214_">
						<path class="st8" d="M380,103c-2.3-2.3-5.3-3.4-8.3-3.4h-11.7v11.7l0,0c0,3,1.1,6,3.4,8.3c4.6,4.6,11.9,4.6,16.5,0
							C384.6,114.9,384.6,107.5,380,103z"/>
						<path class="st14" d="M382.7,107.1l-10.9,4.1l11.7,11.7v-11.7C383.4,109.8,383.2,108.4,382.7,107.1z"/>
						<path id="XMLID_1315_" class="st11" d="M360.1,106.8v4.4c0,1.4,0.3,2.8,0.8,4.1l10.9-4.1L360.1,106.8z"/>
						<circle id="XMLID_1314_" class="st1" cx="371.8" cy="111.2" r="6"/>
						<circle id="XMLID_1313_" class="st14" cx="371.8" cy="111.2" r="2.2"/>
					</g>
				</g>
				<path id="XMLID_677_" class="st4" d="M255.7,193.6c12.1,21.5,35,36,61.4,36c26.4,0,49.4-14.5,61.4-36H255.7z"/>
				<path id="XMLID_676_" class="st11" d="M288.9,93.3c0-4.5-3.7-8.2-8.2-8.2c-4.5,0-8.2,3.7-8.2,8.2H288.9z"/>
				<rect id="XMLID_675_" x="321.3" y="109.4" class="st22" width="7" height="49.8"/>
				<rect id="XMLID_674_" x="321.3" y="120.2" class="st5" width="7" height="9"/>
				<rect id="XMLID_673_" x="328.4" y="109.4" class="st7" width="7" height="49.8"/>
				<rect id="XMLID_709_" x="335.4" y="109.4" class="st22" width="7" height="49.8"/>
				<line id="XMLID_672_" class="st7" x1="294.7" y1="193.6" x2="294.7" y2="226"/>
				<line id="XMLID_711_" class="st7" x1="323.4" y1="194.4" x2="323.4" y2="229.6"/>
				<line id="XMLID_712_" class="st7" x1="342.4" y1="193.6" x2="342.4" y2="224.9"/>
				<line id="XMLID_713_" class="st7" x1="292.9" y1="109.7" x2="292.9" y2="159.2"/>
				<rect id="XMLID_671_" x="335.4" y="134.9" class="st5" width="7" height="9"/>
				<rect id="XMLID_670_" x="313.2" y="156.9" class="st6" width="37.4" height="2.3"/>
				<rect id="XMLID_669_" x="268.6" y="156.9" class="st17" width="44.6" height="2.3"/>
				<rect id="XMLID_668_" x="268.6" y="129.5" class="st17" width="24.3" height="2.3"/>
				<polygon id="XMLID_667_" class="st4" points="313.2,159.2 292.9,159.2 292.9,109.7 296.8,109.7 296.8,102 313.2,102 				"/>
				<rect id="XMLID_666_" x="292.9" y="129.5" class="st6" width="20.3" height="2.3"/>
				<rect id="XMLID_665_" x="292.9" y="156.9" class="st6" width="20.3" height="2.3"/>
			</g>
			<g id="XMLID_662_">
				<path id="XMLID_664_" class="st1" d="M423,118.5h-12.6c0-3.5,2.8-6.3,6.3-6.3S423,115,423,118.5z"/>
				<path id="XMLID_663_" class="st1" d="M413.6,118.5h-8c0-2.2,1.8-4,4-4S413.6,116.3,413.6,118.5z"/>
			</g>
			<g id="XMLID_659_">
				<path id="XMLID_661_" class="st1" d="M361.3,125h-12.6c0-3.5,2.8-6.3,6.3-6.3S361.3,121.5,361.3,125z"/>
				<path id="XMLID_660_" class="st1" d="M351.9,125h-8c0-2.2,1.8-4,4-4S351.9,122.8,351.9,125z"/>
			</g>
			<g id="XMLID_655_">
				<path id="XMLID_658_" class="st1" d="M357.9,216.5h-16c0-4.4,3.6-8,8-8C354.3,208.5,357.9,212,357.9,216.5z"/>
				<path id="XMLID_657_" class="st1" d="M345.9,216.5h-10.1c0-2.8,2.3-5,5-5S345.9,213.7,345.9,216.5z"/>
				<path id="XMLID_656_" class="st1" d="M362.9,216.5h-8c0-2.2,1.8-4,4-4C361.1,212.5,362.9,214.2,362.9,216.5z"/>
			</g>
			<g id="XMLID_652_">
				<path id="XMLID_654_" class="st1" d="M284.7,216.4h-16c0-4.4,3.6-8,8-8C281.1,208.4,284.7,212,284.7,216.4z"/>
				<path id="XMLID_653_" class="st1" d="M272.7,216.4h-10.1c0-2.8,2.3-5,5-5S272.7,213.6,272.7,216.4z"/>
			</g>
		</g>
		<g id="XMLID_647_">
			<path id="XMLID_759_" class="st11" d="M511.4,75.6h-19c-3.1,0-5.7,2.5-5.7,5.7v0v6.1h36.6v-6.1l-5.5-3.7
				C515.9,76.3,513.7,75.6,511.4,75.6z"/>
			<path id="XMLID_755_" class="st16" d="M488.1,85.9v-4.7c0-2.3,1.9-4.3,4.3-4.3h19c2,0,3.9,0.6,5.5,1.7l4.9,3.3v3.9H488.1z"/>
			<rect id="XMLID_4246_" x="498" y="77" class="st16" width="9.7" height="8.9"/>
			<path id="XMLID_754_" class="st11" d="M530.5,89.8h-48.2c-2.3,0-4.3-1.9-4.3-4.3v0c0-2.3,1.9-4.3,4.3-4.3h48.2
				c2.3,0,4.3,1.9,4.3,4.3v0C534.7,87.9,532.8,89.8,530.5,89.8z"/>
			<rect id="XMLID_753_" x="497.2" y="75.6" class="st11" width="1.4" height="5.7"/>
			<rect id="XMLID_729_" x="506.9" y="75.6" class="st11" width="1.4" height="5.7"/>
			<path id="XMLID_650_" class="st26" d="M479.2,83.4c-0.2,0-0.5,0.1-0.7,0.1c-0.3,0.6-0.5,1.3-0.5,2s0.2,1.4,0.5,2
				c0.2,0.1,0.5,0.1,0.7,0.1c1.2,0,2.1-1,2.1-2.1S480.4,83.4,479.2,83.4z"/>
			<path id="XMLID_723_" class="st26" d="M533.5,83.4c0.2,0,0.5,0.1,0.7,0.1c0.3,0.6,0.5,1.3,0.5,2s-0.2,1.4-0.5,2
				c-0.2,0.1-0.5,0.1-0.7,0.1c-1.2,0-2.1-1-2.1-2.1S532.3,83.4,533.5,83.4z"/>
		</g>
		<g id="XMLID_639_">
			<path id="XMLID_646_" class="st8" d="M410.6,206.8h-19c-3.1,0-5.7,2.5-5.7,5.7l0,0v6.1h36.6v-6.1l-5.5-3.7
				C415,207.5,412.8,206.8,410.6,206.8z"/>
			<path id="XMLID_645_" class="st16" d="M387.3,217.1v-4.7c0-2.3,1.9-4.3,4.3-4.3h19c2,0,3.9,0.6,5.5,1.7l4.9,3.3v3.9H387.3z"/>
			<rect id="XMLID_4245_" x="397.1" y="208.2" class="st27" width="9.7" height="8.9"/>
			<path id="XMLID_644_" class="st8" d="M429.6,221h-48.2c-2.3,0-4.3-1.9-4.3-4.3l0,0c0-2.3,1.9-4.3,4.3-4.3h48.2
				c2.3,0,4.3,1.9,4.3,4.3l0,0C433.9,219.1,432,221,429.6,221z"/>
			<rect id="XMLID_643_" x="396.4" y="206.8" class="st8" width="1.4" height="5.7"/>
			<rect id="XMLID_642_" x="406.1" y="206.8" class="st8" width="1.4" height="5.7"/>
			<path id="XMLID_641_" class="st26" d="M378.4,214.6c-0.2,0-0.5,0.1-0.7,0.1c-0.3,0.6-0.5,1.3-0.5,2s0.2,1.4,0.5,2
				c0.2,0.1,0.5,0.1,0.7,0.1c1.2,0,2.1-1,2.1-2.1S379.6,214.6,378.4,214.6z"/>
			<path id="XMLID_640_" class="st26" d="M432.6,214.6c0.2,0,0.5,0.1,0.7,0.1c0.3,0.6,0.5,1.3,0.5,2s-0.2,1.4-0.5,2
				c-0.2,0.1-0.5,0.1-0.7,0.1c-1.2,0-2.1-1-2.1-2.1S431.5,214.6,432.6,214.6z"/>
		</g>
		<g id="XMLID_629_">
			<path id="XMLID_638_" class="st28" d="M79.8,329.2h-53c-1,0-1.9-0.8-1.9-1.9v0c0-1,0.8-1.9,1.9-1.9h53c1,0,1.9,0.8,1.9,1.9v0
				C81.7,328.3,80.9,329.2,79.8,329.2z"/>
			<path id="XMLID_637_" class="st8" d="M48.3,312.6h19c3.1,0,5.7,2.5,5.7,5.7l0,0v6.1H36.5v-6.1l5.5-3.7
				C43.9,313.2,46.1,312.6,48.3,312.6z"/>
			<path id="XMLID_636_" class="st29" d="M71.6,322.9v-4.7c0-2.3-1.9-4.3-4.3-4.3h-19c-2,0-3.9,0.6-5.5,1.7l-4.9,3.3v3.9H71.6z"/>
			<path id="XMLID_635_" class="st16" d="M71.6,322.9v-4.7c0-2.3-1.9-4.3-4.3-4.3h-4.9v8.9H71.6z"/>
			<path id="XMLID_634_" class="st8" d="M29.3,326.7h48.2c2.3,0,4.3-1.9,4.3-4.3v0c0-2.3-1.9-4.3-4.3-4.3H29.3
				c-2.3,0-4.3,1.9-4.3,4.3v0C25,324.8,26.9,326.7,29.3,326.7z"/>
			
				<rect id="XMLID_633_" x="61.1" y="312.6" transform="matrix(-1 4.234734e-11 -4.234734e-11 -1 123.5684 630.789)" class="st8" width="1.4" height="5.7"/>
			
				<rect id="XMLID_632_" x="51.4" y="312.6" transform="matrix(-1 4.234734e-11 -4.234734e-11 -1 104.2304 630.789)" class="st8" width="1.4" height="5.7"/>
			<path id="XMLID_631_" class="st26" d="M80.5,320.4c0.2,0,0.5,0.1,0.7,0.1c0.3,0.6,0.5,1.3,0.5,2s-0.2,1.4-0.5,2
				c-0.2,0.1-0.5,0.1-0.7,0.1c-1.2,0-2.1-1-2.1-2.1S79.3,320.4,80.5,320.4z"/>
			<path id="XMLID_630_" class="st26" d="M26.2,320.4c-0.2,0-0.5,0.1-0.7,0.1c-0.3,0.6-0.5,1.3-0.5,2s0.2,1.4,0.5,2
				c0.2,0.1,0.5,0.1,0.7,0.1c1.2,0,2.1-1,2.1-2.1S27.4,320.4,26.2,320.4z"/>
		</g>
		<g id="XMLID_618_">
			<path id="XMLID_628_" class="st28" d="M773.5,320h-53c-1,0-1.9-0.8-1.9-1.9v0c0-1,0.8-1.9,1.9-1.9h53c1,0,1.9,0.8,1.9,1.9v0
				C775.4,319.2,774.5,320,773.5,320z"/>
			<path id="XMLID_627_" class="st8" d="M742,303.4h19c3.1,0,5.7,2.5,5.7,5.7l0,0v6.1h-36.6v-6.1l5.5-3.7
				C737.5,304.1,739.7,303.4,742,303.4z"/>
			<path id="XMLID_626_" class="st26" d="M765.3,313.8v-4.7c0-2.3-1.9-4.3-4.3-4.3h-19c-2,0-3.9,0.6-5.5,1.7l-4.9,3.3v3.9H765.3z"/>
			<path id="XMLID_4247_" class="st26" d="M765.3,313.8v-4.7c0-2.3-1.9-4.3-4.3-4.3h-5.6v8.9H765.3z"/>
			<path id="XMLID_625_" class="st8" d="M722.9,317.6h48.2c2.3,0,4.3-1.9,4.3-4.3l0,0c0-2.3-1.9-4.3-4.3-4.3h-48.2
				c-2.3,0-4.3,1.9-4.3,4.3l0,0C718.7,315.7,720.6,317.6,722.9,317.6z"/>
			
				<rect id="XMLID_624_" x="754.7" y="303.4" transform="matrix(-1 1.347419e-10 -1.347419e-10 -1 1510.8945 612.5007)" class="st8" width="1.4" height="5.7"/>
			
				<rect id="XMLID_621_" x="745.1" y="303.4" transform="matrix(-1 1.341002e-10 -1.341002e-10 -1 1491.5565 612.5007)" class="st8" width="1.4" height="5.7"/>
			<path id="XMLID_620_" class="st26" d="M774.2,311.2c0.2,0,0.5,0.1,0.7,0.1c0.3,0.6,0.5,1.3,0.5,2s-0.2,1.4-0.5,2
				c-0.2,0.1-0.5,0.1-0.7,0.1c-1.2,0-2.1-1-2.1-2.1S773,311.2,774.2,311.2z"/>
			<path id="XMLID_619_" class="st26" d="M719.9,311.2c-0.2,0-0.5,0.1-0.7,0.1c-0.3,0.6-0.5,1.3-0.5,2s0.2,1.4,0.5,2
				c0.2,0.1,0.5,0.1,0.7,0.1c1.2,0,2.1-1,2.1-2.1S721.1,311.2,719.9,311.2z"/>
		</g>
		<g id="XMLID_608_">
			<path id="XMLID_617_" class="st28" d="M817.4,195.9h-53c-1,0-1.9-0.8-1.9-1.9v0c0-1,0.8-1.9,1.9-1.9h53c1,0,1.9,0.8,1.9,1.9v0
				C819.3,195.1,818.4,195.9,817.4,195.9z"/>
			<path id="XMLID_616_" class="st11" d="M785.9,179.3h19c3.1,0,5.7,2.5,5.7,5.7v0v6.1H774V185l5.5-3.7
				C781.4,180,783.6,179.3,785.9,179.3z"/>
			<path id="XMLID_615_" class="st26" d="M809.2,189.7V185c0-2.3-1.9-4.3-4.3-4.3h-19c-2,0-3.9,0.6-5.5,1.7l-4.9,3.3v3.9H809.2z"/>
			<path id="XMLID_4248_" class="st26" d="M789.7,189.7v-8.9h-3.8c-2,0-3.9,0.6-5.5,1.7l-4.9,3.3v3.9H789.7z"/>
			<path id="XMLID_613_" class="st11" d="M766.8,193.5H815c2.3,0,4.3-1.9,4.3-4.3l0,0c0-2.3-1.9-4.3-4.3-4.3h-48.2
				c-2.3,0-4.3,1.9-4.3,4.3l0,0C762.6,191.6,764.5,193.5,766.8,193.5z"/>
			
				<rect id="XMLID_612_" x="798.6" y="179.3" transform="matrix(-1 1.341002e-10 -1.341002e-10 -1 1598.6956 364.3302)" class="st11" width="1.4" height="5.7"/>
			
				<rect id="XMLID_611_" x="789" y="179.3" transform="matrix(-1 1.341002e-10 -1.341002e-10 -1 1579.3577 364.3302)" class="st11" width="1.4" height="5.7"/>
			<path id="XMLID_610_" class="st26" d="M818.1,187.1c0.2,0,0.5,0.1,0.7,0.1c0.3,0.6,0.5,1.3,0.5,2s-0.2,1.4-0.5,2
				c-0.2,0.1-0.5,0.1-0.7,0.1c-1.2,0-2.1-1-2.1-2.1S816.9,187.1,818.1,187.1z"/>
			<path id="XMLID_609_" class="st26" d="M763.8,187.1c-0.2,0-0.5,0.1-0.7,0.1c-0.3,0.6-0.5,1.3-0.5,2s0.2,1.4,0.5,2
				c0.2,0.1,0.5,0.1,0.7,0.1c1.2,0,2.1-1,2.1-2.1S765,187.1,763.8,187.1z"/>
		</g>
		<g id="XMLID_575_">
			<path id="XMLID_607_" class="st28" d="M131.1,208.2h53c1,0,1.9-0.8,1.9-1.9v0c0-1-0.8-1.9-1.9-1.9h-53c-1,0-1.9,0.8-1.9,1.9v0
				C129.2,207.4,130,208.2,131.1,208.2z"/>
			<path id="XMLID_605_" class="st1" d="M162.6,191.6h-19c-3.1,0-5.7,2.5-5.7,5.7l0,0v6.1h36.6v-6.1l-5.5-3.7
				C167,192.3,164.8,191.6,162.6,191.6z"/>
			<path id="XMLID_604_" class="st26" d="M139.3,201.9v-4.7c0-2.3,1.9-4.3,4.3-4.3h19c2,0,3.9,0.6,5.5,1.7l4.9,3.3v3.9H139.3z"/>
			<path id="XMLID_596_" class="st1" d="M181.6,205.8h-48.2c-2.3,0-4.3-1.9-4.3-4.3l0,0c0-2.3,1.9-4.3,4.3-4.3h48.2
				c2.3,0,4.3,1.9,4.3,4.3l0,0C185.9,203.9,184,205.8,181.6,205.8z"/>
			<rect id="XMLID_595_" x="148.4" y="191.6" class="st1" width="1.4" height="5.7"/>
			<rect id="XMLID_593_" x="158.1" y="191.6" class="st1" width="1.4" height="5.7"/>
			<path id="XMLID_592_" class="st26" d="M130.4,199.4c-0.2,0-0.5,0.1-0.7,0.1c-0.3,0.6-0.5,1.3-0.5,2s0.2,1.4,0.5,2
				c0.2,0.1,0.5,0.1,0.7,0.1c1.2,0,2.1-1,2.1-2.1S131.6,199.4,130.4,199.4z"/>
			<path id="XMLID_591_" class="st26" d="M184.7,199.4c0.2,0,0.5,0.1,0.7,0.1c0.3,0.6,0.5,1.3,0.5,2s-0.2,1.4-0.5,2
				c-0.2,0.1-0.5,0.1-0.7,0.1c-1.2,0-2.1-1-2.1-2.1S183.5,199.4,184.7,199.4z"/>
			<rect id="XMLID_584_" x="149.8" y="193" class="st26" width="8.2" height="4.3"/>
		</g>
		<g id="XMLID_555_">
			<g id="XMLID_563_">
				<path id="XMLID_574_" class="st28" d="M502.6,332.2h53c1,0,1.9-0.8,1.9-1.9v0c0-1-0.8-1.9-1.9-1.9h-53c-1,0-1.9,0.8-1.9,1.9v0
					C500.7,331.4,501.5,332.2,502.6,332.2z"/>
				<path id="XMLID_573_" class="st1" d="M534.1,315.6h-19c-3.1,0-5.7,2.5-5.7,5.7l0,0v6.1H546v-6.1l-5.5-3.7
					C538.6,316.3,536.3,315.6,534.1,315.6z"/>
				<path id="XMLID_571_" class="st26" d="M510.8,325.9v-4.7c0-2.3,1.9-4.3,4.3-4.3h19c2,0,3.9,0.6,5.5,1.7l4.9,3.3v3.9H510.8z"/>
				<path id="XMLID_4244_" class="st26" d="M530.3,325.9V317h3.8c2,0,3.9,0.6,5.5,1.7l4.9,3.3v3.9H530.3z"/>
				<path id="XMLID_568_" class="st1" d="M553.1,329.8H505c-2.3,0-4.3-1.9-4.3-4.3l0,0c0-2.3,1.9-4.3,4.3-4.3h48.2
					c2.3,0,4.3,1.9,4.3,4.3l0,0C557.4,327.9,555.5,329.8,553.1,329.8z"/>
				<rect id="XMLID_567_" x="519.9" y="315.6" class="st1" width="1.4" height="5.7"/>
				<rect id="XMLID_566_" x="529.6" y="315.6" class="st1" width="1.4" height="5.7"/>
				<path id="XMLID_565_" class="st26" d="M501.9,323.4c-0.2,0-0.5,0.1-0.7,0.1c-0.3,0.6-0.5,1.3-0.5,2s0.2,1.4,0.5,2
					c0.2,0.1,0.5,0.1,0.7,0.1c1.2,0,2.1-1,2.1-2.1S503.1,323.4,501.9,323.4z"/>
				<path id="XMLID_564_" class="st26" d="M556.2,323.4c0.2,0,0.5,0.1,0.7,0.1c0.3,0.6,0.5,1.3,0.5,2s-0.2,1.4-0.5,2
					c-0.2,0.1-0.5,0.1-0.7,0.1c-1.2,0-2.1-1-2.1-2.1S555,323.4,556.2,323.4z"/>
			</g>
			<g id="XMLID_556_">
				<rect id="XMLID_562_" x="481.2" y="310.8" class="st1" width="9.6" height="23.5"/>
				<polyline id="XMLID_561_" class="st30" points="501.7,325.5 497.5,325.5 497.5,331.4 494.2,331.4 494.2,325.5 490.7,325.5 				
					"/>
				<rect id="XMLID_560_" x="482.6" y="312.2" class="st8" width="6.8" height="6.8"/>
				<rect id="XMLID_559_" x="481.2" y="332.2" class="st8" width="9.6" height="2.1"/>
				<polygon id="XMLID_558_" class="st1" points="486,312.9 484.8,315.6 486,315.6 				"/>
				<polygon id="XMLID_557_" class="st1" points="486,318.3 487.1,315.6 486,315.6 				"/>
			</g>
		</g>
		<g id="XMLID_552_">
			<path id="XMLID_554_" class="st1" d="M381,248.8h-16c0-4.4,3.6-8,8-8C377.4,240.8,381,244.4,381,248.8z"/>
			<path id="XMLID_553_" class="st1" d="M369,248.8h-10.1c0-2.8,2.3-5,5-5S369,246,369,248.8z"/>
		</g>
		<g id="XMLID_549_">
			<path id="XMLID_551_" class="st1" d="M457.9,246h-16c0-4.4,3.6-8,8-8C454.3,238,457.9,241.5,457.9,246z"/>
			<path id="XMLID_550_" class="st1" d="M445.9,246h-10.1c0-2.8,2.3-5,5-5C443.7,240.9,445.9,243.2,445.9,246z"/>
		</g>
		<g id="XMLID_546_">
			<path id="XMLID_548_" class="st1" d="M483.5,282.6h-16c0-4.4,3.6-8,8-8S483.5,278.1,483.5,282.6z"/>
			<path id="XMLID_547_" class="st1" d="M471.6,282.6h-10.1c0-2.8,2.3-5,5-5S471.6,279.8,471.6,282.6z"/>
		</g>
		<g id="XMLID_543_">
			<path id="XMLID_545_" class="st1" d="M758.8,263.3h-27.7c0-7.7,6.2-13.9,13.9-13.9S758.8,255.7,758.8,263.3z"/>
			<path id="XMLID_544_" class="st1" d="M738.1,263.3h-17.5c0-4.8,3.9-8.7,8.7-8.7C734.2,254.6,738.1,258.5,738.1,263.3z"/>
		</g>
		<g id="XMLID_536_">
			<path id="XMLID_542_" class="st1" d="M613.5,80.3h-16c0-4.4,3.6-8,8-8S613.5,75.9,613.5,80.3z"/>
			<path id="XMLID_538_" class="st1" d="M601.5,80.3h-10.1c0-2.8,2.3-5,5-5S601.5,77.5,601.5,80.3z"/>
		</g>
		<g id="XMLID_533_">
			<path id="XMLID_535_" class="st1" d="M807.6,80.3h-16c0-4.4,3.6-8,8-8C804,72.3,807.6,75.9,807.6,80.3z"/>
			<path id="XMLID_534_" class="st1" d="M795.6,80.3h-10.1c0-2.8,2.3-5,5-5S795.6,77.5,795.6,80.3z"/>
		</g>
		<g id="XMLID_528_">
			<path id="XMLID_532_" class="st1" d="M724.7,80.3h-20.9c0-5.8,4.7-10.4,10.4-10.4C720.1,69.9,724.7,74.6,724.7,80.3z"/>
			<path id="XMLID_531_" class="st1" d="M709.1,80.3H696c0-3.6,2.9-6.6,6.6-6.6S709.1,76.7,709.1,80.3z"/>
			<path id="XMLID_530_" class="st1" d="M731.5,80.3h-11c0-3,2.5-5.5,5.5-5.5S731.5,77.3,731.5,80.3z"/>
		</g>
		<g id="XMLID_522_">
			<path id="XMLID_524_" class="st1" d="M172.6,89.8h-16c0-4.4,3.6-8,8-8S172.6,85.4,172.6,89.8z"/>
			<path id="XMLID_523_" class="st1" d="M160.6,89.8h-10.1c0-2.8,2.3-5,5-5S160.6,87,160.6,89.8z"/>
		</g>
		<g id="XMLID_518_">
			<path id="XMLID_520_" class="st19" d="M263.6,89.8h-16c0-4.4,3.6-8,8-8C260.1,81.8,263.6,85.4,263.6,89.8z"/>
			<path id="XMLID_519_" class="st19" d="M251.7,89.8h-10.1c0-2.8,2.3-5,5-5C249.4,84.8,251.7,87,251.7,89.8z"/>
		</g>
		<g id="XMLID_515_">
			<path id="XMLID_517_" class="st19" d="M48.6,89.8h-16c0-4.4,3.6-8,8-8S48.6,85.4,48.6,89.8z"/>
			<path id="XMLID_516_" class="st19" d="M36.7,89.8H26.6c0-2.8,2.3-5,5-5S36.7,87,36.7,89.8z"/>
		</g>
		<g id="XMLID_512_">
			<path id="XMLID_514_" class="st19" d="M512.4,353.5h-16c0-4.4,3.6-8,8-8C508.8,345.5,512.4,349.1,512.4,353.5z"/>
			<path id="XMLID_513_" class="st19" d="M500.4,353.5h-10.1c0-2.8,2.3-5,5-5S500.4,350.7,500.4,353.5z"/>
		</g>
		<g id="XMLID_508_">
			<path id="XMLID_511_" class="st19" d="M194.6,353.5H170c0-6.8,5.5-12.3,12.3-12.3C189.1,341.2,194.6,346.7,194.6,353.5z"/>
			<path id="XMLID_510_" class="st19" d="M176.2,353.5h-15.5c0-4.3,3.5-7.7,7.7-7.7C172.7,345.8,176.2,349.2,176.2,353.5z"/>
			<path id="XMLID_509_" class="st19" d="M201.6,353.5h-12.2c0-3.4,2.7-6.1,6.1-6.1C198.8,347.4,201.6,350.1,201.6,353.5z"/>
		</g>
		<g id="XMLID_504_">
			<path id="XMLID_507_" class="st19" d="M794.9,353.5h-19.6c0-5.4,4.4-9.8,9.8-9.8C790.5,343.7,794.9,348.1,794.9,353.5z"/>
			<path id="XMLID_506_" class="st19" d="M780.2,353.5h-12.3c0-3.4,2.8-6.2,6.2-6.2S780.2,350.1,780.2,353.5z"/>
			<path id="XMLID_505_" class="st19" d="M800.5,353.5h-9.7c0-2.7,2.2-4.9,4.9-4.9S800.5,350.8,800.5,353.5z"/>
		</g>
		<g id="XMLID_499_">
			<rect id="XMLID_503_" x="151.2" y="164.3" class="st1" width="9.6" height="23.5"/>
			<polyline id="XMLID_502_" class="st30" points="151.2,168.7 148.5,168.7 148.5,183.1 151.2,183.1 			"/>
			
				<rect id="XMLID_501_" x="152.6" y="165.7" transform="matrix(-1 -4.439838e-11 4.439838e-11 -1 311.9008 338.1441)" class="st8" width="6.8" height="6.8"/>
			
				<rect id="XMLID_500_" x="151.2" y="185.7" transform="matrix(-1 -4.499169e-11 4.499169e-11 -1 311.9008 373.5211)" class="st8" width="9.6" height="2.1"/>
			<polygon id="XMLID_603_" class="st1" points="156,166.4 154.8,169.1 156,169.1 			"/>
			<polygon id="XMLID_602_" class="st1" points="156,171.8 157.1,169.1 156,169.1 			"/>
		</g>
		<g id="XMLID_493_">
			<rect id="XMLID_498_" x="420" y="135.6" class="st1" width="9.6" height="23.5"/>
			<polyline id="XMLID_497_" class="st30" points="429.5,140.1 432.2,140.1 432.2,154.4 429.5,154.4 			"/>
			<rect id="XMLID_495_" x="421.4" y="137" class="st8" width="6.8" height="6.8"/>
			<rect id="XMLID_494_" x="420" y="157.1" class="st8" width="9.6" height="2.1"/>
			<polygon id="XMLID_601_" class="st1" points="424.8,137.7 423.7,140.4 424.8,140.4 			"/>
			<polygon id="XMLID_600_" class="st1" points="424.8,143.1 425.9,140.4 424.8,140.4 			"/>
		</g>
		<g id="XMLID_488_">
			<rect id="XMLID_492_" x="747.4" y="164.3" class="st1" width="9.6" height="23.5"/>
			<polyline id="XMLID_491_" class="st30" points="747.4,168.7 744.7,168.7 744.7,183.1 747.4,183.1 			"/>
			
				<rect id="XMLID_490_" x="748.8" y="165.7" transform="matrix(-1 -4.439838e-11 4.439838e-11 -1 1504.3849 338.1441)" class="st8" width="6.8" height="6.8"/>
			
				<rect id="XMLID_489_" x="747.4" y="185.7" transform="matrix(-1 -4.499169e-11 4.499169e-11 -1 1504.3849 373.5211)" class="st8" width="9.6" height="2.1"/>
			<polygon id="XMLID_599_" class="st1" points="752.4,166.4 751.3,169.1 752.4,169.1 			"/>
			<polygon id="XMLID_537_" class="st1" points="752.4,171.8 753.5,169.1 752.4,169.1 			"/>
		</g>
		<g id="XMLID_911_">
			<polyline id="XMLID_487_" class="st17" points="722.4,187.8 722.4,216.5 718.1,216.5 718.1,187.8 			"/>
			<rect id="XMLID_486_" x="701.9" y="183.5" class="st17" width="36.7" height="4.3"/>
			<g id="XMLID_835_">
				<polygon id="XMLID_937_" class="st1" points="701.9,146.9 701.9,183.5 738.6,183.5 738.6,146.9 				"/>
				<g id="XMLID_836_">
					<path class="st8" d="M730,155.5c-2.7-2.7-6.2-4-9.7-4h-13.7v13.7l0,0c0,3.5,1.3,7,4,9.7c5.4,5.4,14.1,5.4,19.4,0
						C735.3,169.5,735.3,160.8,730,155.5z"/>
					<path class="st14" d="M733.1,160.3l-12.9,4.9l13.7,13.7v-13.7C734,163.5,733.7,161.8,733.1,160.3z"/>
					<path id="XMLID_936_" class="st11" d="M706.5,160v5.2c0,1.6,0.3,3.3,0.9,4.9l12.9-4.9L706.5,160z"/>
					<circle id="XMLID_935_" class="st1" cx="720.2" cy="165.2" r="7.1"/>
					<circle id="XMLID_934_" class="st14" cx="720.2" cy="165.2" r="2.6"/>
				</g>
			</g>
		</g>
		<g id="XMLID_480_">
			<rect id="XMLID_590_" x="787.8" y="310.8" class="st1" width="9.6" height="23.5"/>
			<polyline id="XMLID_589_" class="st30" points="787.8,315.2 785.2,315.2 785.2,329.6 787.8,329.6 			"/>
			
				<rect id="XMLID_588_" x="789.2" y="312.2" transform="matrix(-1 -4.601265e-11 4.601265e-11 -1 1585.2144 631.1001)" class="st8" width="6.8" height="6.8"/>
			
				<rect id="XMLID_585_" x="787.8" y="332.2" transform="matrix(-1 -4.508717e-11 4.508717e-11 -1 1585.2144 666.4771)" class="st8" width="9.6" height="2.1"/>
			<polygon id="XMLID_529_" class="st1" points="792.6,312.9 791.5,315.6 792.6,315.6 			"/>
			<polygon id="XMLID_527_" class="st1" points="792.6,318.2 793.7,315.6 792.6,315.6 			"/>
		</g>
		<g id="XMLID_1322_">
			<g id="XMLID_1258_">
				<rect id="XMLID_1266_" x="594.6" y="323.7" class="st11" width="1.8" height="8.4"/>
				<circle id="XMLID_1265_" class="st12" cx="595.6" cy="320.8" r="6.4"/>
				<path id="XMLID_1264_" class="st31" d="M602,320.8c0,3.6-2.9,6.4-6.4,6.4v-12.9C599.1,314.3,602,317.2,602,320.8z"/>
				<circle id="XMLID_1263_" class="st12" cx="595.6" cy="314.3" r="4.3"/>
				<path id="XMLID_1262_" class="st31" d="M599.8,314.3c0,2.4-1.9,4.3-4.3,4.3v-8.6C597.9,310.1,599.8,312,599.8,314.3z"/>
				<circle id="XMLID_1261_" class="st12" cx="595.6" cy="310.1" r="2.1"/>
				<path id="XMLID_1259_" class="st31" d="M597.7,310.1c0,1.2-1,2.1-2.1,2.1v-4.3C596.7,307.9,597.7,308.9,597.7,310.1z"/>
			</g>
			<g id="XMLID_1254_">
				<rect id="XMLID_1257_" x="607.6" y="323.7" class="st11" width="1.8" height="8.4"/>
				<circle id="XMLID_1256_" class="st12" cx="608.6" cy="318.9" r="8.3"/>
				<path id="XMLID_1255_" class="st31" d="M616.8,318.9c0,4.6-3.7,8.3-8.3,8.3v-16.5C613.1,310.7,616.8,314.4,616.8,318.9z"/>
			</g>
			<g id="XMLID_1267_">
				<rect id="XMLID_1270_" x="625.5" y="323.7" class="st11" width="1.8" height="8.4"/>
				<polygon id="XMLID_1271_" class="st12" points="626.4,309.2 620.2,327.2 632.7,327.2 				"/>
				<polygon id="XMLID_681_" class="st31" points="626.4,309.2 626.4,327.2 632.7,327.2 				"/>
			</g>
			<rect id="XMLID_1323_" x="589.1" y="332" class="st12" width="43.5" height="2.3"/>
		</g>
		<g id="XMLID_478_">
			<g id="XMLID_1698_">
				<rect id="XMLID_1705_" x="667.3" y="323.7" class="st11" width="1.8" height="8.4"/>
				<circle id="XMLID_1704_" class="st12" cx="668.2" cy="320.8" r="6.4"/>
				<path id="XMLID_1703_" class="st31" d="M674.7,320.8c0,3.6-2.9,6.4-6.4,6.4v-12.9C671.8,314.3,674.7,317.2,674.7,320.8z"/>
				<circle id="XMLID_1702_" class="st12" cx="668.2" cy="314.3" r="4.3"/>
				<path id="XMLID_1701_" class="st31" d="M672.5,314.3c0,2.4-1.9,4.3-4.3,4.3v-8.6C670.6,310.1,672.5,312,672.5,314.3z"/>
				<circle id="XMLID_1700_" class="st12" cx="668.2" cy="310.1" r="2.1"/>
				<path id="XMLID_1699_" class="st31" d="M670.4,310.1c0,1.2-1,2.1-2.1,2.1v-4.3C669.4,307.9,670.4,308.9,670.4,310.1z"/>
			</g>
			<g id="XMLID_704_">
				<rect id="XMLID_1697_" x="684.3" y="323.7" class="st11" width="1.8" height="8.4"/>
				<circle id="XMLID_1696_" class="st12" cx="685.2" cy="318.9" r="8.3"/>
				<path id="XMLID_1695_" class="st31" d="M693.5,318.9c0,4.6-3.7,8.3-8.3,8.3v-16.5C689.8,310.7,693.5,314.4,693.5,318.9z"/>
			</g>
			<g id="XMLID_539_">
				<rect id="XMLID_703_" x="698.2" y="323.7" class="st11" width="1.8" height="8.4"/>
				<polygon id="XMLID_541_" class="st12" points="699.1,309.2 692.8,327.2 705.4,327.2 				"/>
				<polygon id="XMLID_540_" class="st31" points="699.1,309.2 699.1,327.2 705.4,327.2 				"/>
			</g>
			<rect id="XMLID_479_" x="661.8" y="332" class="st12" width="43.5" height="2.3"/>
		</g>
		<g id="XMLID_1295_">
			<rect id="XMLID_1334_" x="270.5" y="326.9" class="st11" width="12.7" height="5.2"/>
			<g id="XMLID_471_">
				<rect id="XMLID_477_" x="334.9" y="323.6" class="st11" width="1.8" height="8.4"/>
				<circle id="XMLID_476_" class="st12" cx="335.9" cy="320.6" r="6.4"/>
				<path id="XMLID_475_" class="st31" d="M342.3,320.6c0,3.6-2.9,6.4-6.4,6.4v-12.9C339.4,314.2,342.3,317.1,342.3,320.6z"/>
				<circle id="XMLID_474_" class="st12" cx="335.9" cy="314.2" r="4.3"/>
				<path id="XMLID_473_" class="st31" d="M340.1,314.2c0,2.4-1.9,4.3-4.3,4.3v-8.6C338.2,309.9,340.1,311.8,340.1,314.2z"/>
				<circle id="XMLID_606_" class="st12" cx="335.9" cy="309.9" r="2.1"/>
				<path id="XMLID_472_" class="st31" d="M338,309.9c0,1.2-1,2.1-2.1,2.1v-4.3C337,307.8,338,308.7,338,309.9z"/>
			</g>
			<g id="XMLID_470_">
				<rect id="XMLID_597_" x="347.9" y="323.6" class="st11" width="1.8" height="8.4"/>
				<circle id="XMLID_594_" class="st12" cx="348.9" cy="318.8" r="8.3"/>
				<path id="XMLID_598_" class="st31" d="M357.1,318.8c0,4.6-3.7,8.3-8.3,8.3v-16.5C353.4,310.5,357.1,314.2,357.1,318.8z"/>
			</g>
			<g id="XMLID_1269_">
				<rect id="XMLID_1285_" x="256.1" y="323.6" class="st11" width="1.8" height="8.4"/>
				<polygon id="XMLID_1284_" class="st12" points="257,309 250.8,327 263.3,327 				"/>
				<polygon id="XMLID_1272_" class="st31" points="257,309 257,327 263.3,327 				"/>
			</g>
			<rect id="XMLID_1296_" x="250.8" y="332" class="st12" width="106.4" height="2.3"/>
			<rect id="XMLID_1336_" x="270.5" y="326.9" class="st32" width="12.7" height="2.6"/>
			<rect id="XMLID_1338_" x="310" y="326.9" class="st11" width="12.7" height="5.2"/>
			<rect id="XMLID_1337_" x="310" y="326.9" class="st32" width="12.7" height="2.6"/>
		</g>
		<g id="XMLID_1061_">
			<rect id="XMLID_1268_" x="61.8" y="179.4" class="st11" width="1.8" height="8.4"/>
			<circle id="XMLID_1121_" class="st12" cx="62.7" cy="174.6" r="8.3"/>
			<path id="XMLID_1119_" class="st28" d="M71,174.6c0,4.6-3.7,8.3-8.3,8.3v-16.5C67.3,166.3,71,170,71,174.6z"/>
		</g>
		<g id="XMLID_1332_">
			<g id="XMLID_1187_">
				<rect id="XMLID_1244_" x="399" y="177.1" class="st11" width="1.8" height="8.4"/>
				<circle id="XMLID_1243_" class="st12" cx="399.9" cy="174.1" r="6.4"/>
				<path id="XMLID_1242_" class="st28" d="M406.3,174.1c0,3.6-2.9,6.4-6.4,6.4v-12.9C403.4,167.7,406.3,170.6,406.3,174.1z"/>
				<circle id="XMLID_1241_" class="st12" cx="399.9" cy="167.7" r="4.3"/>
				<path id="XMLID_1240_" class="st28" d="M404.2,167.7c0,2.4-1.9,4.3-4.3,4.3v-8.6C402.3,163.4,404.2,165.3,404.2,167.7z"/>
				<circle id="XMLID_1239_" class="st12" cx="399.9" cy="163.4" r="2.1"/>
				<path id="XMLID_1238_" class="st28" d="M402,163.4c0,1.2-1,2.1-2.1,2.1v-4.3C401.1,161.3,402,162.2,402,163.4z"/>
			</g>
			<g id="XMLID_1124_">
				<rect id="XMLID_1132_" x="412" y="177.1" class="st11" width="1.8" height="8.4"/>
				<circle id="XMLID_1129_" class="st12" cx="412.9" cy="172.3" r="8.3"/>
				<path id="XMLID_1126_" class="st28" d="M421.2,172.3c0,4.6-3.7,8.3-8.3,8.3V164C417.5,164,421.2,167.7,421.2,172.3z"/>
			</g>
			<rect id="XMLID_1333_" x="393.5" y="185.6" class="st12" width="27.7" height="2.3"/>
		</g>
		<g id="XMLID_1324_">
			<g id="XMLID_686_">
				<rect id="XMLID_718_" x="595.6" y="177.1" class="st11" width="1.8" height="8.4"/>
				<circle id="XMLID_469_" class="st12" cx="596.5" cy="174.1" r="6.4"/>
				<path id="XMLID_714_" class="st28" d="M603,174.1c0,3.6-2.9,6.4-6.4,6.4v-12.9C600.1,167.7,603,170.6,603,174.1z"/>
				<circle id="XMLID_702_" class="st12" cx="596.5" cy="167.7" r="4.3"/>
				<path id="XMLID_689_" class="st28" d="M600.8,167.7c0,2.4-1.9,4.3-4.3,4.3v-8.6C598.9,163.4,600.8,165.3,600.8,167.7z"/>
				<circle id="XMLID_688_" class="st12" cx="596.5" cy="163.4" r="2.1"/>
				<path id="XMLID_687_" class="st28" d="M598.7,163.4c0,1.2-1,2.1-2.1,2.1v-4.3C597.7,161.3,598.7,162.2,598.7,163.4z"/>
			</g>
			<g id="XMLID_682_">
				<rect id="XMLID_685_" x="608.6" y="177.1" class="st11" width="1.8" height="8.4"/>
				<circle id="XMLID_684_" class="st12" cx="609.5" cy="172.3" r="8.3"/>
				<path id="XMLID_683_" class="st28" d="M617.8,172.3c0,4.6-3.7,8.3-8.3,8.3V164C614.1,164,617.8,167.7,617.8,172.3z"/>
			</g>
			<rect id="XMLID_1325_" x="590.1" y="185.6" class="st12" width="27.7" height="2.3"/>
		</g>
		<g id="XMLID_1245_">
			<path id="XMLID_1253_" class="st28" d="M469,165.8h-53c-1,0-1.9-0.8-1.9-1.9v0c0-1,0.8-1.9,1.9-1.9h53c1,0,1.9,0.8,1.9,1.9v0
				C470.9,165,470,165.8,469,165.8z"/>
			<path id="XMLID_1252_" class="st8" d="M437.5,149.2h19c3.1,0,5.7,2.5,5.7,5.7v0v6.1h-36.6v-6.1l5.5-3.7
				C433,149.9,435.2,149.2,437.5,149.2z"/>
			<path id="XMLID_1251_" class="st12" d="M460.7,159.6v-4.7c0-2.3-1.9-4.3-4.3-4.3h-19c-2,0-3.9,0.6-5.5,1.7l-4.9,3.3v3.9H460.7z"
				/>
			<path id="XMLID_1250_" class="st8" d="M418.4,163.4h48.2c2.3,0,4.3-1.9,4.3-4.3v0c0-2.3-1.9-4.3-4.3-4.3h-48.2
				c-2.3,0-4.3,1.9-4.3,4.3v0C414.2,161.5,416.1,163.4,418.4,163.4z"/>
			
				<rect id="XMLID_1249_" x="450.2" y="149.2" transform="matrix(-1 1.334585e-10 -1.334585e-10 -1 901.8423 304.163)" class="st8" width="1.4" height="5.7"/>
			
				<rect id="XMLID_1248_" x="440.5" y="149.2" transform="matrix(-1 1.341002e-10 -1.341002e-10 -1 882.5043 304.163)" class="st8" width="1.4" height="5.7"/>
			<path id="XMLID_1247_" class="st26" d="M469.6,157c0.2,0,0.5,0.1,0.7,0.1c0.3,0.6,0.5,1.3,0.5,2s-0.2,1.4-0.5,2
				c-0.2,0.1-0.5,0.1-0.7,0.1c-1.2,0-2.1-1-2.1-2.1S468.5,157,469.6,157z"/>
			<path id="XMLID_1246_" class="st26" d="M415.4,157c-0.2,0-0.5,0.1-0.7,0.1c-0.3,0.6-0.5,1.3-0.5,2s0.2,1.4,0.5,2
				c0.2,0.1,0.5,0.1,0.7,0.1c1.2,0,2.1-1,2.1-2.1S416.6,157,415.4,157z"/>
		</g>
		<g id="XMLID_1328_">
			<g id="XMLID_764_">
				<rect id="XMLID_1056_" x="671.5" y="177.1" class="st11" width="1.8" height="8.4"/>
				<polygon id="XMLID_1055_" class="st12" points="672.4,162.6 666.1,180.6 678.6,180.6 				"/>
				<polygon id="XMLID_769_" class="st28" points="672.4,162.6 672.4,180.6 678.6,180.6 				"/>
			</g>
			<g id="XMLID_719_">
				<rect id="XMLID_760_" x="686.5" y="177.1" class="st11" width="1.8" height="8.4"/>
				<circle id="XMLID_468_" class="st12" cx="687.4" cy="172.3" r="8.3"/>
				<path id="XMLID_467_" class="st28" d="M695.6,172.3c0,4.6-3.7,8.3-8.3,8.3V164C691.9,164,695.6,167.7,695.6,172.3z"/>
			</g>
			<rect id="XMLID_1329_" x="666.1" y="185.6" class="st12" width="29.5" height="2.3"/>
		</g>
		<g id="XMLID_586_">
			<rect id="XMLID_1289_" x="43.7" y="163.6" class="st11" width="1.1" height="22.6"/>
			<g id="XMLID_1291_">
				<circle id="XMLID_466_" class="st1" cx="44.2" cy="163.6" r="1.6"/>
				<path id="XMLID_581_" class="st1" d="M44.2,163.6L44.2,163.6c-0.4-0.1-0.7-0.4-0.6-0.8l1.7-11.1c0.1-0.4,0.4-0.7,0.8-0.6l0,0
					c0.4,0.1,0.7,0.4,0.6,0.8L45,163C44.9,163.4,44.6,163.7,44.2,163.6z"/>
				<path id="XMLID_1288_" class="st1" d="M44.2,163.6L44.2,163.6c0.2-0.3,0.7-0.4,1-0.1l8.8,7.1c0.3,0.2,0.4,0.7,0.1,1l0,0
					c-0.2,0.3-0.7,0.4-1,0.1l-8.8-7.1C44,164.4,43.9,163.9,44.2,163.6z"/>
				<path id="XMLID_587_" class="st1" d="M44.2,163.6L44.2,163.6c0.1,0.4,0,0.8-0.4,0.9l-10.5,4.1c-0.4,0.1-0.8,0-0.9-0.4l0,0
					c-0.1-0.4,0-0.8,0.4-0.9l10.5-4.1C43.6,163.1,44,163.3,44.2,163.6z"/>
			</g>
		</g>
		<g id="XMLID_4237_">
			<rect id="XMLID_4243_" x="601.4" y="193.8" class="st11" width="1.1" height="22.6"/>
			<g id="XMLID_4238_">
				<circle id="XMLID_4242_" class="st1" cx="601.9" cy="193.8" r="1.6"/>
				<path id="XMLID_4241_" class="st1" d="M601.9,193.8L601.9,193.8c-0.4-0.1-0.7-0.4-0.6-0.8l1.7-11.1c0.1-0.4,0.4-0.7,0.8-0.6l0,0
					c0.4,0.1,0.7,0.4,0.6,0.8l-1.7,11.1C602.7,193.6,602.3,193.9,601.9,193.8z"/>
				<path id="XMLID_4240_" class="st1" d="M601.9,193.8L601.9,193.8c0.2-0.3,0.7-0.4,1-0.1l8.8,7.1c0.3,0.2,0.4,0.7,0.1,1l0,0
					c-0.2,0.3-0.7,0.4-1,0.1l-8.8-7.1C601.7,194.6,601.7,194.1,601.9,193.8z"/>
				<path id="XMLID_4239_" class="st1" d="M601.9,193.8L601.9,193.8c0.1,0.4,0,0.8-0.4,0.9l-10.5,4.1c-0.4,0.1-0.8,0-0.9-0.4l0,0
					c-0.1-0.4,0-0.8,0.4-0.9l10.5-4.1C601.4,193.3,601.8,193.5,601.9,193.8z"/>
			</g>
		</g>
		<g id="XMLID_1330_">
			<g id="XMLID_463_">
				<rect id="XMLID_649_" x="470.2" y="177.1" class="st11" width="1.8" height="8.4"/>
				<circle id="XMLID_648_" class="st12" cx="471.2" cy="174.1" r="6.4"/>
				<path id="XMLID_623_" class="st28" d="M477.6,174.1c0,3.6-2.9,6.4-6.4,6.4v-12.9C474.7,167.7,477.6,170.6,477.6,174.1z"/>
				<circle id="XMLID_622_" class="st12" cx="471.2" cy="167.7" r="4.3"/>
				<path id="XMLID_614_" class="st28" d="M475.4,167.7c0,2.4-1.9,4.3-4.3,4.3v-8.6C473.5,163.4,475.4,165.3,475.4,167.7z"/>
				<circle id="XMLID_465_" class="st12" cx="471.2" cy="163.4" r="2.1"/>
				<path id="XMLID_464_" class="st28" d="M473.3,163.4c0,1.2-1,2.1-2.1,2.1v-4.3C472.3,161.3,473.3,162.2,473.3,163.4z"/>
			</g>
			<g id="XMLID_450_">
				<rect id="XMLID_462_" x="483.2" y="177.1" class="st11" width="1.8" height="8.4"/>
				<circle id="XMLID_461_" class="st12" cx="484.2" cy="172.3" r="8.3"/>
				<path id="XMLID_460_" class="st28" d="M492.4,172.3c0,4.6-3.7,8.3-8.3,8.3V164C488.7,164,492.4,167.7,492.4,172.3z"/>
			</g>
			<rect id="XMLID_1331_" x="464.7" y="185.6" class="st12" width="27.7" height="2.3"/>
		</g>
	</g>
</g>
</svg>
