<?xml version="1.0" encoding="utf-8"?>
<!-- Generator: Adobe Illustrator 23.0.1, SVG Export Plug-In . SVG Version: 6.00 Build 0)  -->
<svg version="1.1" id="图层_1" xmlns="http://www.w3.org/2000/svg" xmlns:xlink="http://www.w3.org/1999/xlink" x="0px" y="0px"
	 viewBox="0 0 1000 600" style="enable-background:new 0 0 1000 600;" xml:space="preserve">
<style type="text/css">
	.st0{fill:#F8F8F8;}
	.st1{fill:url(#SVGID_1_);}
	.st2{fill:#FFFFFF;}
	.st3{fill-rule:evenodd;clip-rule:evenodd;fill:#D8D8D8;}
	.st4{fill:none;stroke:#D8D8D8;}
	.st5{fill-rule:evenodd;clip-rule:evenodd;fill:#FFDE46;}
	.st6{fill-rule:evenodd;clip-rule:evenodd;fill:url(#Stroke-12_1_);}
	.st7{fill-rule:evenodd;clip-rule:evenodd;fill:#00D3D3;}
	.st8{fill-rule:evenodd;clip-rule:evenodd;fill:#00BBBB;}
	.st9{fill-rule:evenodd;clip-rule:evenodd;fill:url(#Stroke-20_1_);}
	.st10{fill-rule:evenodd;clip-rule:evenodd;fill:#FFA299;}
	.st11{fill-rule:evenodd;clip-rule:evenodd;fill:#FFFFFF;}
	.st12{fill-rule:evenodd;clip-rule:evenodd;fill:url(#Stroke-26_1_);}
	.st13{fill-rule:evenodd;clip-rule:evenodd;fill:url(#Stroke-35_1_);}
	.st14{fill-rule:evenodd;clip-rule:evenodd;fill:#555555;}
	.st15{fill-rule:evenodd;clip-rule:evenodd;fill:url(#Fill-43_1_);}
	.st16{fill-rule:evenodd;clip-rule:evenodd;fill:url(#Stroke-45_1_);}
	.st17{fill-rule:evenodd;clip-rule:evenodd;fill:url(#Stroke-48_1_);}
	.st18{fill-rule:evenodd;clip-rule:evenodd;fill:url(#Fill-54_1_);}
</style>
<title>图片/插图2</title>
<desc>Created with Sketch.</desc>
<g>
	<g id="b" transform="translate(289.000000, 30.000000)">
		<polygon id="Rectangle" class="st0" points="4.5,76 107,86.4 113,218 0,231.7 		"/>
		<polygon id="Rectangle-3" class="st0" points="83,315 114.9,315 122.6,363 83,363 		"/>
		<polygon class="st0" points="227.9,82.2 329.5,76 329.5,218 221,204.7 		"/>
		
			<linearGradient id="SVGID_1_" gradientUnits="userSpaceOnUse" x1="-2121.5591" y1="57.5641" x2="-2121.5591" y2="58.5644" gradientTransform="matrix(111.7578 0 0 145.1641 237585.6719 -8287.2432)">
			<stop  offset="0" style="stop-color:#EEEEEE"/>
			<stop  offset="1" style="stop-color:#F8F8F8"/>
		</linearGradient>
		<polygon class="st1" points="434.9,69 533.8,78.4 540.8,200.4 429,214.2 		"/>
		<rect id="Rectangle-2" x="83" y="76" class="st2" width="6" height="45"/>
		<path id="Oval" class="st2" d="M123,148c0-20.4-16.6-37-37-37s-37,16.6-37,37C69.8,148,106.4,148,123,148z"/>
		<rect x="83" y="50" class="st0" width="6" height="26"/>
	</g>
	<g id="c" transform="translate(723.000000, 148.000000)">
		<polygon id="Stroke-2" class="st3" points="47.9,231 51.1,346 55.2,346 58.9,231 		"/>
		<polyline id="Stroke-3" class="st4" points="15,357 17.9,346 85.8,346 88.9,357 		"/>
		<path id="Stroke-4" class="st4" d="M116.7,85.6c15.3,58.9,11.4,139.9-16.1,142.7"/>
		<path id="Fill-6" class="st5" d="M82,63.4l58.8-13.2c0,0,2.4,27.5-8.5,38.3C121.8,99,95,100.9,95,100.9L82,63.4z"/>
		<path id="Fill-8" class="st5" d="M103.2,218.8H3.9c-1.9,0-3.4,1.5-3.4,3.4v10.6c0,1.9,1.5,3.4,3.4,3.4h99.3c1.9,0,3.4-1.5,3.4-3.4
			v-10.6C106.6,220.3,105.1,218.8,103.2,218.8"/>
	</g>
	<g id="t" transform="translate(467.000000, 214.000000)">
		
			<linearGradient id="Stroke-12_1_" gradientUnits="userSpaceOnUse" x1="-2382.4963" y1="55.0153" x2="-2382.4963" y2="56.0151" gradientTransform="matrix(14.293 0 0 218.9374 34080.7734 -11968.9053)">
			<stop  offset="0" style="stop-color:#EEEEEE"/>
			<stop  offset="1" style="stop-color:#FFFFFF"/>
		</linearGradient>
		<polygon id="Stroke-12" class="st6" points="30.6,294.9 25.5,294.9 20.6,76 34.9,76 		"/>
		<polygon id="Fill-14" class="st5" points="0,81.8 279.5,81.8 279.5,68.6 0,68.6 		"/>
		<polyline id="Fill-40" class="st7" points="193,68.6 187.9,50.6 218.8,50.6 213.7,68.6 		"/>
	</g>
	<g id="f" transform="translate(637.000000, 37.000000)">
		<path id="Fill-18" class="st8" d="M139.2,258.2c0,0-68,10.7-130.2,34.3c0,0,34.4,91.9,68.8,147.2l8.2-3.4
			c0,0-13.6-59.8-33.6-108.3l102.7-9.2L139.2,258.2z"/>
		
			<linearGradient id="Stroke-20_1_" gradientUnits="userSpaceOnUse" x1="-2759.7144" y1="97.7732" x2="-2759.7144" y2="98.7739" gradientTransform="matrix(21.7042 0 0 22.9836 59974.3438 -1810.9534)">
			<stop  offset="0" style="stop-color:#EBEBEB"/>
			<stop  offset="1" style="stop-color:#FFFFFF"/>
		</linearGradient>
		<polygon id="Stroke-20" class="st9" points="77.8,439.7 86,436.2 87.8,443.4 69.6,459.2 66.1,455.5 		"/>
		<path id="Fill-21" class="st10" d="M50.6,77.5c-16.1,32.1,14.1,48.4,41.1,43.4l6,15.5l36.7-8.5l5-32.3c0,0-28.8,0.6-39.1-5
			c-10.9-5.9-18.5-30.5-18.5-30.5S57.8,63,50.6,77.5"/>
		<path id="Stroke-23" class="st11" d="M93.4,129.3c0,0,33-1.1,45.9-33.7c60.2,10.4,64.2,76.2,59.7,153.6l-62.5,11.6
			C127.3,249.7,96.2,161.5,93.4,129.3z"/>
		<path id="Fill-24" class="st10" d="M83.5,239.2c0,0-17.5,1.3-27.2,3.8v2.6l27.2,0.2V239.2z"/>
		
			<linearGradient id="Stroke-26_1_" gradientUnits="userSpaceOnUse" x1="-2818.7461" y1="62.272" x2="-2818.019" y2="62.0195" gradientTransform="matrix(116.7245 0 0 95.1078 329088.375 -5702.3042)">
			<stop  offset="0" style="stop-color:#E0E0E0"/>
			<stop  offset="1" style="stop-color:#FFFFFF"/>
		</linearGradient>
		<path id="Stroke-26" class="st12" d="M144.5,151.1c0,0,18.7,36.5,23,54.7c0,0-43.7,23.2-85,31.9l0.2,8.5c0,0,75.6-5.2,116.5-13.5"
			/>
		<path id="Fill-31" class="st7" d="M199,249.2c0,0-2.9,61.3-23.8,72.4s-50.8,10-69.4,11.4c-18.5,1.3-68.8,3.2-68.8,3.2l24.9,109.4
			l-8.5,4.2c0,0-37.8-78.4-52.9-137.9C48.1,281.2,125.4,241,199,249.2z"/>
		
			<linearGradient id="Stroke-35_1_" gradientUnits="userSpaceOnUse" x1="-2771.3171" y1="86.3257" x2="-2770.3171" y2="86.3257" gradientTransform="matrix(25.6744 0 0 30.6482 71189.9766 -2191.5276)">
			<stop  offset="0" style="stop-color:#EBEBEB"/>
			<stop  offset="1" style="stop-color:#FFFFFF"/>
		</linearGradient>
		<polygon id="Stroke-35" class="st13" points="38.1,465.6 42.6,469.5 63.7,450.5 60.6,438.9 50,445.5 		"/>
		<path id="Stroke-38" class="st14" d="M67.7,51.8c0,0-5.2,4.6-0.7,6.2c6,2.1,15.5-5.7,15.5-5.7s12.7,15.9,6.4,28.5l-10.1-14
			C66.1,79.6,46.5,92.3,38.1,84.1C24.8,71.2,48.6,45.5,67.7,51.8z"/>
	</g>
	<g id="k" transform="translate(513.000000, 127.000000)">
		
			<linearGradient id="Fill-43_1_" gradientUnits="userSpaceOnUse" x1="-2556.041" y1="56.4614" x2="-2556.041" y2="57.4613" gradientTransform="matrix(56.7417 0 0 169.9236 145099.8125 -9392.6328)">
			<stop  offset="0" style="stop-color:#00D3D3"/>
			<stop  offset="1" style="stop-color:#00AAAA"/>
		</linearGradient>
		<path id="Fill-43" class="st15" d="M37.8,201.5c-4.2,45.8,21.1,89.2,21.1,89.2L45,368.8l6.8,2.6c0,0,54.6-87.4,39.7-169.1
			L37.8,201.5z"/>
		
			<linearGradient id="Stroke-45_1_" gradientUnits="userSpaceOnUse" x1="-2516.4924" y1="117.5959" x2="-2516.4924" y2="118.5959" gradientTransform="matrix(23.251 0 0 16.2436 58563.3164 -1541.4254)">
			<stop  offset="0" style="stop-color:#EBEBEB"/>
			<stop  offset="1" style="stop-color:#FFFFFF"/>
		</linearGradient>
		<polygon id="Stroke-45" class="st16" points="45,368.8 51.7,371.4 64,381.9 62.8,385 40.7,376.6 		"/>
		<path id="Fill-46" class="st7" d="M66,203.7c7.8,19.6,13,56.9,1.8,84.4c-9.1,22.3-55.2,65.1-55.2,65.1l-5.9-7.5l37.1-69
			c0,0-17.7-46.6-17.4-71.8L66,203.7z"/>
		
			<linearGradient id="Stroke-48_1_" gradientUnits="userSpaceOnUse" x1="-2492.3147" y1="100.8392" x2="-2492.3147" y2="101.8393" gradientTransform="matrix(17.0859 0 0 21.5975 42592.0352 -1832.1309)">
			<stop  offset="0" style="stop-color:#EBEBEB"/>
			<stop  offset="1" style="stop-color:#FFFFFF"/>
		</linearGradient>
		<polygon id="Stroke-48" class="st17" points="12.7,353.2 17.1,365.6 14.6,367.3 0.1,351.4 6.8,345.7 		"/>
		<polygon id="Fill-50" class="st10" points="53.9,146.6 77.7,144.6 102.1,112.9 113.8,107.7 112.7,105.7 100.4,109.4 73.1,132 
			54.8,128 		"/>
		<path id="Fill-51" class="st10" d="M88.8,82.3c0,11.9-7.5,22-17.9,25.5c-2.4,8.1-1,10-1,10s-9.8,8.3-29.3,0c0,0,1.8-4.1,10.1-12.8
			c-9.4-4-13.3-11.4-13.3-22.6c0-14.7,11.5-26.7,25.7-26.7S88.8,67.6,88.8,82.3"/>
		<path id="Stroke-53" class="st14" d="M68.5,72c0,0,13.3,7.7,24.3-0.5c0,0-0.1-19.5-30.9-21.2c-25.4-1.5-38.3,25.6-36.6,41.9
			c11.6,14.2,30.2,16.4,30.2,16.4S50.5,85.9,68.5,72z"/>
		
			<linearGradient id="Fill-54_1_" gradientUnits="userSpaceOnUse" x1="-2561.6501" y1="61.6068" x2="-2561.6501" y2="62.6066" gradientTransform="matrix(71.3076 0 0 94.6035 182724.9844 -5713.3174)">
			<stop  offset="0" style="stop-color:#EBEBEB"/>
			<stop  offset="1" style="stop-color:#FFFFFF"/>
		</linearGradient>
		<path id="Fill-54" class="st18" d="M95.5,205.8c-29.2,8.3-69.6,0-69.6,0c-4.2-40.1-1.2-62.8,16.4-90.9c0,0,7.1,10.7,27.6,2.9
			C94.1,151.1,95.5,205.8,95.5,205.8"/>
		<path id="Fill-56" class="st10" d="M35.4,149.3c4.2,19.1,10.5,36.9,10.5,36.9c16.9,1,52.5-2.2,52.5-2.2l13.2,8.6l1-2.1l-13.5-11.4
			c0,0-34.5-2.8-44-5.8c0,0-0.7-10.3-4.4-27.5C45,147,40.3,148.1,35.4,149.3z"/>
	</g>
	<g id="Group-2" transform="translate(135.000000, 178.000000)">
		<circle class="st7" cx="72" cy="122" r="72"/>
		<g transform="translate(8.000000, 8.000000)">
			<path id="Fill-1" class="st11" d="M90.1,151.7c-20.5,0-37.2-16.7-37.2-37.2s16.7-37.2,37.2-37.2c1.5,0,2.7-1.2,2.7-2.7
				S91.6,72,90.1,72c-11.6,0-22.2,4.7-29.9,12.3c-0.9-6.9-6.8-12.3-14-12.3C38.3,72,32,78.3,32,86.2v56.7c0,7.8,6.3,14.2,14.2,14.2
				c7.2,0,13.1-5.4,14-12.3c7.7,7.6,18.2,12.3,29.9,12.3c1.5,0,2.7-1.2,2.7-2.7S91.6,151.7,90.1,151.7 M90.1,97.2
				c1.5,0,2.7-1.2,2.7-2.7s-1.2-2.7-2.7-2.7c-12.4,0-22.6,10.1-22.6,22.6S77.6,137,90.1,137c1.5,0,2.7-1.2,2.7-2.7s-1.2-2.7-2.7-2.7
				c-9.5,0-17.3-7.7-17.3-17.3S80.6,97.2,90.1,97.2"/>
		</g>
	</g>
</g>
</svg>
