<?xml version="1.0" encoding="UTF-8"?>
<svg width="512px" height="512px" viewBox="0 0 512 512" version="1.1" xmlns="http://www.w3.org/2000/svg" xmlns:xlink="http://www.w3.org/1999/xlink">
    <!-- Generator: Sketch 52.5 (67469) - http://www.bohemiancoding.com/sketch -->
    <title>app/bg</title>
    <desc>Created with Sketch.</desc>
    <defs>
        <path d="M178.504533,0 L333.495467,0 C384.896,0 410.589867,0 438.2592,8.74666667 C468.4672,19.7418667 492.258133,43.5328 503.253333,73.7408 C512,101.405867 512,127.108267 512,178.504533 L512,333.495467 C512,384.896 512,410.589867 503.253333,438.2592 C492.258133,468.4672 468.4672,492.258133 438.2592,503.249067 C410.589867,512 384.896,512 333.495467,512 L178.504533,512 C127.104,512 101.405867,512 73.7408,503.249067 C43.5328,492.258133 19.7418667,468.4672 8.74666667,438.2592 C0,410.589867 0,384.896 0,333.495467 L0,178.504533 C0,127.108267 0,101.405867 8.74666667,73.7408 C19.7418667,43.5328 43.5328,19.7418667 73.7408,8.74666667 C101.405867,0 127.104,0 178.504533,0 L178.504533,0" id="path-1"></path>
    </defs>
    <g id="app/bg" stroke="none" stroke-width="1" fill="none" fill-rule="evenodd">
        <g id="Group">
            <mask id="mask-2" fill="white">
                <use xlink:href="#path-1"></use>
            </mask>
            <use id="bg" fill="#FFFFFF" xlink:href="#path-1"></use>
            <g id="Page-1" mask="url(#mask-2)">
                <g transform="translate(86.000000, 86.000000)">
                    <path d="M10.92505,230.090538 C3.863675,211.407538 0.000425,191.156288 0.000425,169.999788 L0.000425,105.786538 L105.863675,82.4582875 L170.000425,169.999788 L108.099175,231.901038 L10.92505,230.090538 Z" id="Fill-1" fill="#FFD600"></path>
                    <path d="M170,0.000425000001 L10.2,0.000425000001 C4.566625,0.000425000001 0,4.56705 0,10.200425 L0,105.787175 L170,170.000425 L10.9565,230.078425 C35.234625,294.3108 97.267625,340.000425 170,340.000425 C263.888875,340.000425 340,263.8893 340,170.000425 C340,76.11155 263.888875,0.000425000001 170,0.000425000001" id="Fill-3" fill="#F9BE00"></path>
                    <path d="M329.071975,109.915412 L170.00085,169.999787 L322.5376,322.538662 C328.982725,328.981662 340.00085,324.419287 340.00085,315.305162 L340.00085,169.999787 C340.00085,148.841162 336.13335,128.602662 329.071975,109.915412" id="Fill-6" fill="#000000"></path>
                    <path d="M231.90125,231.901887 C197.71425,266.088887 142.28575,266.088887 108.09875,231.901887 C73.91175,197.714887 73.91175,142.286387 108.09875,108.099387 C142.28575,73.9123875 197.71425,73.9123875 231.90125,108.099387 C266.08825,142.286387 266.08825,197.714887 231.90125,231.901887" id="Fill-9" fill="#FEFEFE"></path>
                    <path d="M169.999787,202.507612 C152.045662,202.507612 137.491537,187.953487 137.491537,169.999362 C137.491537,152.047362 152.045662,137.493237 169.999787,137.493237 C187.953913,137.493237 202.508038,152.047362 202.508038,169.999362 C202.508038,187.953487 187.953913,202.507612 169.999787,202.507612" id="Fill-11" fill="#000000"></path>
                </g>
            </g>
        </g>
    </g>
</svg>