<?xml version="1.0" encoding="UTF-8"?>
<svg width="512px" height="512px" viewBox="0 0 512 512" version="1.1" xmlns="http://www.w3.org/2000/svg" xmlns:xlink="http://www.w3.org/1999/xlink">
    <!-- Generator: Sketch 52.5 (67469) - http://www.bohemiancoding.com/sketch -->
    <title>app/hnb</title>
    <desc>Created with Sketch.</desc>
    <defs>
        <linearGradient x1="100%" y1="0%" x2="0%" y2="100%" id="linearGradient-1">
            <stop stop-color="#FF7846" offset="0%"></stop>
            <stop stop-color="#FF4646" offset="100%"></stop>
        </linearGradient>
        <path d="M178.504533,0 L333.495467,0 C384.896,0 410.589867,0 438.2592,8.74666667 C468.4672,19.7418667 492.258133,43.5328 503.253333,73.7408 C512,101.405867 512,127.108267 512,178.504533 L512,333.495467 C512,384.896 512,410.589867 503.253333,438.2592 C492.258133,468.4672 468.4672,492.258133 438.2592,503.249067 C410.589867,512 384.896,512 333.495467,512 L178.504533,512 C127.104,512 101.405867,512 73.7408,503.249067 C43.5328,492.258133 19.7418667,468.4672 8.74666667,438.2592 C0,410.589867 0,384.896 0,333.495467 L0,178.504533 C0,127.108267 0,101.405867 8.74666667,73.7408 C19.7418667,43.5328 43.5328,19.7418667 73.7408,8.74666667 C101.405867,0 127.104,0 178.504533,0 L178.504533,0" id="path-2"></path>
    </defs>
    <g id="app/hnb" stroke="none" stroke-width="1" fill="none" fill-rule="evenodd">
        <g id="Group">
            <mask id="mask-3" fill="white">
                <use xlink:href="#path-2"></use>
            </mask>
            <use id="bg" fill="url(#linearGradient-1)" xlink:href="#path-2"></use>
            <path d="M273.2,396.84048 L273.2,335.80456 C307.62408,327.95792 333.4,297.12004 333.4,260.35332 C333.4,239.68236 325.34868,220.24464 310.7304,205.62464 L280.32596,175.21848 L322.89252,132.6502 L353.29696,163.05636 C379.28788,189.04556 393.6,223.60036 393.6,260.35332 C393.6,330.3986 340.97832,388.3454 273.2,396.84048 M213,260.35332 C213,248.86888 217.47372,238.069 225.59384,229.94888 L256,199.54272 L286.40616,229.94716 C294.52628,238.069 299,248.86888 299,260.35332 C299,284.06524 279.7102,303.35332 256,303.35332 C232.2898,303.35332 213,284.06524 213,260.35332 M377.62292,138.73212 L322.89252,84 L243.83788,163.05636 L243.8396,163.05636 L201.2696,205.62464 C186.65132,220.24464 178.6,239.68236 178.6,260.35332 C178.6,297.12004 204.37592,327.95792 238.8,335.80456 L238.8,396.84048 C171.02168,388.3454 118.4,330.3986 118.4,260.35332 C118.4,223.60036 132.71212,189.04556 158.70304,163.05636 L189.10748,132.6502 L210.39076,153.93348 L234.71672,129.60924 L189.10748,84 L134.37708,138.73212 C101.88972,171.21948 84,214.41212 84,260.35332 C84,355.19584 161.15748,432.35332 256,432.35332 C350.84252,432.35332 428,355.19584 428,260.35332 C428,214.41212 410.11028,171.21948 377.62292,138.73212" id="Fill-1" fill="#FFFFFF" mask="url(#mask-3)"></path>
        </g>
    </g>
</svg>