<?xml version="1.0" encoding="UTF-8"?>
<svg width="512px" height="512px" viewBox="0 0 512 512" version="1.1" xmlns="http://www.w3.org/2000/svg" xmlns:xlink="http://www.w3.org/1999/xlink">
    <!-- Generator: Sketch 52.5 (67469) - http://www.bohemiancoding.com/sketch -->
    <title>app/kf</title>
    <desc>Created with Sketch.</desc>
    <defs>
        <path d="M178.504533,0 L333.495467,0 C384.896,0 410.589867,0 438.2592,8.74666667 C468.4672,19.7418667 492.258133,43.5328 503.253333,73.7408 C512,101.405867 512,127.108267 512,178.504533 L512,333.495467 C512,384.896 512,410.589867 503.253333,438.2592 C492.258133,468.4672 468.4672,492.258133 438.2592,503.249067 C410.589867,512 384.896,512 333.495467,512 L178.504533,512 C127.104,512 101.405867,512 73.7408,503.249067 C43.5328,492.258133 19.7418667,468.4672 8.74666667,438.2592 C0,410.589867 0,384.896 0,333.495467 L0,178.504533 C0,127.108267 0,101.405867 8.74666667,73.7408 C19.7418667,43.5328 43.5328,19.7418667 73.7408,8.74666667 C101.405867,0 127.104,0 178.504533,0 L178.504533,0" id="path-1"></path>
    </defs>
    <g id="app/kf" stroke="none" stroke-width="1" fill="none" fill-rule="evenodd">
        <g id="Group">
            <mask id="mask-2" fill="white">
                <use xlink:href="#path-1"></use>
            </mask>
            <use id="bg" fill="#FFFFFF" xlink:href="#path-1"></use>
            <g id="Group-9" mask="url(#mask-2)">
                <g transform="translate(129.007874, 88.000000)">
                    <path d="M57.113432,340 C25.569999,340 0.000571128609,314.628917 0.000571128609,283.333333 L0.000571128609,56.6666667 C0.000571128609,25.3696667 25.569999,0 57.113432,0 C88.6554373,0 114.226293,25.3696667 114.226293,56.6666667 L114.226293,283.333333 C114.226293,314.628917 88.6554373,340 57.113432,340" id="Fill-1" fill="#00D3D3"></path>
                    <path d="M234.164586,260.3125 C183.973804,260.3125 143.140964,219.798667 143.140964,170 C143.140964,120.201333 183.973804,79.6875 234.164586,79.6875 C240.08005,79.6875 244.873247,84.44325 244.873247,90.3125 C244.873247,96.18175 240.08005,100.9375 234.164586,100.9375 C195.783315,100.9375 164.558287,131.918583 164.558287,170 C164.558287,208.081417 195.783315,239.0625 234.164586,239.0625 C240.08005,239.0625 244.873247,243.81825 244.873247,249.6875 C244.873247,255.55675 240.08005,260.3125 234.164586,260.3125" id="Fill-3" fill="#FFA299" style="mix-blend-mode: multiply;"></path>
                    <path d="M234.164586,340 C139.688491,340 62.8260031,263.738 62.8260031,170 C62.8260031,76.262 139.688491,0 234.164586,0 C240.08005,0 244.873247,4.75575 244.873247,10.625 C244.873247,16.49425 240.08005,21.25 234.164586,21.25 C151.498003,21.25 84.243326,87.97925 84.243326,170 C84.243326,252.02075 151.498003,318.75 234.164586,318.75 C240.08005,318.75 244.873247,323.50575 244.873247,329.375 C244.873247,335.24425 240.08005,340 234.164586,340" id="Fill-6" fill="#FFA299" style="mix-blend-mode: multiply;"></path>
                </g>
            </g>
        </g>
    </g>
</svg>