<?xml version="1.0" encoding="UTF-8"?>
<svg width="512px" height="512px" viewBox="0 0 512 512" version="1.1" xmlns="http://www.w3.org/2000/svg" xmlns:xlink="http://www.w3.org/1999/xlink">
    <!-- Generator: Sketch 52.5 (67469) - http://www.bohemiancoding.com/sketch -->
    <title>app/xl</title>
    <desc>Created with Sketch.</desc>
    <defs>
        <path d="M178.504533,0 L333.495467,0 C384.896,0 410.589867,0 438.2592,8.74666667 C468.4672,19.7418667 492.258133,43.5328 503.253333,73.7408 C512,101.405867 512,127.108267 512,178.504533 L512,333.495467 C512,384.896 512,410.589867 503.253333,438.2592 C492.258133,468.4672 468.4672,492.258133 438.2592,503.249067 C410.589867,512 384.896,512 333.495467,512 L178.504533,512 C127.104,512 101.405867,512 73.7408,503.249067 C43.5328,492.258133 19.7418667,468.4672 8.74666667,438.2592 C0,410.589867 0,384.896 0,333.495467 L0,178.504533 C0,127.108267 0,101.405867 8.74666667,73.7408 C19.7418667,43.5328 43.5328,19.7418667 73.7408,8.74666667 C101.405867,0 127.104,0 178.504533,0 L178.504533,0" id="path-1"></path>
    </defs>
    <g id="app/xl" stroke="none" stroke-width="1" fill="none" fill-rule="evenodd">
        <g id="Group">
            <mask id="mask-2" fill="white">
                <use xlink:href="#path-1"></use>
            </mask>
            <use id="bg" fill="#E60013" xlink:href="#path-1"></use>
            <g id="aichonglogo/logo" mask="url(#mask-2)" fill="#FFFFFF">
                <g transform="translate(85.333333, 85.333333)" id="Combined-Shape">
                    <path d="M116.923484,34.7304906 C119.636952,28.7481124 126.684686,26.0756192 132.676169,28.802746 C150.623304,36.943151 168.643284,35.2859321 168.834501,35.2449569 C175.235737,34.470981 181.236326,39.2332091 181.951116,45.7846872 C182.661353,52.3179542 177.9401,58.1819597 171.411386,58.9013019 C171.101795,58.9286187 168.55678,59.1972339 164.450156,59.1972339 C155.553986,59.1972339 139.355126,57.9634253 122.846676,50.4831761 C116.859745,47.7697077 114.205463,40.7128688 116.923484,34.7304906 Z M70.3642822,93.4188049 C126.072334,72.6125122 232.088818,74.183228 276.39666,105.693152 C295.973697,119.620165 299.775285,135.946503 299.50667,147.191917 C299.128787,163.695814 292.28593,177.836809 279.192079,189.22336 C248.082802,216.253329 184.580358,222.249366 134.40851,222.249366 C96.3789772,222.258471 66.0163589,218.812002 63.1890706,218.479648 C56.6603564,217.714778 51.9937371,211.805244 52.7540546,205.281083 C53.5189249,198.761474 59.4284584,194.126725 65.9526197,194.841514 C107.774634,199.722115 224.767917,205.007915 263.585083,171.253461 C271.534271,164.346865 275.499759,156.297516 275.718293,146.641028 C275.904958,138.550704 271.611668,131.493865 262.601679,125.088077 C224.517513,97.9898154 128.025485,97.2795787 78.6959049,115.70931 C72.5450731,117.999368 65.6885574,114.880701 63.3848409,108.729869 C61.0856773,102.574484 64.2088976,95.7179685 70.3642822,93.4188049 Z M56.3188965,143.201844 C138.83383,127.107698 223.68435,136.682235 227.258298,137.091987 C233.782459,137.847752 238.453631,143.757285 237.702419,150.281447 C236.937549,156.801055 231.028016,161.522308 224.508407,160.730121 C223.675245,160.639065 139.63057,151.192007 60.8762485,166.557704 C60.1113782,166.703394 59.3419552,166.780791 58.5861905,166.780791 C53.0044586,166.780791 48.028249,162.833514 46.9219188,157.151621 C45.6607934,150.700304 49.8721327,144.458416 56.3188965,143.201844 Z M338.383478,253.793891 C336.252768,256.225086 285.589217,313.171499 232.157565,305.527349 C209.247879,302.258439 194.478598,291.96456 181.443934,282.886278 C169.133165,274.295146 159.335541,267.588873 144.889509,268.317321 C128.895525,269.218775 120.017566,277.855435 109.732793,287.853382 C98.1686826,299.103349 85.1658879,311.760131 62.3654692,311.760131 C60.8675982,311.760131 59.3378576,311.71005 57.7489307,311.591678 C41.4089341,310.421608 27.5820827,301.252271 17.7571419,285.048858 C-8.15739156,242.329942 -3.58638109,155.184811 17.8117755,105.800598 C20.4205295,99.7681388 27.4363931,96.9863784 33.4551938,99.6178964 C39.4922056,102.222098 42.2557548,109.237961 39.6470008,115.261315 C21.3265365,157.529503 16.5552029,237.194385 38.1036018,272.710772 C43.9129737,282.298967 50.892415,287.243307 59.442572,287.853382 C73.7702313,288.977924 81.2368221,282.376365 93.1423922,270.798596 C104.52439,259.730741 118.679043,245.940312 143.564644,244.565367 C166.255796,243.327005 180.893045,253.497959 195.056804,263.359322 C206.966927,271.654522 218.212341,279.498996 235.526637,281.971166 C276.210451,287.798749 320.063014,238.587541 320.500082,238.091286 C324.848006,233.16971 332.36923,232.696219 337.290806,237.016826 C342.221488,241.355643 342.708637,248.863209 338.383478,253.793891 Z"></path>
                </g>
            </g>
        </g>
    </g>
</svg>