<?xml version="1.0" encoding="utf-8"?>
<!-- Generator: Adobe Illustrator 23.0.1, SVG Export Plug-In . SVG Version: 6.00 Build 0)  -->
<svg version="1.1" id="图层_1" xmlns="http://www.w3.org/2000/svg" xmlns:xlink="http://www.w3.org/1999/xlink" x="0px" y="0px"
	 viewBox="0 0 512 512" style="enable-background:new 0 0 512 512;" xml:space="preserve">
<style type="text/css">
	.st0{fill-rule:evenodd;clip-rule:evenodd;fill:#00AEFF;}
	.st1{filter:url(#Adobe_OpacityMaskFilter);}
	.st2{fill-rule:evenodd;clip-rule:evenodd;fill:#FFFFFF;}
	.st3{mask:url(#mask-2_1_);}
	.st4{fill-rule:evenodd;clip-rule:evenodd;}
</style>
<title>app/xy</title>
<desc>Created with Sketch.</desc>
<g>
	<g id="bg">
		<path class="st0" d="M178.5,0h155c51.4,0,77.1,0,104.8,8.7c30.2,11,54,34.8,65,65c8.7,27.7,8.7,53.4,8.7,104.8v172.2l-512,0V178.5
			c0-51.4,0-77.1,8.7-104.8c11-30.2,34.8-54,65-65C101.4,0,127.1,0,178.5,0L178.5,0"/>
	</g>
	<defs>
		<filter id="Adobe_OpacityMaskFilter" filterUnits="userSpaceOnUse" x="-18.6" y="112.6" width="549.2" height="521.6">
			<feColorMatrix  type="matrix" values="1 0 0 0 0  0 1 0 0 0  0 0 1 0 0  0 0 0 1 0"/>
		</filter>
	</defs>
	<mask maskUnits="userSpaceOnUse" x="-18.6" y="112.6" width="549.2" height="521.6" id="mask-2_1_">
		<g class="st1">
			<path id="path-1_1_" class="st2" d="M178.5,0h155c51.4,0,77.1,0,104.8,8.7c30.2,11,54,34.8,65,65c8.7,27.7,8.7,53.4,8.7,104.8
				v155c0,51.4,0,77.1-8.7,104.8c-11,30.2-34.8,54-65,65c-27.7,8.8-53.4,8.8-104.8,8.8h-155c-51.4,0-77.1,0-104.8-8.8
				c-30.2-11-54-34.8-65-65C0,410.6,0,384.9,0,333.5v-155c0-51.4,0-77.1,8.7-104.8c11-30.2,34.8-54,65-65C101.4,0,127.1,0,178.5,0
				L178.5,0"/>
		</g>
	</mask>
	<g id="Group" class="st3">
		<g id="Group-2" transform="translate(-19.000000, 112.000000)">
			<g>
				<path id="Combined-Shape" class="st2" d="M455.5,115.9c16.9,21.7,28.2,44.6,41.1,63.2c32.3,46.4,53,86.8,53,163.6
					c0,121-123,179.5-274.6,179.5S0.4,463.7,0.4,342.8c0-76.8,20.7-117.2,53-163.6c13-18.6,24.2-41.6,41.1-63.2
					c-7.1-2.5-13.8-6.5-19.5-12.2C54.9,83.6,54.9,51,75,30.9c13.6-13.6,51.6,15.5,68.2,41.9c29.7-17.3,71-28.9,131.7-28.9
					c60.7,0,102,11.6,131.7,28.9c16.7-26.4,54.6-55.6,68.2-41.9c20.1,20.1,20.1,52.7,0,72.8C469.3,109.4,462.6,113.5,455.5,115.9z"
					/>
				<path class="st4" d="M351.9,246.8c16.4,50.3-20.9,102-73.8,102s-90.2-51.7-73.8-102c24-73.5,44-165,57.1-232.3
					c3.6-18.4,29.9-18.4,33.5,0C308,81.8,328,173.3,351.9,246.8z M397.6,147c9.4,0,17.1,7.6,17.1,17.1v17.1
					c0,9.4-7.6,17.1-17.1,17.1c-9.4,0-17.1-7.6-17.1-17.1v-17.1C380.5,154.6,388.1,147,397.6,147z M158.6,147
					c9.4,0,17.1,7.6,17.1,17.1v17.1c0,9.4-7.6,17.1-17.1,17.1c-9.4,0-17.1-7.6-17.1-17.1v-17.1C141.6,154.6,149.2,147,158.6,147z"/>
			</g>
		</g>
	</g>
</g>
</svg>
