<?xml version="1.0" encoding="UTF-8"?>
<svg width="512px" height="512px" viewBox="0 0 512 512" version="1.1" xmlns="http://www.w3.org/2000/svg" xmlns:xlink="http://www.w3.org/1999/xlink">
    <!-- Generator: Sketch 52.5 (67469) - http://www.bohemiancoding.com/sketch -->
    <title>app/yx</title>
    <desc>Created with Sketch.</desc>
    <defs>
        <path d="M178.504533,0 L333.495467,0 C384.896,0 410.589867,0 438.2592,8.74666667 C468.4672,19.7418667 492.258133,43.5328 503.253333,73.7408 C512,101.405867 512,127.108267 512,178.504533 L512,333.495467 C512,384.896 512,410.589867 503.253333,438.2592 C492.258133,468.4672 468.4672,492.258133 438.2592,503.249067 C410.589867,512 384.896,512 333.495467,512 L178.504533,512 C127.104,512 101.405867,512 73.7408,503.249067 C43.5328,492.258133 19.7418667,468.4672 8.74666667,438.2592 C0,410.589867 0,384.896 0,333.495467 L0,178.504533 C0,127.108267 0,101.405867 8.74666667,73.7408 C19.7418667,43.5328 43.5328,19.7418667 73.7408,8.74666667 C101.405867,0 127.104,0 178.504533,0 L178.504533,0" id="path-1"></path>
        <linearGradient x1="79.0117027%" y1="70.9828377%" x2="25.9643299%" y2="29.0844147%" id="linearGradient-3">
            <stop stop-color="#007AFF" offset="0%"></stop>
            <stop stop-color="#1EE6B4" offset="100%"></stop>
        </linearGradient>
    </defs>
    <g id="app/yx" stroke="none" stroke-width="1" fill="none" fill-rule="evenodd">
        <g id="Group">
            <mask id="mask-2" fill="white">
                <use xlink:href="#path-1"></use>
            </mask>
            <use id="bg" fill="#FFFFFF" xlink:href="#path-1"></use>
            <g id="Group-2" mask="url(#mask-2)">
                <g transform="translate(86.000000, 86.000000)">
                    <circle id="Oval-3" fill-opacity="0" fill="#FFFFFF" cx="170" cy="170" r="170"></circle>
                    <polygon id="Fill-1" fill="#007AFF" points="304.827586 187.586207 340 170 304.827586 152.413793"></polygon>
                    <path d="M205.172414,170 C205.172414,153.812483 218.295241,140.689655 234.482759,140.689655 C250.670276,140.689655 263.793103,153.812483 263.793103,170 L205.172414,170 Z" id="Fill-2" fill="#007AFF"></path>
                    <path d="M193.448276,46.8965517 C125.46,46.8965517 70.3448276,102.011724 70.3448276,170 C70.3448276,172.450345 70.4175172,174.883103 70.5617241,177.295931 C71.2956552,189.668414 81.580069,199.310345 93.9736552,199.310345 L152.628345,199.310345 C166.284621,199.310345 176.937172,187.695241 176.001586,174.070621 C175.851517,171.896966 175.822207,169.690483 175.916,167.458207 C177.196276,137.18531 201.869724,112.600966 232.146138,111.425034 C265.585724,110.126 293.103448,136.848828 293.103448,170 L316.551724,170 C316.551724,102.011724 261.436552,46.8965517 193.448276,46.8965517" id="Fill-4" fill="#007AFF"></path>
                    <path d="M23.5830689,140.689655 C10.9854826,140.689655 0.681137816,150.641103 0.145344712,163.226966 C-0.0645173566,168.146414 -0.0492759773,173.124483 0.205137816,178.152966 C4.41879299,261.737862 74.0261723,327.986276 157.716586,328.27469 C245.387345,328.577172 316.55169,257.600414 316.55169,170 L293.103414,170 C293.103414,213.221034 257.122034,248.039379 213.478931,246.131862 C174.044793,244.409586 142.134034,212.19869 140.73769,172.752828 C140.652103,170.309517 140.680241,167.893172 140.822103,165.50731 C141.607621,152.094897 131.215345,140.689655 117.780655,140.689655 L23.5830689,140.689655 Z" id="Fill-7" fill="url(#linearGradient-3)"></path>
                </g>
            </g>
        </g>
    </g>
</svg>