<?xml version="1.0" encoding="utf-8"?>
<!-- Generator: Adobe Illustrator 23.0.1, SVG Export Plug-In . SVG Version: 6.00 Build 0)  -->
<svg version="1.1" id="图层_1" xmlns="http://www.w3.org/2000/svg" xmlns:xlink="http://www.w3.org/1999/xlink" x="0px" y="0px"
	 viewBox="0 0 1622 650" style="enable-background:new 0 0 1622 650;" xml:space="preserve">
<style type="text/css">
	.st0{opacity:0.12;}
	.st1{fill:#FFFFFF;}
	.st2{fill:none;stroke:#FFFFFF;stroke-width:3;stroke-miterlimit:10;}
	.st3{enable-background:new    ;}
	.st4{fill:none;stroke:#FFFFFF;stroke-width:3;stroke-miterlimit:10;stroke-dasharray:5,5;}
	.st5{fill:none;stroke:#FFFFFF;stroke-width:2.5752;stroke-miterlimit:10;}
</style>
<title>Tekengebied 1</title>
<g class="st0">
	<polygon class="st1" points="1528,225 1558,234.7 1537.3,256 	"/>
	<circle class="st1" cx="1350.3" cy="294.9" r="14"/>
	
		<ellipse transform="matrix(0.7071 -0.7071 0.7071 0.7071 319.033 1066.8402)" class="st2" cx="1447.3" cy="148.3" rx="33.1" ry="33.1"/>
	<circle class="st2" cx="1443.9" cy="404.3" r="6.9"/>
	<polygon class="st1" points="181.5,506.8 199,516.4 181.5,526.9 	"/>
	<circle class="st1" cx="326.3" cy="482.3" r="14.8"/>
	<polygon class="st2" points="1149.4,320.6 1154.8,304.6 1170.4,309.8 1165.1,325.6 	"/>
	<polygon class="st2" points="84.5,282.8 128.2,292.4 119.1,336.3 74.6,327.3 	"/>
	<g class="st3">
		<circle class="st1" cx="291.1" cy="219.1" r="3"/>
		<circle class="st1" cx="290.7" cy="233.2" r="3"/>
		<circle class="st1" cx="278.6" cy="296.6" r="3"/>
		<circle class="st1" cx="278.6" cy="282.5" r="3"/>
		<circle class="st1" cx="278.6" cy="268.4" r="3"/>
		<circle class="st1" cx="278.6" cy="254.3" r="3"/>
		<circle class="st1" cx="278.6" cy="240.2" r="3"/>
		<circle class="st1" cx="278.6" cy="226.1" r="3"/>
		<circle class="st1" cx="303.6" cy="296.6" r="3"/>
		<circle class="st1" cx="303.6" cy="282.5" r="3"/>
		<circle class="st1" cx="303.6" cy="268.4" r="3"/>
		<circle class="st1" cx="303.6" cy="254.3" r="3"/>
		<circle class="st1" cx="303.6" cy="240.2" r="3"/>
		<circle class="st1" cx="303.6" cy="226.1" r="3"/>
		<circle class="st1" cx="328.7" cy="282.5" r="3"/>
		<circle class="st1" cx="328.7" cy="268.4" r="3"/>
		<circle class="st1" cx="328.7" cy="254.3" r="3"/>
		<circle class="st1" cx="328.7" cy="240.2" r="3"/>
		<circle class="st1" cx="253.5" cy="282.5" r="3"/>
		<circle class="st1" cx="253.5" cy="268.4" r="3"/>
		<circle class="st1" cx="253.5" cy="254.3" r="3"/>
		<circle class="st1" cx="253.5" cy="240.2" r="3"/>
		<circle class="st1" cx="290.7" cy="247.3" r="3"/>
		<circle class="st1" cx="290.7" cy="261.4" r="3"/>
		<circle class="st1" cx="290.7" cy="275.5" r="3"/>
		<circle class="st1" cx="290.7" cy="289.6" r="3"/>
		<circle class="st1" cx="316.2" cy="233.2" r="3"/>
		<circle class="st1" cx="316.2" cy="247.3" r="3"/>
		<circle class="st1" cx="316.2" cy="261.4" r="3"/>
		<circle class="st1" cx="316.2" cy="275.5" r="3"/>
		<circle class="st1" cx="316.2" cy="289.6" r="3"/>
		<circle class="st1" cx="266" cy="233.2" r="3"/>
		<circle class="st1" cx="266" cy="247.3" r="3"/>
		<circle class="st1" cx="266" cy="261.4" r="3"/>
		<circle class="st1" cx="266" cy="275.5" r="3"/>
		<circle class="st1" cx="266" cy="289.6" r="3"/>
		<circle class="st1" cx="290.7" cy="303.7" r="3"/>
	</g>
	<line class="st2" x1="328.4" y1="386" x2="387.4" y2="352.7"/>
	<polygon class="st2" points="217.2,125.3 205.5,96.6 186.5,121 	"/>
	<line class="st2" x1="196" y1="108.8" x2="180.8" y2="97"/>
	<line class="st2" x1="1443.9" y1="397.3" x2="1443.9" y2="383"/>
	<line class="st2" x1="1221.7" y1="105.3" x2="1252.8" y2="136.4"/>
	<g class="st3">
		<ellipse class="st4" cx="669.6" cy="831.4" rx="324.6" ry="324.6"/>
	</g>
	<path class="st2" d="M1313.5,447l-40,9.3l-12,39.2l28,30.1l40-9.3l12-39.3L1313.5,447z M1301.5,497.6c-6.2,0-11.3-5-11.3-11.3
		c0-6.2,5-11.3,11.3-11.3s11.3,5,11.3,11.3C1312.8,492.5,1307.7,497.6,1301.5,497.6z"/>
	<line class="st2" x1="1447.3" y1="148.3" x2="1470.7" y2="124.9"/>
	<line class="st2" x1="1170.4" y1="309.8" x2="1196.8" y2="296.6"/>
	<line class="st2" x1="1146.4" y1="183.9" x2="1168.1" y2="205.6"/>
	<line class="st2" x1="1146.4" y1="205.6" x2="1168.1" y2="183.9"/>
	<path class="st5" d="M432.5,113.7l29.1,29.1c5.9,5.9,5.9,15.6,0,21.5l0,0c-5.9,5.9-15.6,5.9-21.5,0L411,135.2
		c-5.9-5.9-5.9-15.6,0-21.5l0,0C416.9,107.7,426.6,107.7,432.5,113.7z"/>
	<circle class="st5" cx="436.3" cy="139" r="5.9"/>
	<polygon class="st1" points="74.6,269.6 118.4,279.1 116.2,289.7 84.5,282.8 77,316.6 64.8,314.1 	"/>
</g>
</svg>
